<?xml version="1.0" encoding="UTF-8" standalone="no"?>
<svg
   xmlns:dc="http://purl.org/dc/elements/1.1/"
   xmlns:cc="http://creativecommons.org/ns#"
   xmlns:rdf="http://www.w3.org/1999/02/22-rdf-syntax-ns#"
   xmlns:svg="http://www.w3.org/2000/svg"
   xmlns="http://www.w3.org/2000/svg"
   xmlns:xlink="http://www.w3.org/1999/xlink"
   xmlns:sodipodi="http://sodipodi.sourceforge.net/DTD/sodipodi-0.dtd"
   xmlns:inkscape="http://www.inkscape.org/namespaces/inkscape"
   width="253.31015"
   height="387.0032"
   viewBox="0 0 253.31015 387.0032"
   version="1.1"
   id="svg126"
   sodipodi:docname="dots3-left-up.svg"
   inkscape:version="1.0.2 (1.0.2+r75+1)">
  <metadata
     id="metadata130">
    <rdf:RDF>
      <cc:Work
         rdf:about="">
        <dc:format>image/svg+xml</dc:format>
        <dc:type
           rdf:resource="http://purl.org/dc/dcmitype/StillImage" />
      </cc:Work>
    </rdf:RDF>
  </metadata>
  <sodipodi:namedview
     pagecolor="#ffffff"
     bordercolor="#666666"
     borderopacity="1"
     objecttolerance="10"
     gridtolerance="10"
     guidetolerance="10"
     inkscape:pageopacity="0"
     inkscape:pageshadow="2"
     inkscape:window-width="1866"
     inkscape:window-height="1016"
     id="namedview128"
     showgrid="false"
     inkscape:zoom="1.5050026"
     inkscape:cx="237.68967"
     inkscape:cy="216.03698"
     inkscape:window-x="54"
     inkscape:window-y="27"
     inkscape:window-maximized="1"
     inkscape:current-layer="svg126" />
  <defs
     id="defs3">
    <path
       id="w7uarmnkra"
       d="M 0,0 H 490 V 405 H 0 Z" />
  </defs>
  <g
     fill="none"
     fill-rule="evenodd"
     id="g124">
    <g
       id="g122">
      <g
         transform="rotate(180,245,202.5)"
         id="g120">
        <mask
           id="dd7j9ibh9b"
           fill="#ffffff">
          <use
             xlink:href="#w7uarmnkra"
             id="use5"
             x="0"
             y="0"
             width="100%"
             height="100%" />
        </mask>
        <g
           mask="url(#dd7j9ibh9b)"
           opacity="0.5"
           id="g118">
          <g
             id="g116">
            <path
               fill="#c4c4c4"
               d="m 250.624,741.056 146.061,29.183 5.207,-40.529 z m 146.454,30.267 c -0.02,0 -0.043,-0.003 -0.067,-0.003 L 246.888,741.315 c -0.243,-0.05 -0.413,-0.27 -0.397,-0.515 0.017,-0.246 0.21,-0.446 0.457,-0.462 l 155.476,-11.662 c 0.144,-0.016 0.293,0.047 0.396,0.153 0.1,0.107 0.15,0.256 0.13,0.403 l -5.35,41.662 c -0.016,0.137 -0.093,0.26 -0.203,0.34 -0.093,0.07 -0.206,0.096 -0.32,0.09 z M 72.773,776 9.293,915.042 125.723,845.775 Z M 8.154,916.772 c -0.11,-0.008 -0.216,-0.05 -0.3,-0.124 -0.162,-0.146 -0.209,-0.379 -0.119,-0.575 l 64.482,-141.24 c 0.073,-0.156 0.223,-0.266 0.396,-0.286 0.17,-0.023 0.346,0.056 0.446,0.193 l 53.785,70.876 c 0.086,0.116 0.12,0.259 0.093,0.399 -0.03,0.14 -0.113,0.259 -0.236,0.329 L 8.44,916.7 c -0.09,0.053 -0.19,0.077 -0.287,0.071 z"
               transform="translate(229,-483)"
               id="path8" />
            <path
               fill="#c4c4c4"
               d="m 73.516,775.337 52.661,69.4 16.991,-86.586 z m 52.9,71.076 c -0.139,-0.01 -0.272,-0.08 -0.359,-0.197 L 72.272,775.337 c -0.1,-0.13 -0.13,-0.31 -0.073,-0.462 0.056,-0.16 0.186,-0.28 0.35,-0.316 l 71.135,-17.555 c 0.16,-0.037 0.336,0.007 0.463,0.123 0.12,0.12 0.176,0.286 0.143,0.452 l -17.354,88.435 c -0.037,0.19 -0.187,0.342 -0.376,0.385 -0.047,0.01 -0.093,0.017 -0.143,0.014 z"
               transform="translate(229,-483)"
               id="path10" />
            <path
               fill="#c4c4c4"
               d="m 138.722,677.438 -64.93,96.815 69.495,-17.15 z m -66.089,98.095 c -0.146,-0.01 -0.282,-0.087 -0.372,-0.213 -0.117,-0.163 -0.12,-0.385 -0.007,-0.555 l 66.465,-99.102 c 0.12,-0.176 0.336,-0.246 0.542,-0.203 0.206,0.057 0.353,0.24 0.363,0.449 l 4.674,81.547 c 0.014,0.239 -0.146,0.452 -0.379,0.512 L 72.786,775.52 c -0.05,0.013 -0.103,0.016 -0.153,0.013 z"
               transform="translate(229,-483)"
               id="path12" />
            <path
               fill="#c4c4c4"
               d="m 139.686,676.96 4.568,79.722 60.236,-32.105 -64.804,-47.616 z m 4.085,81.019 c -0.073,-0.007 -0.146,-0.027 -0.21,-0.06 -0.146,-0.086 -0.242,-0.24 -0.252,-0.409 l -4.671,-81.547 c -0.01,-0.186 0.09,-0.369 0.26,-0.458 0.166,-0.097 0.372,-0.08 0.528,0.033 l 66.282,48.71 c 0.136,0.1 0.216,0.266 0.203,0.432 -0.013,0.17 -0.11,0.32 -0.263,0.402 l -61.61,32.837 c -0.084,0.047 -0.177,0.067 -0.267,0.06 z M 41.901,606.44 l 51.02,35.377 83.347,-51.333 -134.367,15.957 z m 50.974,36.464 c -0.09,-0.006 -0.173,-0.036 -0.25,-0.093 l -52.36,-36.304 c -0.167,-0.116 -0.247,-0.326 -0.197,-0.528 0.05,-0.197 0.216,-0.343 0.423,-0.37 l 137.893,-16.371 c 0.246,-0.027 0.453,0.11 0.526,0.329 0.076,0.22 -0.014,0.462 -0.206,0.585 l -85.536,52.676 c -0.09,0.056 -0.193,0.083 -0.293,0.076 z"
               transform="translate(229,-483)"
               id="path14" />
            <path
               fill="#c4c4c4"
               d="m 93.274,643.286 -19.783,129.636 64.965,-96.865 -45.182,-32.77 z m -20.64,132.245 c -0.05,-0.003 -0.097,-0.013 -0.147,-0.033 -0.213,-0.083 -0.343,-0.303 -0.31,-0.535 L 92.42,642.336 c 0.027,-0.173 0.14,-0.32 0.3,-0.383 0.16,-0.07 0.339,-0.046 0.482,0.054 l 46.223,33.528 c 0.216,0.16 0.27,0.455 0.12,0.675 L 73.08,775.315 c -0.1,0.15 -0.273,0.23 -0.446,0.216 z"
               transform="translate(229,-483)"
               id="path16" />
            <path
               fill="#c4c4c4"
               d="m 93.797,642.442 45.135,32.74 38.384,-84.179 -83.519,51.44 z m 45.301,33.99 c -0.093,-0.006 -0.18,-0.04 -0.259,-0.096 L 92.616,642.808 c -0.133,-0.096 -0.21,-0.256 -0.203,-0.419 0.007,-0.163 0.093,-0.312 0.236,-0.402 l 85.532,-52.68 c 0.183,-0.112 0.42,-0.096 0.59,0.05 0.162,0.144 0.212,0.38 0.12,0.58 l -39.31,86.207 c -0.06,0.136 -0.18,0.232 -0.323,0.272 -0.053,0.017 -0.106,0.02 -0.16,0.017 z"
               transform="translate(229,-483)"
               id="path18" />
            <path
               fill="#c4c4c4"
               d="m 139.876,675.497 143.436,10.916 -104.703,-95.86 z m 144.797,12.01 h -0.004 L 139.094,676.431 c -0.16,-0.014 -0.306,-0.103 -0.39,-0.243 -0.08,-0.14 -0.09,-0.31 -0.023,-0.459 l 39.31,-86.204 c 0.066,-0.143 0.2,-0.25 0.352,-0.279 0.15,-0.037 0.313,0.013 0.433,0.12 l 106.263,97.283 c 0.156,0.143 0.203,0.373 0.12,0.562 -0.08,0.193 -0.277,0.313 -0.486,0.296 z"
               transform="translate(229,-483)"
               id="path20" />
            <path
               fill="#c4c4c4"
               d="m 140.818,676.561 64.655,47.51 77.337,-36.703 z m 64.565,48.578 c -0.093,-0.007 -0.183,-0.037 -0.263,-0.094 l -66.282,-48.706 c -0.176,-0.133 -0.246,-0.37 -0.17,-0.572 0.074,-0.21 0.28,-0.34 0.496,-0.323 h 0.004 l 145.575,11.077 c 0.223,0.016 0.41,0.183 0.45,0.402 0.04,0.223 -0.074,0.442 -0.273,0.539 l -79.294,37.633 c -0.077,0.03 -0.16,0.047 -0.243,0.044 z"
               transform="translate(229,-483)"
               id="path22" />
            <path
               fill="#c4c4c4"
               d="m 206.664,724.6 40.137,15.628 36.425,-51.961 -76.562,36.334 z m 40.287,16.725 c -0.05,-0.003 -0.1,-0.017 -0.146,-0.033 l -41.572,-16.186 c -0.183,-0.073 -0.303,-0.246 -0.313,-0.442 -0.006,-0.2 0.104,-0.383 0.283,-0.466 l 79.29,-37.63 c 0.2,-0.093 0.443,-0.043 0.59,0.13 0.146,0.17 0.156,0.419 0.026,0.601 l -37.719,53.816 c -0.103,0.147 -0.27,0.22 -0.439,0.21 z"
               transform="translate(229,-483)"
               id="path24" />
            <path
               fill="#c4c4c4"
               d="m 284.892,687.609 -36.904,52.652 152.114,-11.409 z m -37.938,53.716 c -0.167,-0.013 -0.317,-0.103 -0.4,-0.25 -0.096,-0.166 -0.086,-0.368 0.024,-0.528 L 284.3,686.731 c 0.123,-0.18 0.366,-0.263 0.572,-0.18 l 117.755,42.152 c 0.223,0.083 0.356,0.302 0.322,0.532 -0.026,0.232 -0.22,0.412 -0.449,0.428 l -155.48,11.659 c -0.023,0.003 -0.043,0.003 -0.066,0.003 z m -38.354,137.521 236.455,88.95 -48.27,-196.213 z m 237.13,90.237 c -0.046,-0.004 -0.096,-0.014 -0.143,-0.03 L 207.27,879.4 c -0.183,-0.07 -0.306,-0.232 -0.325,-0.422 -0.015,-0.193 0.082,-0.376 0.251,-0.472 L 396.866,770.4 c 0.133,-0.077 0.302,-0.084 0.439,-0.024 0.143,0.063 0.25,0.186 0.286,0.34 l 48.655,197.755 c 0.04,0.18 -0.017,0.362 -0.153,0.485 -0.1,0.09 -0.23,0.133 -0.363,0.127 z M 157.341,547.426 43.256,605.28 177.693,589.32 157.341,547.425 Z M 40.515,606.594 c -0.203,-0.013 -0.383,-0.15 -0.443,-0.35 -0.066,-0.229 0.037,-0.475 0.253,-0.58 l 117.02,-59.348 c 0.113,-0.064 0.252,-0.07 0.382,-0.027 0.123,0.04 0.23,0.133 0.286,0.25 l 20.874,42.972 c 0.07,0.146 0.067,0.315 -0.013,0.455 -0.073,0.143 -0.213,0.236 -0.373,0.256 L 40.608,606.594 c -0.033,0.003 -0.063,0.003 -0.093,0 z"
               transform="translate(229,-483)"
               id="path26" />
            <path
               fill="#c4c4c4"
               d="m 158.31,547.153 20.263,41.716 48.292,-51.093 -68.554,9.377 z m 20.1,43.069 c -0.014,0 -0.03,0 -0.044,-0.003 -0.163,-0.027 -0.302,-0.127 -0.372,-0.273 L 157.12,546.974 c -0.067,-0.147 -0.063,-0.31 0.013,-0.45 0.073,-0.142 0.21,-0.235 0.366,-0.258 l 70.624,-9.664 c 0.216,-0.013 0.412,0.083 0.509,0.263 0.093,0.19 0.06,0.415 -0.083,0.568 l -49.75,52.636 c -0.1,0.106 -0.243,0.163 -0.39,0.153 z"
               transform="translate(229,-483)"
               id="path28" />
            <path
               fill="#c4c4c4"
               d="m 228.39,537.599 -48.229,51.034 137.185,-46.001 -88.955,-5.033 z m -49.979,52.623 c -0.156,-0.01 -0.299,-0.09 -0.389,-0.223 -0.123,-0.196 -0.096,-0.445 0.06,-0.608 l 49.75,-52.636 c 0.096,-0.107 0.24,-0.163 0.386,-0.157 l 91.753,5.193 h 0.004 c 0.24,0.017 0.429,0.193 0.459,0.429 0.033,0.232 -0.107,0.455 -0.333,0.535 l -141.503,47.443 c -0.06,0.02 -0.127,0.03 -0.187,0.024 z"
               transform="translate(229,-483)"
               id="path30" />
            <path
               fill="#c4c4c4"
               d="m 179.395,589.93 105.028,96.157 34.828,-143.046 z m 105.281,97.58 c -0.113,-0.007 -0.22,-0.05 -0.303,-0.13 L 178.107,590.096 c -0.13,-0.12 -0.183,-0.3 -0.15,-0.472 0.037,-0.17 0.16,-0.31 0.326,-0.362 l 141.504,-47.447 c 0.17,-0.057 0.362,-0.017 0.495,0.106 0.13,0.12 0.187,0.303 0.143,0.479 l -35.237,144.73 c -0.043,0.17 -0.173,0.31 -0.339,0.36 -0.056,0.02 -0.12,0.023 -0.173,0.02 z"
               transform="translate(229,-483)"
               id="path32" />
            <path
               fill="#c4c4c4"
               d="m 343.613,502.348 -112.624,34.412 88.69,5.013 z m -115.452,35.24 c -0.24,-0.014 -0.433,-0.2 -0.463,-0.436 -0.026,-0.24 0.117,-0.462 0.35,-0.528 l 116.517,-35.6 c 0.202,-0.073 0.409,0.007 0.535,0.167 0.127,0.16 0.14,0.385 0.033,0.558 l -24.763,40.792 c -0.1,0.156 -0.27,0.246 -0.452,0.236 l -91.754,-5.19 h -0.003 z M 144.189,758.09 127.121,845.065 255.712,786.02 Z m -17.77,88.321 c -0.1,-0.006 -0.193,-0.04 -0.276,-0.103 -0.146,-0.116 -0.213,-0.302 -0.18,-0.485 l 17.354,-88.435 c 0.027,-0.13 0.107,-0.246 0.22,-0.322 0.113,-0.07 0.256,-0.097 0.386,-0.06 l 113.393,28.396 c 0.206,0.05 0.356,0.222 0.376,0.435 0.02,0.21 -0.1,0.406 -0.287,0.495 l -130.75,60.036 c -0.073,0.033 -0.156,0.05 -0.236,0.043 z"
               transform="translate(229,-483)"
               id="path34" />
            <path
               fill="#c4c4c4"
               d="m 127.693,845.89 79.52,32.42 48.852,-91.362 z m 79.713,33.545 c -0.05,-0.007 -0.103,-0.017 -0.15,-0.037 l -80.993,-33.023 c -0.183,-0.073 -0.303,-0.25 -0.307,-0.445 -0.006,-0.197 0.107,-0.383 0.287,-0.463 L 256.99,785.432 c 0.186,-0.09 0.419,-0.046 0.569,0.113 0.146,0.156 0.176,0.385 0.073,0.572 l -49.756,93.055 c -0.09,0.173 -0.28,0.272 -0.47,0.263 z"
               transform="translate(229,-483)"
               id="path36" />
            <path
               fill="#c4c4c4"
               d="m 145.17,757.317 110.658,27.714 -50.531,-59.763 -60.127,32.05 z m 111.996,29.057 c -0.03,0 -0.06,-0.003 -0.09,-0.013 L 143.683,757.965 c -0.2,-0.05 -0.346,-0.216 -0.373,-0.422 -0.023,-0.2 0.08,-0.399 0.26,-0.495 l 61.614,-32.84 c 0.203,-0.107 0.459,-0.063 0.608,0.116 l 51.783,61.24 c 0.14,0.162 0.156,0.398 0.043,0.58 -0.1,0.157 -0.276,0.244 -0.452,0.23 z"
               transform="translate(229,-483)"
               id="path38" />
            <path
               fill="#c4c4c4"
               d="m 207.05,725.811 49.218,58.204 -9.708,-42.82 z m 50.116,60.565 c -0.133,-0.007 -0.26,-0.07 -0.346,-0.173 l -51.782,-61.24 c -0.147,-0.172 -0.157,-0.422 -0.027,-0.604 0.133,-0.187 0.376,-0.256 0.586,-0.173 l 41.568,16.185 c 0.153,0.057 0.266,0.19 0.3,0.35 l 10.214,45.05 c 0.05,0.222 -0.057,0.452 -0.26,0.555 -0.08,0.04 -0.17,0.056 -0.253,0.05 z"
               transform="translate(229,-483)"
               id="path40" />
            <path
               fill="#c4c4c4"
               d="m 257.509,786.346 -48.825,91.313 186.12,-106.08 z m -50.102,93.089 c -0.113,-0.01 -0.227,-0.06 -0.31,-0.14 -0.16,-0.157 -0.196,-0.396 -0.093,-0.592 l 49.756,-93.055 c 0.08,-0.143 0.223,-0.24 0.386,-0.256 l 139.91,-15.053 c 0.25,-0.033 0.456,0.117 0.526,0.34 0.073,0.222 -0.024,0.468 -0.227,0.585 L 207.683,879.368 c -0.083,0.05 -0.18,0.07 -0.276,0.067 z"
               transform="translate(229,-483)"
               id="path42" />
            <path
               fill="#c4c4c4"
               d="m 247.638,741.465 9.945,43.877 136.266,-14.657 -146.21,-29.22 z m 9.526,44.91 c -0.213,-0.013 -0.403,-0.166 -0.446,-0.382 L 246.5,740.94 c -0.036,-0.163 0.014,-0.336 0.127,-0.456 0.12,-0.12 0.276,-0.17 0.456,-0.14 l 150.123,30.002 c 0.24,0.047 0.41,0.266 0.4,0.509 -0.014,0.242 -0.2,0.445 -0.443,0.465 L 257.25,786.376 c -0.03,0.003 -0.056,0.003 -0.086,0 z"
               transform="translate(229,-483)"
               id="path44" />
            <path
               fill="#00324c"
               d="m 255.027,741.355 c 0.29,-4.438 -3.078,-8.268 -7.52,-8.56 -4.441,-0.29 -8.274,3.075 -8.563,7.513 -0.293,4.437 3.074,8.267 7.515,8.556 4.442,0.293 8.275,-3.071 8.568,-7.51"
               transform="translate(229,-483)"
               id="path46" />
            <path
               fill="#009468"
               d="m 73.528,775.094 c 0.03,-0.476 -0.33,-0.885 -0.805,-0.914 -0.476,-0.034 -0.885,0.325 -0.919,0.804 -0.03,0.472 0.33,0.884 0.805,0.914 0.476,0.033 0.889,-0.326 0.919,-0.804"
               transform="translate(229,-483)"
               id="path48" />
            <path
               fill="#0070e2"
               d="m 76,775.256 c 0.12,-1.842 -1.274,-3.427 -3.117,-3.547 -1.84,-0.123 -3.43,1.27 -3.55,3.111 -0.123,1.842 1.274,3.428 3.117,3.55 1.84,0.12 3.43,-1.272 3.55,-3.114 m 70.172,-17.618 c 0.084,-1.306 -0.904,-2.433 -2.215,-2.52 -1.308,-0.086 -2.436,0.905 -2.522,2.211 -0.083,1.31 0.908,2.437 2.216,2.52 1.307,0.086 2.435,-0.901 2.521,-2.21"
               transform="translate(229,-483)"
               id="path50" />
            <path
               fill="#f7b200"
               d="m 142.875,676.181 c 0.136,-2.064 -1.43,-3.849 -3.5,-3.985 -2.066,-0.133 -3.853,1.43 -3.986,3.5 -0.137,2.064 1.43,3.85 3.497,3.983 2.069,0.136 3.856,-1.433 3.989,-3.498"
               transform="translate(229,-483)"
               id="path52" />
            <path
               fill="#0070e2"
               d="m 76.572,775.295 c 0.14,-2.154 -1.494,-4.019 -3.65,-4.158 -2.159,-0.14 -4.022,1.492 -4.162,3.65 -0.14,2.15 1.494,4.015 3.654,4.155 2.152,0.14 4.019,-1.496 4.158,-3.647 M 210.9,725.003 c 0.197,-3.025 -2.099,-5.638 -5.126,-5.838 -3.031,-0.196 -5.646,2.095 -5.843,5.123 -0.196,3.025 2.097,5.638 5.124,5.837 3.031,0.2 5.646,-2.097 5.846,-5.122"
               transform="translate(229,-483)"
               id="path54" />
            <path
               fill="#009468"
               d="m 143.096,676.194 c 0.143,-2.184 -1.518,-4.075 -3.707,-4.218 -2.189,-0.143 -4.079,1.516 -4.222,3.703 -0.143,2.187 1.517,4.076 3.707,4.219 2.189,0.143 4.079,-1.516 4.222,-3.704"
               transform="translate(229,-483)"
               id="path56" />
            <path
               fill="#7bc0d3"
               d="m 97.844,642.728 c 0.176,-2.723 -1.887,-5.073 -4.615,-5.252 -2.728,-0.18 -5.083,1.885 -5.26,4.61 -0.176,2.723 1.89,5.077 4.615,5.256 2.728,0.176 5.08,-1.888 5.26,-4.614"
               transform="translate(229,-483)"
               id="path58" />
            <path
               fill="#009468"
               d="m 183.758,590.076 c 0.19,-2.935 -2.033,-5.468 -4.967,-5.658 -2.938,-0.193 -5.473,2.031 -5.663,4.963 -0.193,2.936 2.033,5.469 4.967,5.658 2.935,0.193 5.47,-2.03 5.663,-4.963"
               transform="translate(229,-483)"
               id="path60" />
            <path
               fill="#00324c"
               d="m 49.366,606.674 c 0.316,-4.863 -3.374,-9.068 -8.245,-9.38 -4.867,-0.32 -9.072,3.363 -9.388,8.23 -0.32,4.867 3.37,9.069 8.24,9.388 4.871,0.316 9.074,-3.371 9.393,-8.238"
               transform="translate(229,-483)"
               id="path62" />
            <path
               fill="#0070e2"
               d="m 141.884,676.117 c 0.1,-1.52 -1.052,-2.833 -2.572,-2.929 -1.52,-0.1 -2.835,1.054 -2.931,2.573 -0.1,1.516 1.051,2.826 2.571,2.925 1.52,0.103 2.832,-1.05 2.932,-2.57"
               transform="translate(229,-483)"
               id="path64" />
            <path
               fill="#9ae5ff"
               d="m 78.94,775.448 c 0.225,-3.46 -2.4,-6.45 -5.863,-6.679 -3.467,-0.222 -6.458,2.4 -6.684,5.861 -0.226,3.46 2.399,6.449 5.865,6.678 3.464,0.223 6.455,-2.4 6.681,-5.86"
               transform="translate(229,-483)"
               id="path66" />
            <path
               fill="#009468"
               d="m 179.18,589.777 c 0.027,-0.409 -0.283,-0.761 -0.689,-0.784 -0.409,-0.027 -0.762,0.282 -0.785,0.688 -0.027,0.409 0.283,0.758 0.689,0.784 0.406,0.027 0.758,-0.282 0.785,-0.688"
               transform="translate(229,-483)"
               id="path68" />
            <path
               fill="#0070e2"
               d="m 141.54,676.094 c 0.086,-1.326 -0.922,-2.473 -2.25,-2.563 -1.33,-0.086 -2.479,0.92 -2.565,2.247 -0.087,1.333 0.922,2.477 2.25,2.567 1.33,0.083 2.478,-0.925 2.564,-2.251"
               transform="translate(229,-483)"
               id="path70" />
            <path
               fill="#ff2e5f"
               d="m 183.066,590.03 c 0.166,-2.552 -1.767,-4.756 -4.322,-4.92 -2.552,-0.166 -4.758,1.766 -4.924,4.316 -0.166,2.553 1.767,4.757 4.322,4.923 2.552,0.166 4.754,-1.765 4.924,-4.318 m -40.339,86.141 c 0.13,-1.985 -1.374,-3.697 -3.36,-3.826 -1.987,-0.13 -3.703,1.373 -3.833,3.357 -0.127,1.985 1.377,3.7 3.364,3.826 1.986,0.13 3.7,-1.373 3.829,-3.357"
               transform="translate(229,-483)"
               id="path72" />
            <path
               fill="#009468"
               d="m 208.613,724.854 c 0.114,-1.762 -1.224,-3.288 -2.987,-3.401 -1.77,-0.12 -3.294,1.22 -3.41,2.985 -0.114,1.762 1.224,3.288 2.99,3.4 1.767,0.117 3.291,-1.22 3.407,-2.984"
               transform="translate(229,-483)"
               id="path74" />
            <path
               fill="#a6cc00"
               d="m 145.416,676.347 c 0.226,-3.467 -2.406,-6.462 -5.876,-6.688 -3.47,-0.226 -6.464,2.4 -6.69,5.87 -0.23,3.467 2.401,6.46 5.872,6.689 3.47,0.222 6.467,-2.404 6.694,-5.871"
               transform="translate(229,-483)"
               id="path76" />
            <path
               fill="#009468"
               d="m 213.26,725.155 c 0.283,-4.328 -2.998,-8.068 -7.333,-8.35 -4.335,-0.283 -8.075,3.002 -8.358,7.327 -0.283,4.331 3.001,8.07 7.333,8.353 4.335,0.283 8.075,-2.998 8.358,-7.33"
               transform="translate(229,-483)"
               id="path78" />
            <path
               fill="#d3e779"
               d="m 216.203,879.512 c 0.316,-4.837 -3.354,-9.012 -8.191,-9.328 -4.838,-0.313 -9.02,3.347 -9.336,8.184 -0.313,4.834 3.354,9.009 8.191,9.328 4.838,0.316 9.02,-3.35 9.336,-8.184"
               transform="translate(229,-483)"
               id="path80" />
            <path
               fill="#009468"
               d="m 231.857,537.333 c 0.133,-2.024 -1.404,-3.773 -3.427,-3.906 -2.03,-0.133 -3.776,1.403 -3.909,3.427 -0.133,2.025 1.404,3.773 3.427,3.903 2.03,0.133 3.78,-1.4 3.91,-3.424"
               transform="translate(229,-483)"
               id="path82" />
            <path
               fill="#ff2e5f"
               d="m 163.584,547.147 c 0.217,-3.318 -2.302,-6.183 -5.622,-6.403 -3.324,-0.216 -6.195,2.3 -6.412,5.621 -0.216,3.318 2.303,6.187 5.626,6.4 3.32,0.219 6.192,-2.298 6.408,-5.618"
               transform="translate(229,-483)"
               id="path84" />
            <path
               fill="#009468"
               d="m 160.113,546.923 c 0.093,-1.407 -0.972,-2.62 -2.38,-2.71 -1.407,-0.093 -2.618,0.974 -2.71,2.374 -0.094,1.406 0.974,2.62 2.378,2.712 1.407,0.09 2.622,-0.974 2.712,-2.376"
               transform="translate(229,-483)"
               id="path86" />
            <path
               fill="#009468"
               d="m 164.145,547.185 c 0.236,-3.63 -2.515,-6.764 -6.148,-7 -3.63,-0.24 -6.768,2.51 -7.007,6.14 -0.236,3.63 2.515,6.764 6.148,7.004 3.633,0.236 6.77,-2.513 7.007,-6.144 m 19.025,42.852 c 0.17,-2.61 -1.81,-4.863 -4.419,-5.033 -2.611,-0.17 -4.867,1.805 -5.037,4.415 -0.173,2.613 1.807,4.86 4.419,5.033 2.611,0.17 4.864,-1.809 5.037,-4.415"
               transform="translate(229,-483)"
               id="path88" />
            <path
               fill="#9ae5ff"
               d="m 164.444,547.205 c 0.25,-3.796 -2.632,-7.074 -6.428,-7.32 -3.796,-0.246 -7.077,2.63 -7.323,6.42 -0.25,3.795 2.628,7.073 6.425,7.323 3.799,0.246 7.08,-2.627 7.326,-6.423"
               transform="translate(229,-483)"
               id="path90" />
            <path
               fill="#00324c"
               d="m 234.62,537.512 c 0.229,-3.544 -2.46,-6.609 -6.013,-6.845 -3.55,-0.23 -6.614,2.46 -6.847,6.007 -0.233,3.547 2.459,6.612 6.009,6.845 3.553,0.229 6.62,-2.46 6.85,-6.007"
               transform="translate(229,-483)"
               id="path92" />
            <path
               fill="#009468"
               d="m 180.71,589.875 c 0.08,-1.25 -0.868,-2.33 -2.122,-2.414 -1.251,-0.08 -2.333,0.868 -2.412,2.118 -0.084,1.253 0.865,2.333 2.116,2.417 1.254,0.08 2.339,-0.868 2.418,-2.121"
               transform="translate(229,-483)"
               id="path94" />
            <path
               fill="#a6cc00"
               d="m 183.053,590.03 c 0.166,-2.546 -1.763,-4.743 -4.312,-4.91 -2.545,-0.162 -4.744,1.766 -4.907,4.306 -0.167,2.546 1.76,4.743 4.305,4.91 2.548,0.166 4.748,-1.762 4.914,-4.305"
               transform="translate(229,-483)"
               id="path96" />
            <path
               fill="#0070e2"
               d="m 259.38,786.024 c 0.077,-1.203 -0.835,-2.247 -2.04,-2.323 -1.207,-0.08 -2.248,0.834 -2.325,2.037 -0.08,1.207 0.832,2.247 2.04,2.324 1.204,0.083 2.249,-0.834 2.325,-2.038"
               transform="translate(229,-483)"
               id="path98" />
            <path
               fill="#ff2e5f"
               d="m 145.001,757.564 c 0.044,-0.662 -0.459,-1.234 -1.118,-1.277 -0.662,-0.04 -1.234,0.459 -1.277,1.12 -0.04,0.659 0.459,1.23 1.121,1.274 0.659,0.043 1.231,-0.46 1.274,-1.117"
               transform="translate(229,-483)"
               id="path100" />
            <path
               fill="#009468"
               d="m 260.303,786.086 c 0.11,-1.716 -1.188,-3.195 -2.904,-3.305 -1.714,-0.113 -3.194,1.184 -3.304,2.9 -0.113,1.714 1.184,3.19 2.9,3.303 1.714,0.11 3.195,-1.186 3.308,-2.898"
               transform="translate(229,-483)"
               id="path102" />
            <path
               fill="#7bc0d3"
               d="m 130.262,846.166 c 0.136,-2.105 -1.457,-3.92 -3.563,-4.056 -2.107,-0.14 -3.923,1.456 -4.06,3.56 -0.136,2.101 1.458,3.916 3.564,4.053 2.102,0.14 3.92,-1.453 4.059,-3.557"
               transform="translate(229,-483)"
               id="path104" />
            <path
               fill="#0070e2"
               d="m 261.3,786.15 c 0.147,-2.266 -1.57,-4.221 -3.832,-4.367 -2.27,-0.146 -4.226,1.565 -4.375,3.833 -0.147,2.263 1.57,4.218 3.84,4.364 2.261,0.15 4.218,-1.565 4.367,-3.83"
               transform="translate(229,-483)"
               id="path106" />
            <path
               fill="#83e7ff"
               d="m 213.22,725.155 c 0.283,-4.308 -2.984,-8.028 -7.296,-8.31 -4.312,-0.28 -8.035,2.982 -8.314,7.29 -0.283,4.308 2.984,8.028 7.296,8.31 4.312,0.28 8.035,-2.981 8.314,-7.29"
               transform="translate(229,-483)"
               id="path108" />
            <path
               fill="#7bc0d3"
               d="m 147.295,757.713 c 0.126,-1.928 -1.334,-3.59 -3.264,-3.717 -1.93,-0.126 -3.593,1.333 -3.72,3.258 -0.126,1.928 1.338,3.59 3.264,3.717 1.93,0.13 3.594,-1.333 3.72,-3.258"
               transform="translate(229,-483)"
               id="path110" />
            <path
               fill="#0070e2"
               d="m 261.846,786.186 c 0.17,-2.566 -1.776,-4.78 -4.348,-4.95 -2.565,-0.166 -4.784,1.776 -4.95,4.342 -0.17,2.566 1.776,4.784 4.348,4.95 2.565,0.166 4.784,-1.779 4.95,-4.342"
               transform="translate(229,-483)"
               id="path112" />
            <path
               fill="#9ae5ff"
               d="m 263.54,786.297 c 0.226,-3.5 -2.426,-6.522 -5.93,-6.752 -3.5,-0.23 -6.524,2.424 -6.757,5.924 -0.226,3.5 2.429,6.522 5.932,6.748 3.5,0.23 6.525,-2.42 6.754,-5.92"
               transform="translate(229,-483)"
               id="path114" />
          </g>
        </g>
      </g>
    </g>
  </g>
</svg>
