<svg xmlns="http://www.w3.org/2000/svg" xmlns:xlink="http://www.w3.org/1999/xlink" width="364" height="340" viewBox="0 0 364 340">
    <defs>
        <path id="50um7qvgaa" d="M0 0H490V445H0z"/>
    </defs>
    <g fill="none" fill-rule="evenodd" transform="rotate(180 245 222.5)">
        <mask id="vq7r9uw1jb" fill="#fff">
            <use xlink:href="#50um7qvgaa"/>
        </mask>
        <g mask="url(#vq7r9uw1jb)" opacity=".5">
            <g>
                <path fill="#C4C4C4" d="M335.497 344.878l2.196 15.137 74.942-19.406-77.138 4.269zm1.842 16.025c-.066-.005-.133-.026-.194-.066-.093-.061-.154-.163-.17-.272l-2.324-16.004c-.016-.109.016-.22.085-.306.07-.085.173-.14.282-.146l81.55-4.51c.222-.016.381.133.413.335.032.2-.096.394-.293.444l-79.224 20.512c-.04.013-.082.016-.125.013zM33.521 485.152l40.816 28.302 66.677-41.067-107.493 12.765zm40.78 29.171c-.073-.005-.14-.029-.2-.074l-41.89-29.043c-.133-.093-.196-.26-.156-.423.04-.157.173-.274.338-.295l110.314-13.098c.197-.021.362.088.42.263.062.176-.01.37-.164.468l-68.429 42.141c-.071.045-.154.067-.234.061z" transform="translate(101 -54)"/>
                <path fill="#C4C4C4" d="M75.038 513.954l36.108 26.192 30.707-67.343-66.815 41.15zm36.24 27.192c-.074-.005-.143-.032-.207-.077l-36.978-26.823c-.107-.077-.168-.204-.163-.335.006-.13.075-.25.19-.321l68.425-42.144c.147-.09.336-.077.471.04.13.115.17.303.096.463l-31.447 68.966c-.048.109-.144.186-.258.218-.043.013-.086.016-.128.013z" transform="translate(101 -54)"/>
                <path fill="#C4C4C4" d="M111.9 540.397l114.75 8.734-83.763-76.69-30.986 67.956zm115.838 9.609h-.002l-116.46-8.861c-.129-.011-.246-.083-.312-.195-.064-.111-.072-.247-.019-.367l31.447-68.963c.054-.114.16-.2.283-.223.12-.03.25.01.346.096l85.01 77.827c.125.114.162.297.096.449-.064.154-.221.25-.389.237z" transform="translate(101 -54)"/>
                <path fill="#C4C4C4" d="M228.831 549.573l92.919 33.266 38.77-91.286-131.689 58.02zm93.11 34.16c-.032-.003-.069-.011-.106-.024l-94.204-33.724c-.152-.053-.256-.197-.264-.356-.005-.163.088-.314.237-.378l133.509-58.826c.149-.066.322-.034.436.08.117.114.152.285.088.436l-39.302 92.55c-.07.156-.229.252-.394.242z" transform="translate(101 -54)"/>
                <path fill="#C4C4C4" d="M361.464 491.35l-38.767 91.288 120.086-45.646-81.319-45.643zm-39.523 92.381c-.096-.005-.186-.048-.255-.12-.112-.114-.144-.284-.083-.428l39.305-92.552c.045-.104.133-.18.237-.218.106-.035.226-.027.322.03l82.442 46.275c.13.075.213.221.2.373-.011.154-.11.287-.256.34l-121.744 46.276c-.053.019-.11.027-.168.024zM339.64 361.926l33.327 28.365 20.87-4.888-54.196-23.477zm33.197 29.192c-.085-.005-.168-.04-.232-.096L337.11 360.81c-.151-.125-.186-.343-.08-.51.107-.165.32-.23.493-.152l57.731 25.003c.154.067.25.23.234.4-.013.172-.135.31-.303.35l-22.23 5.207c-.04.008-.08.014-.117.011z" transform="translate(101 -54)"/>
                <path fill="#C4C4C4" d="M338.58 360.603l56.318 24.394 20.971-44.409-77.289 20.015zm56.488 25.306c-.045-.002-.09-.013-.13-.031l-57.731-25.007c-.155-.066-.248-.226-.234-.393.008-.168.127-.311.295-.354l79.221-20.515c.147-.04.31.014.408.13.095.12.117.285.05.424l-21.495 45.52c-.07.15-.227.237-.384.226z" transform="translate(101 -54)"/>
                <path fill="#C4C4C4" d="M373.223 391.046l-11.09 95.775 32.37-100.762-21.28 4.987zm-11.975 100.137c-.02-.004-.04-.006-.058-.012-.2-.04-.333-.228-.312-.43l11.59-100.065c.02-.165.14-.3.303-.34l22.232-5.208c.142-.024.288.014.381.117.096.104.13.256.085.391l-33.821 105.272c-.054.173-.221.285-.4.275z" transform="translate(101 -54)"/>
                <path fill="#C4C4C4" d="M395.296 386.176l-33.454 104.142 143.604-17.924-110.15-86.218zm-34.048 105.006c-.109-.008-.21-.056-.28-.14-.087-.105-.114-.245-.07-.376l33.818-105.272c.04-.125.138-.22.26-.258.126-.034.262-.013.363.067l111.342 87.153c.128.099.18.266.138.418-.042.154-.173.268-.335.287L361.32 491.179c-.021.003-.048.003-.072.003z" transform="translate(101 -54)"/>
                <path fill="#C4C4C4" d="M362.517 491.03l81.124 45.536 61.724-63.365-142.848 17.829zm81.17 46.428c-.057-.006-.115-.022-.168-.054l-82.44-46.273c-.149-.083-.229-.253-.194-.42.03-.168.168-.296.34-.314l145.164-18.121c.17-.03.328.069.402.215.075.152.048.333-.069.452l-62.724 64.395c-.083.085-.197.125-.312.12zM125.873 437.94l-91.268 46.285 107.55-12.768-16.282-33.516zm-93.461 47.335c-.163-.01-.306-.12-.354-.28-.054-.183.029-.38.202-.465l93.616-47.478c.09-.05.202-.055.306-.02.098.031.183.105.229.199l16.699 34.377c.056.117.053.253-.01.365-.06.114-.171.189-.299.205L32.486 485.275c-.026.003-.05.003-.074 0z" transform="translate(101 -54)"/>
                <path fill="#C4C4C4" d="M126.649 437.723l16.21 33.372 38.633-40.875-54.843 7.503zm16.079 34.455c-.01 0-.024 0-.035-.003-.13-.021-.242-.101-.298-.218l-16.7-34.378c-.052-.117-.05-.247.012-.36.058-.113.167-.188.292-.206l56.5-7.731c.172-.011.33.066.406.21.075.151.048.332-.066.455l-39.8 42.108c-.08.085-.194.13-.311.123zM314.194 257.624c-.032-.002-.064-.008-.096-.018-.208-.07-.322-.29-.255-.498l21.599-66.442c.07-.207.3-.314.5-.252.208.066.322.29.256.497l-21.602 66.44c-.056.178-.226.284-.402.273" transform="translate(101 -54)"/>
                <path fill="#C4C4C4" d="M336.072 191.303l-21.208 65.222 92.24-39.115-71.032-26.107zm-21.879 66.32c-.088-.003-.173-.04-.242-.101-.115-.107-.154-.269-.11-.415l21.603-66.44c.032-.103.106-.186.202-.234.098-.047.213-.055.311-.015l72.36 26.593c.152.056.256.203.258.365.003.162-.09.308-.242.372l-93.956 39.846c-.061.024-.123.034-.184.029z" transform="translate(101 -54)"/>
                <path fill="#C4C4C4" d="M314.875 258.268l20.476 85.824 80.19-4.436-100.666-81.388zm20.14 86.633c-.17-.011-.316-.133-.356-.306l-20.825-87.273c-.037-.165.032-.338.176-.429.143-.09.324-.08.46.03l102.37 82.763c.125.103.178.273.125.43-.048.155-.189.264-.351.272l-81.548 4.513h-.05z" transform="translate(101 -54)"/>
                <path fill="#C4C4C4" d="M314.981 257.336l101.151 81.779-8.31-121.149-92.84 39.37zm101.582 83.053c-.08-.006-.16-.035-.223-.088l-102.37-82.763c-.106-.09-.16-.226-.144-.364.019-.139.112-.256.24-.309l93.959-39.845c.12-.05.255-.04.362.029.109.064.178.18.189.308l8.409 122.609c.01.157-.073.306-.211.377-.067.038-.139.048-.21.046zM334.762 345.322l-55.538 53.118 57.712-38.125-2.174-14.993zm-59.02 56.267c-.109-.005-.213-.056-.282-.146-.128-.16-.114-.391.032-.535l59.275-56.69c.11-.1.264-.138.402-.088.144.048.245.173.266.32l2.321 16.001c.024.154-.045.303-.17.388l-61.599 40.689c-.074.048-.162.07-.245.061z" transform="translate(101 -54)"/>
                <path fill="#C4C4C4" d="M337.335 361.003l-59.988 39.625 94.555-10.202-34.567-29.423zm-61.593 40.587c-.155-.008-.293-.109-.346-.26-.064-.17 0-.365.154-.466l61.596-40.686c.15-.098.346-.085.477.03l35.493 30.215c.122.102.17.264.122.415-.045.152-.176.261-.335.277L275.81 401.59c-.024.003-.048.003-.07 0z" transform="translate(101 -54)"/>
                <path fill="#C4C4C4" d="M276.608 401.504l84.37 88.398 11.431-98.735-95.8 10.337zm84.64 89.68c-.098-.008-.19-.05-.26-.125l-85.505-89.592c-.107-.11-.139-.266-.088-.407.053-.144.18-.242.33-.258l97.091-10.473c.126-.016.24.032.328.114.085.086.125.205.112.325l-11.59 100.065c-.018.151-.122.279-.268.33-.048.018-.101.023-.15.021zM182.712 430.08l-38.583 40.826 109.748-36.8-71.165-4.027zm-39.983 42.097c-.125-.008-.24-.071-.311-.178-.099-.157-.078-.356.048-.487l39.8-42.108c.076-.085.19-.13.308-.126l73.403 4.155h.003c.191.013.343.154.367.343.027.186-.085.364-.266.428l-113.203 37.955c-.048.016-.101.024-.149.018z" transform="translate(101 -54)"/>
                <path fill="#C4C4C4" d="M143.516 471.944l84.023 76.925L255.4 434.433l-111.885 37.51zm84.225 78.064c-.09-.006-.176-.04-.242-.104l-85.013-77.827c-.104-.096-.147-.24-.12-.378.03-.135.128-.247.26-.29l113.203-37.957c.136-.045.29-.013.397.085.104.096.149.242.114.383l-28.19 115.784c-.034.136-.138.248-.27.288-.046.016-.097.018-.14.016z" transform="translate(101 -54)"/>
                <path fill="#C4C4C4" d="M274.89 401.878l-90.1 27.53 70.952 4.01 19.148-31.54zm-92.362 28.192c-.191-.01-.346-.16-.37-.348-.02-.192.094-.37.28-.423l93.214-28.48c.162-.058.327.006.428.134.101.127.112.308.027.446l-19.81 32.634c-.08.125-.216.196-.363.188l-73.403-4.15h-.003z" transform="translate(101 -54)"/>
                <path fill="#C4C4C4" d="M256.22 434.42l-27.881 114.507 132.036-58.177-104.155-56.33zm-28.48 115.587c-.082-.006-.165-.038-.229-.09-.117-.096-.168-.25-.13-.4l28.19-115.784c.031-.12.111-.218.223-.266.112-.05.242-.045.351.01l105.316 56.96c.133.074.216.217.208.366-.008.152-.099.288-.237.346l-133.508 58.826c-.059.026-.125.037-.184.032z" transform="translate(101 -54)"/>
                <path fill="#C4C4C4" d="M256.51 433.679l102.746 55.568-83.416-87.404-19.33 31.836zm104.74 57.505c-.06-.006-.112-.022-.166-.049l-105.316-56.959c-.096-.053-.167-.14-.197-.244-.026-.104-.008-.216.046-.309l19.81-32.633c.067-.104.176-.173.298-.186.123-.019.245.029.33.12l85.506 89.591c.136.141.144.36.03.511-.086.109-.216.165-.342.158zM335.794 191.184c-.125-.008-.248-.077-.314-.194-.112-.19-.05-.431.14-.543l76.603-44.779c.184-.111.431-.05.54.141.11.189.048.431-.143.543l-76.6 44.779c-.07.042-.15.058-.226.053" transform="translate(101 -54)"/>
                <path fill="#C4C4C4" d="M336.745 190.707l71.071 26.123 4.169-70.106-75.24 43.983zm71.41 27.073c-.04-.003-.075-.01-.112-.024l-72.36-26.594c-.144-.056-.242-.184-.258-.338-.013-.154.064-.3.194-.377l76.602-44.78c.125-.074.283-.074.408.006.125.077.197.213.19.36l-4.244 71.374c-.008.125-.072.24-.178.309-.072.048-.16.069-.243.064z" transform="translate(101 -54)"/>
                <path fill="#0097E5" d="M344.371 360.965c.256-3.867-2.677-7.204-6.548-7.457-3.87-.252-7.213 2.678-7.465 6.545-.25 3.864 2.68 7.204 6.55 7.457 3.87.253 7.21-2.678 7.463-6.545" transform="translate(101 -54)"/>
                <path fill="#AEC935" d="M342.507 344.992c.272-4.12-2.853-7.678-6.976-7.946-4.125-.269-7.684 2.853-7.953 6.972-.269 4.12 2.856 7.678 6.98 7.947 4.122.268 7.68-2.854 7.95-6.973" transform="translate(101 -54)"/>
                <path fill="#009468" d="M147.006 472.06c.152-2.347-1.626-4.374-3.973-4.525-2.35-.155-4.379 1.624-4.53 3.97-.155 2.348 1.626 4.375 3.973 4.526 2.348.155 4.376-1.625 4.53-3.97" transform="translate(101 -54)"/>
                <path fill="#00324C" d="M39.493 485.34c.253-3.891-2.7-7.255-6.596-7.505-3.894-.256-7.258 2.69-7.511 6.584-.256 3.894 2.696 7.255 6.593 7.51 3.897.253 7.258-2.696 7.514-6.59" transform="translate(101 -54)"/>
                <path fill="#009468" d="M143.344 471.822c.021-.327-.226-.61-.551-.628-.327-.021-.61.226-.628.55-.021.328.226.607.55.628.326.022.608-.226.629-.55" transform="translate(101 -54)"/>
                <path fill="#FF2E5F" d="M146.453 472.024c.133-2.042-1.414-3.805-3.458-3.935-2.041-.133-3.806 1.412-3.939 3.451-.133 2.043 1.413 3.806 3.458 3.939 2.041.133 3.803-1.412 3.939-3.455" transform="translate(101 -54)"/>
                <path fill="#009468" d="M185.486 429.866c.106-1.62-1.123-3.018-2.742-3.124-1.623-.107-3.02 1.122-3.127 2.742-.107 1.62 1.123 3.018 2.741 3.122 1.624.106 3.024-1.12 3.128-2.74" transform="translate(101 -54)"/>
                <path fill="#0097EC" d="M368.155 491.235c.247-3.798-2.633-7.074-6.434-7.324-3.8-.248-7.08 2.63-7.327 6.428-.25 3.797 2.63 7.074 6.43 7.324 3.801.247 7.08-2.63 7.33-6.428" transform="translate(101 -54)"/>
                <path fill="#0070E2" d="M377.41 391.02c.166-2.508-1.74-4.678-4.253-4.84-2.512-.166-4.679 1.736-4.844 4.246-.162 2.51 1.738 4.678 4.25 4.843 2.513.162 4.682-1.742 4.847-4.25" transform="translate(101 -54)"/>
                <path fill="#9AE5FF" d="M379.529 391.157c.242-3.68-2.55-6.856-6.234-7.098-3.683-.24-6.861 2.548-7.104 6.229-.24 3.68 2.55 6.858 6.234 7.097 3.684.242 6.864-2.547 7.104-6.228" transform="translate(101 -54)"/>
                <path fill="#FF2E5F" d="M130.867 437.717c.173-2.654-1.841-4.946-4.498-5.122-2.659-.173-4.956 1.84-5.129 4.497-.173 2.654 1.842 4.95 4.501 5.12 2.656.175 4.953-1.838 5.126-4.495" transform="translate(101 -54)"/>
                <path fill="#009468" d="M128.09 437.538c.075-1.125-.777-2.096-1.903-2.167-1.126-.075-2.095.779-2.17 1.898-.074 1.125.78 2.096 1.904 2.17 1.126.072 2.097-.779 2.169-1.901" transform="translate(101 -54)"/>
                <path fill="#009468" d="M131.316 437.748c.189-2.904-2.012-5.412-4.919-5.6-2.904-.192-5.414 2.008-5.605 4.912-.19 2.904 2.012 5.411 4.919 5.603 2.906.189 5.416-2.01 5.605-4.915M146.536 472.03c.136-2.088-1.448-3.891-3.535-4.027-2.09-.135-3.894 1.444-4.03 3.532-.138 2.09 1.446 3.888 3.535 4.026 2.09.136 3.891-1.446 4.03-3.531" transform="translate(101 -54)"/>
                <path fill="#9AE5FF" d="M131.555 437.764c.2-3.037-2.105-5.66-5.142-5.856-3.037-.197-5.662 2.104-5.859 5.135-.2 3.037 2.103 5.66 5.14 5.859 3.04.197 5.664-2.1 5.861-5.138" transform="translate(101 -54)"/>
                <path fill="#00324C" d="M187.695 430.01c.184-2.836-1.967-5.288-4.81-5.476-2.84-.184-5.29 1.968-5.477 4.805-.186 2.838 1.967 5.29 4.807 5.476 2.843.183 5.297-1.968 5.48-4.806" transform="translate(101 -54)"/>
                <path fill="#009468" d="M144.568 471.9c.064-1-.694-1.865-1.698-1.931-1-.064-1.866.694-1.93 1.694-.066 1.003.693 1.867 1.693 1.933 1.004.064 1.871-.694 1.935-1.696" transform="translate(101 -54)"/>
                <path fill="#F7B200" d="M321.025 257.672c.245-3.755-2.603-6.996-6.362-7.241-3.758-.245-7.002 2.598-7.247 6.356-.245 3.752 2.603 6.994 6.361 7.241 3.756.245 7.003-2.6 7.248-6.356" transform="translate(101 -54)"/>
                <path fill="#83E7FF" d="M321.454 257.7c.26-3.99-2.766-7.437-6.761-7.698-3.995-.26-7.445 2.766-7.706 6.755-.26 3.992 2.766 7.438 6.761 7.699 3.993.26 7.445-2.766 7.706-6.755" transform="translate(101 -54)"/>
                <path fill="#009468" d="M337.722 190.914c.067-1.051-.726-1.955-1.778-2.024-1.048-.07-1.956.726-2.025 1.776-.067 1.048.73 1.955 1.778 2.024 1.051.07 1.959-.726 2.025-1.776" transform="translate(101 -54)"/>
                <path fill="#AEC935" d="M284.05 401.735c.296-4.569-3.167-8.515-7.74-8.81-4.575-.301-8.522 3.161-8.823 7.73-.298 4.569 3.17 8.516 7.742 8.813 4.57.3 8.523-3.162 8.821-7.733" transform="translate(101 -54)"/>
                <path fill="#009468" d="M259.591 434.063c.13-2.005-1.39-3.736-3.399-3.867-2.007-.132-3.742 1.389-3.87 3.394-.13 2.005 1.39 3.739 3.396 3.867 2.007.133 3.74-1.386 3.873-3.394" transform="translate(101 -54)"/>
                <path fill="#A6CC00" d="M146.442 472.024c.133-2.037-1.41-3.795-3.45-3.928-2.035-.13-3.795 1.413-3.925 3.444-.133 2.037 1.408 3.795 3.444 3.928 2.039.133 3.798-1.41 3.931-3.444" transform="translate(101 -54)"/>
                <path fill="#009468" d="M260.748 434.139c.17-2.644-1.832-4.928-4.48-5.101-2.648-.17-4.932 1.832-5.105 4.478-.173 2.644 1.834 4.925 4.48 5.1 2.645.171 4.932-1.834 5.105-4.477" transform="translate(101 -54)"/>
                <path fill="#F7B200" d="M258.902 434.02c.107-1.626-1.128-3.033-2.755-3.139-1.626-.104-3.031 1.128-3.138 2.752-.106 1.628 1.126 3.032 2.752 3.139 1.63.106 3.035-1.128 3.141-2.753" transform="translate(101 -54)"/>
                <path fill="#009468" d="M260.054 434.094c.149-2.263-1.568-4.215-3.83-4.364-2.266-.146-4.22 1.567-4.368 3.83-.147 2.26 1.567 4.215 3.83 4.361 2.265.15 4.219-1.564 4.368-3.827" transform="translate(101 -54)"/>
                <path fill="#5CE9FF" d="M260.573 434.128c.165-2.548-1.764-4.75-4.317-4.917-2.55-.165-4.754 1.766-4.921 4.313-.165 2.55 1.767 4.753 4.317 4.918 2.553.167 4.756-1.764 4.921-4.314" transform="translate(101 -54)"/>
                <path fill="#FF2E5F" d="M336.657 190.845c.029-.46-.32-.86-.783-.888-.46-.032-.857.319-.889.779-.03.46.32.859.78.888.463.03.86-.319.892-.78" transform="translate(101 -54)"/>
                <path fill="#1A95D9" d="M338.51 190.966c.098-1.484-1.027-2.769-2.513-2.865-1.488-.095-2.768 1.03-2.866 2.514-.099 1.484 1.027 2.765 2.515 2.864 1.485.095 2.768-1.03 2.864-2.513" transform="translate(101 -54)"/>
            </g>
        </g>
    </g>
</svg>
