<?xml version="1.0" encoding="utf-8"?>
<!-- Generator: Adobe Illustrator 24.0.2, SVG Export Plug-In . SVG Version: 6.00 Build 0)  -->
<svg version="1.1" id="Layer_1" xmlns="http://www.w3.org/2000/svg" xmlns:xlink="http://www.w3.org/1999/xlink" x="0px" y="0px"
	 viewBox="0 0 490 472" style="enable-background:new 0 0 490 472;" xml:space="preserve">
<style type="text/css">
	.st0{clip-path:url(#SVGID_2_);}
	.st1{clip-path:url(#SVGID_4_);}
	.st2{opacity:0.5;}
	.st3{fill-rule:evenodd;clip-rule:evenodd;fill:#C4C4C4;}
	.st4{fill-rule:evenodd;clip-rule:evenodd;fill:#FF2E5F;}
	.st5{fill-rule:evenodd;clip-rule:evenodd;fill:#0097E5;}
	.st6{fill-rule:evenodd;clip-rule:evenodd;fill:#AEC935;}
	.st7{fill-rule:evenodd;clip-rule:evenodd;fill:#009468;}
	.st8{fill-rule:evenodd;clip-rule:evenodd;fill:#A6CC00;}
	.st9{fill-rule:evenodd;clip-rule:evenodd;fill:#0070E2;}
	.st10{fill-rule:evenodd;clip-rule:evenodd;fill:#9AE5FF;}
	.st11{fill-rule:evenodd;clip-rule:evenodd;fill:#00324C;}
	.st12{fill-rule:evenodd;clip-rule:evenodd;fill:#F7B200;}
	.st13{fill-rule:evenodd;clip-rule:evenodd;fill:#83E7FF;}
	.st14{fill-rule:evenodd;clip-rule:evenodd;fill:#00324A;}
	.st15{fill-rule:evenodd;clip-rule:evenodd;fill:#CCF2FF;}
	.st16{fill-rule:evenodd;clip-rule:evenodd;fill:#1A95D9;}
</style>
<g>
	<defs>
		<rect id="SVGID_1_" width="490" height="472"/>
	</defs>
	<clipPath id="SVGID_2_">
		<use xlink:href="#SVGID_1_"  style="overflow:visible;"/>
	</clipPath>
	<g class="st0">
		<g>
			<defs>
				<rect id="SVGID_3_" width="490" height="472"/>
			</defs>
			<clipPath id="SVGID_4_">
				<use xlink:href="#SVGID_3_"  style="overflow:visible;"/>
			</clipPath>
			<g class="st1">
				<g>
					<g transform="translate(-950 -90) matrix(1 0 0 -1 950 562)">
						<g class="st2">
							<g>
								<path class="st3" d="M381.3,163l2.7-18.9l93.7,24.3L381.3,163L381.3,163z M383.6,142.9c-0.1,0-0.2,0-0.2,0.1
									c-0.1,0.1-0.2,0.2-0.2,0.3l-2.9,20c0,0.1,0,0.3,0.1,0.4c0.1,0.1,0.2,0.2,0.4,0.2l101.9,5.6c0.3,0,0.5-0.2,0.5-0.4
									c0-0.3-0.1-0.5-0.4-0.6l-99-25.6C383.7,142.9,383.7,142.9,383.6,142.9L383.6,142.9z M3.8-12.4l51-35.4l83.3,51.3L3.8-12.4
									L3.8-12.4z M54.8-48.9c-0.1,0-0.2,0-0.3,0.1L2.2-12.5C2-12.3,2-12.1,2-11.9c0,0.2,0.2,0.3,0.4,0.4L140.3,4.8
									c0.2,0,0.5-0.1,0.5-0.3c0.1-0.2,0-0.5-0.2-0.6L55.1-48.8C55-48.8,54.9-48.9,54.8-48.9z"/>
								<path class="st3" d="M55.7-48.4l45.1-32.7L139.3,3L55.7-48.4L55.7-48.4z M101-82.4c-0.1,0-0.2,0-0.3,0.1L54.6-48.8
									c-0.1,0.1-0.2,0.3-0.2,0.4c0,0.2,0.1,0.3,0.2,0.4l85.5,52.7c0.2,0.1,0.4,0.1,0.6,0c0.2-0.1,0.2-0.4,0.1-0.6l-39.3-86.2
									c-0.1-0.1-0.2-0.2-0.3-0.3C101.2-82.4,101.1-82.4,101-82.4L101-82.4z"/>
								<path class="st3" d="M101.8-81.4l143.4-10.9L140.6,3.5L101.8-81.4L101.8-81.4z M246.6-93.5L246.6-93.5L101-82.4
									c-0.2,0-0.3,0.1-0.4,0.2s-0.1,0.3,0,0.5l39.3,86.2c0.1,0.1,0.2,0.3,0.4,0.3c0.1,0,0.3,0,0.4-0.1L247-92.6
									c0.2-0.1,0.2-0.4,0.1-0.6C247-93.4,246.8-93.5,246.6-93.5L246.6-93.5z M483.6,169.1l162.3-76.7l-73.9,141L483.6,169.1
									L483.6,169.1z M647,90.9c-0.1,0-0.1,0-0.2,0l-164.4,77.7c-0.2,0.1-0.3,0.2-0.3,0.4s0.1,0.3,0.2,0.4l89.5,65.1
									c0.1,0.1,0.3,0.1,0.4,0.1c0.1,0,0.3-0.1,0.3-0.3l74.9-142.8c0.1-0.2,0.1-0.4-0.1-0.6C647.3,90.9,647.2,90.9,647,90.9
									L647,90.9z M386.5,141.6l41.7-35.5l26.1,6.1L386.5,141.6L386.5,141.6z M428,105.2c-0.1,0-0.2,0-0.3,0.1L383.3,143
									c-0.2,0.2-0.2,0.4-0.1,0.6c0.1,0.2,0.4,0.3,0.6,0.2l72.2-31.3c0.2-0.1,0.3-0.3,0.3-0.5s-0.2-0.4-0.4-0.4l-27.8-6.5
									C428.1,105.2,428,105.1,428,105.2z"/>
								<path class="st3" d="M385.2,143.3l70.4-30.5l26.2,55.5L385.2,143.3L385.2,143.3z M455.8,111.7c-0.1,0-0.1,0-0.2,0L383.5,143
									c-0.2,0.1-0.3,0.3-0.3,0.5s0.2,0.4,0.4,0.4l99,25.6c0.2,0,0.4,0,0.5-0.2c0.1-0.1,0.1-0.4,0.1-0.5l-26.9-56.9
									C456.2,111.8,456,111.6,455.8,111.7L455.8,111.7z"/>
								<path class="st3" d="M428.5,105.2L414.6-14.5l40.5,126L428.5,105.2L428.5,105.2z M413.5-19.9L413.5-19.9
									c-0.3,0.1-0.5,0.3-0.5,0.6l14.5,125.1c0,0.2,0.2,0.4,0.4,0.4l27.8,6.5c0.2,0,0.4,0,0.5-0.1s0.2-0.3,0.1-0.5L414-19.6
									C413.9-19.8,413.7-19.9,413.5-19.9L413.5-19.9z"/>
								<path class="st3" d="M456.6,112.6l187.6-20.4l-161.3,76.2L456.6,112.6L456.6,112.6z M647,90.9L647,90.9l-191.3,20.8
									c-0.2,0-0.3,0.1-0.4,0.3c-0.1,0.1-0.1,0.3,0,0.5l26.9,56.9c0.1,0.1,0.2,0.2,0.3,0.3c0.1,0,0.3,0,0.4,0L647.3,92
									c0.2-0.1,0.3-0.4,0.3-0.6C647.5,91,647.3,90.9,647,90.9L647,90.9z"/>
								<path class="st3" d="M472.7,321.2L483.1,170l88.3,64.2L472.7,321.2L472.7,321.2z M482.7,168.6c-0.1,0-0.1,0-0.2,0
									c-0.2,0.1-0.3,0.2-0.3,0.4l-10.5,153.3c0,0.2,0.1,0.4,0.3,0.5s0.4,0.1,0.5-0.1l100-88.2c0.1-0.1,0.2-0.2,0.2-0.4
									c0-0.1-0.1-0.3-0.2-0.4l-89.5-65C482.9,168.6,482.8,168.6,482.7,168.6L482.7,168.6z"/>
								<path class="st3" d="M473.1,322.1l98.5-86.8l-6,121.8L473.1,322.1L473.1,322.1z M572.2,233.7c-0.1,0-0.2,0-0.3,0.1
									l-100,88.2c-0.1,0.1-0.2,0.3-0.2,0.5s0.1,0.3,0.3,0.4l93.9,35.5c0.1,0.1,0.3,0,0.4,0c0.1-0.1,0.2-0.2,0.2-0.4l6.1-123.6
									c0-0.2-0.1-0.4-0.3-0.5C572.3,233.7,572.2,233.7,572.2,233.7L572.2,233.7z M456.1,111.3L414.2-18.8L593.8,3.6L456.1,111.3z
									 M413.5-19.9c-0.1,0-0.3,0.1-0.3,0.2c-0.1,0.1-0.1,0.3-0.1,0.5l42.3,131.6c0,0.2,0.2,0.3,0.3,0.3c0.2,0,0.3,0,0.5-0.1
									l139.1-109c0.2-0.1,0.2-0.3,0.2-0.5c-0.1-0.2-0.2-0.3-0.4-0.4L413.5-19.9C413.6-19.9,413.5-19.9,413.5-19.9L413.5-19.9z"/>
								<path class="st3" d="M415.1-19.7l101.4-56.9l77.2,79.2L415.1-19.7L415.1-19.7z M516.6-77.8c-0.1,0-0.1,0-0.2,0.1l-103,57.8
									c-0.2,0.1-0.3,0.3-0.2,0.5c0,0.2,0.2,0.4,0.4,0.4L594.9,3.7c0.2,0,0.4-0.1,0.5-0.3s0.1-0.4-0.1-0.6l-78.4-80.5
									C516.8-77.7,516.7-77.8,516.6-77.8L516.6-77.8z"/>
								<path class="st3" d="M457.5,111.5L594.9,3.9l51.4,87L457.5,111.5z M595,2.7c-0.1,0-0.2,0-0.3,0.1l-139.2,109
									c-0.2,0.1-0.2,0.4-0.2,0.6c0.1,0.2,0.3,0.3,0.5,0.3L647,91.9c0.2,0,0.3-0.1,0.4-0.3c0.1-0.1,0.1-0.3,0-0.5L595.4,3
									c-0.1-0.1-0.2-0.2-0.3-0.2C595,2.7,595,2.7,595,2.7L595,2.7z M119.3,46.6L5.2-11.2l134.4,16L119.3,46.6L119.3,46.6z
									 M2.5-12.5c-0.2,0-0.4,0.2-0.4,0.3c-0.1,0.2,0,0.5,0.3,0.6l117,59.3c0.1,0.1,0.3,0.1,0.4,0c0.1,0,0.2-0.1,0.3-0.3l20.9-43
									c0.1-0.1,0.1-0.3,0-0.5c-0.1-0.1-0.2-0.2-0.4-0.3L2.5-12.5L2.5-12.5z"/>
								<path class="st3" d="M120.3,46.9l20.3-41.7l48.3,51.1L120.3,46.9L120.3,46.9z M140.4,3.8C140.3,3.8,140.3,3.8,140.4,3.8
									c-0.2,0-0.3,0.1-0.4,0.3l-20.9,43c-0.1,0.1-0.1,0.3,0,0.5c0.1,0.1,0.2,0.2,0.4,0.3l70.6,9.7c0.2,0,0.4-0.1,0.5-0.3
									s0.1-0.4-0.1-0.6L140.7,4C140.6,3.9,140.5,3.8,140.4,3.8L140.4,3.8z M354.7,272h-0.1c-0.3,0.1-0.4,0.4-0.3,0.6l27,83.1
									c0.1,0.3,0.4,0.4,0.6,0.3c0.3-0.1,0.4-0.4,0.3-0.6l-27-83C355.1,272.1,354.9,272,354.7,272"/>
								<path class="st3" d="M382,354.9l-26.5-81.5l115.3,48.9L382,354.9z M354.7,272c-0.1,0-0.2,0-0.3,0.1
									c-0.1,0.1-0.2,0.3-0.1,0.5l27,83.1c0,0.1,0.1,0.2,0.3,0.3c0.1,0.1,0.3,0.1,0.4,0l90.4-33.2c0.2-0.1,0.3-0.3,0.3-0.5
									s-0.1-0.4-0.3-0.5L355,272C354.8,272,354.8,272,354.7,272L354.7,272z"/>
								<path class="st3" d="M355.5,271.2l25.6-107.3l100.2,5.5L355.5,271.2L355.5,271.2z M380.7,162.9c-0.2,0-0.4,0.2-0.4,0.4
									l-26,109.1c0,0.2,0,0.4,0.2,0.5s0.4,0.1,0.6,0l128-103.5c0.2-0.1,0.2-0.3,0.2-0.5c-0.1-0.2-0.2-0.3-0.4-0.3L380.7,162.9
									L380.7,162.9z"/>
								<path class="st3" d="M355.7,272.4l126.4-102.2l-10.4,151.4L355.7,272.4z M482.7,168.6c-0.1,0-0.2,0-0.3,0.1l-128,103.5
									c-0.1,0.1-0.2,0.3-0.2,0.5s0.1,0.3,0.3,0.4L472,322.8c0.1,0.1,0.3,0,0.5,0c0.1-0.1,0.2-0.2,0.2-0.4l10.5-153.3
									c0-0.2-0.1-0.4-0.3-0.5C482.8,168.6,482.7,168.6,482.7,168.6L482.7,168.6z M380.4,162.4L311,96l72.1,47.7L380.4,162.4z
									 M306.6,92.1c-0.1,0-0.3,0.1-0.4,0.2c-0.2,0.2-0.1,0.5,0,0.7l74.1,70.9c0.1,0.1,0.3,0.2,0.5,0.1c0.2-0.1,0.3-0.2,0.3-0.4
									l2.9-20c0-0.2-0.1-0.4-0.2-0.5l-77-50.9C306.8,92.1,306.7,92.1,306.6,92.1L306.6,92.1z"/>
								<path class="st3" d="M383.6,142.8l-75-49.5L426.8,106L383.6,142.8z M306.6,92.1c-0.2,0-0.4,0.1-0.4,0.3
									c-0.1,0.2,0,0.5,0.2,0.6l77,50.9c0.2,0.1,0.4,0.1,0.6,0l44.4-37.8c0.2-0.1,0.2-0.3,0.2-0.5c-0.1-0.2-0.2-0.3-0.4-0.3
									L306.6,92.1C306.7,92.1,306.7,92.1,306.6,92.1L306.6,92.1z"/>
								<path class="st3" d="M307.7,92.2L413.2-18.3l14.3,123.4L307.7,92.2z M413.5-19.9c-0.1,0-0.2,0.1-0.3,0.2l-106.9,112
									c-0.1,0.1-0.2,0.3-0.1,0.5s0.2,0.3,0.4,0.3l121.4,13c0.2,0,0.3,0,0.4-0.1s0.2-0.3,0.1-0.4L414-19.5c0-0.2-0.2-0.3-0.3-0.4
									C413.6-19.9,413.6-19.9,413.5-19.9L413.5-19.9z M190.3,56.5l-48.2-51l137.2,46L190.3,56.5L190.3,56.5z M140.4,3.8
									c-0.2,0-0.3,0.1-0.4,0.2c-0.1,0.2-0.1,0.4,0.1,0.6l49.8,52.6c0.1,0.1,0.2,0.2,0.4,0.2l91.8-5.2l0,0c0.2,0,0.4-0.2,0.5-0.4
									c0-0.2-0.1-0.5-0.3-0.5L140.5,3.9C140.5,3.8,140.4,3.8,140.4,3.8L140.4,3.8z"/>
								<path class="st3" d="M141.3,4.1l105-96.2l34.8,143L141.3,4.1L141.3,4.1z M246.6-93.5c-0.1,0-0.2,0-0.3,0.1L140.1,4
									c-0.1,0.1-0.2,0.3-0.1,0.5c0,0.2,0.2,0.3,0.3,0.4l141.5,47.4c0.2,0.1,0.4,0,0.5-0.1s0.2-0.3,0.1-0.5L247.1-93.1
									c0-0.2-0.2-0.3-0.3-0.4C246.7-93.5,246.7-93.5,246.6-93.5z"/>
								<path class="st3" d="M305.6,91.7L192.9,57.3l88.7-5L305.6,91.7L305.6,91.7z M190.1,56.5c-0.2,0-0.4,0.2-0.5,0.4
									c0,0.2,0.1,0.5,0.4,0.5L306.5,93c0.2,0.1,0.4,0,0.5-0.2s0.1-0.4,0-0.6l-24.8-40.8c-0.1-0.2-0.3-0.2-0.5-0.2L190.1,56.5
									L190.1,56.5L190.1,56.5z"/>
								<path class="st3" d="M282.2,51L247.4-92.1l165,72.7L282.2,51z M246.6-93.5c-0.1,0-0.2,0-0.3,0.1s-0.2,0.3-0.2,0.5
									l35.2,144.7c0,0.2,0.1,0.3,0.3,0.3c0.1,0.1,0.3,0.1,0.4,0L413.8-19c0.2-0.1,0.3-0.3,0.3-0.5s-0.1-0.4-0.3-0.4L246.9-93.4
									C246.8-93.5,246.7-93.5,246.6-93.5L246.6-93.5z"/>
								<path class="st3" d="M282.6,52L411-17.5L306.7,91.7L282.6,52L282.6,52z M413.5-19.9c-0.1,0-0.1,0-0.2,0.1L281.7,51.3
									c-0.1,0.1-0.2,0.2-0.2,0.3s0,0.3,0.1,0.4l24.8,40.8c0.1,0.1,0.2,0.2,0.4,0.2c0.2,0,0.3,0,0.4-0.1l106.9-112
									c0.2-0.2,0.2-0.4,0-0.6C413.8-19.9,413.7-19.9,413.5-19.9L413.5-19.9z M381.7,355.1c-0.2,0-0.3,0.1-0.4,0.2
									c-0.1,0.2-0.1,0.5,0.2,0.7l95.8,56c0.2,0.1,0.5,0.1,0.7-0.2c0.1-0.2,0.1-0.5-0.2-0.7l-95.7-56
									C381.9,355.1,381.8,355.1,381.7,355.1"/>
								<path class="st3" d="M382.9,355.7l88.8-32.7l5.2,87.6L382.9,355.7L382.9,355.7z M472.1,321.8H472L381.5,355
									c-0.2,0.1-0.3,0.2-0.3,0.4c0,0.2,0.1,0.4,0.2,0.5l95.8,56c0.2,0.1,0.4,0.1,0.5,0c0.2-0.1,0.2-0.3,0.2-0.5l-5.3-89.2
									c0-0.2-0.1-0.3-0.2-0.4C472.4,321.8,472.2,321.8,472.1,321.8L472.1,321.8z"/>
								<path class="st3" d="M477.9,410.7l-5.2-87.6l92.2,34.9L477.9,410.7L477.9,410.7z M472.1,321.8c-0.1,0-0.2,0-0.3,0.1
									c-0.1,0.1-0.2,0.3-0.2,0.4l5.3,89.2c0,0.2,0.1,0.3,0.3,0.4c0.2,0.1,0.3,0.1,0.5,0l88.6-53.7c0.2-0.1,0.3-0.3,0.2-0.5
									c0-0.2-0.1-0.3-0.3-0.4l-93.9-35.5C472.3,321.8,472.2,321.8,472.1,321.8L472.1,321.8z"/>
								<path class="st3" d="M496.3,555.1L478.4,415l54.3,126.2L496.3,555.1L496.3,555.1z M477.4,411
									C477.4,411,477.4,411.1,477.4,411c-0.3,0.1-0.5,0.3-0.5,0.6l18.4,144.2c0,0.2,0.1,0.3,0.2,0.4c0.1,0.1,0.3,0.1,0.4,0
									l37.5-14.3c0.1,0,0.2-0.1,0.3-0.3s0.1-0.3,0-0.4l-55.8-129.9C477.8,411.1,477.6,411,477.4,411L477.4,411z"/>
								<path class="st3" d="M478.1,411.7l87.3-52.9l-32.3,180.9L478.1,411.7z M566,357.3c-0.1,0-0.2,0-0.2,0.1l-88.6,53.7
									c-0.2,0.1-0.3,0.4-0.2,0.6l55.8,129.9c0.1,0.2,0.3,0.3,0.5,0.3s0.4-0.2,0.4-0.4l32.7-183.6c0-0.2,0-0.4-0.2-0.5
									C566.2,357.3,566.1,357.3,566,357.3z"/>
								<path class="st4" d="M484.7,168.9c0.1,1.1-0.8,2.1-1.9,2.2c-1.1,0.1-2.1-0.8-2.2-1.9c-0.1-1.1,0.8-2.1,1.9-2.2
									C483.7,166.9,484.7,167.8,484.7,168.9"/>
								<path class="st5" d="M392.4,142.8c0.3,4.8-3.3,9-8.2,9.3c-4.8,0.3-9-3.3-9.3-8.2c-0.3-4.8,3.4-9,8.2-9.3
									C387.9,134.3,392.1,138,392.4,142.8"/>
								<path class="st6" d="M390.1,162.8c0.3,5.1-3.6,9.6-8.7,9.9c-5.2,0.3-9.6-3.6-9.9-8.7c-0.3-5.1,3.6-9.6,8.7-9.9
									C385.3,153.8,389.7,157.7,390.1,162.8"/>
								<path class="st7" d="M145.7,4c0.2,2.9-2,5.5-5,5.7c-2.9,0.2-5.5-2-5.7-5c-0.2-2.9,2-5.5,5-5.7C143-1.2,145.5,1,145.7,4"/>
								<path class="st7" d="M141.1,4.3c0,0.4-0.3,0.8-0.7,0.8s-0.8-0.3-0.8-0.7c0-0.4,0.3-0.8,0.7-0.8
									C140.7,3.6,141.1,3.9,141.1,4.3"/>
								<path class="st4" d="M145,4c0.2,2.6-1.8,4.8-4.3,4.9c-2.6,0.2-4.8-1.8-4.9-4.3c-0.2-2.6,1.8-4.8,4.3-4.9
									C142.6-0.5,144.8,1.5,145,4"/>
								<path class="st7" d="M487.1,168.8c0.2,2.4-1.7,4.5-4.1,4.7s-4.5-1.7-4.7-4.1c-0.2-2.4,1.7-4.5,4.1-4.7
									S486.9,166.3,487.1,168.8 M193.8,56.7c0.1,2-1.4,3.8-3.4,3.9c-2,0.1-3.8-1.4-3.9-3.4c-0.1-2,1.4-3.8,3.4-3.9
									C191.9,53.2,193.7,54.7,193.8,56.7"/>
								<path class="st8" d="M460.6,111.8c0.2,2.6-1.8,4.9-4.5,5.1c-2.6,0.2-4.9-1.8-5.1-4.5c-0.2-2.6,1.8-4.9,4.5-5.1
									C458.2,107.2,460.4,109.2,460.6,111.8"/>
								<path class="st9" d="M433.7,105.3c0.2,3.1-2.2,5.8-5.3,6c-3.1,0.2-5.8-2.2-6.1-5.3c-0.2-3.1,2.2-5.8,5.3-6.1
									C430.8,99.8,433.5,102.1,433.7,105.3"/>
								<path class="st6" d="M492.2,168.4c0.3,5.2-3.6,9.8-8.9,10.1c-5.2,0.3-9.8-3.6-10.1-8.9c-0.3-5.2,3.6-9.8,8.9-10.1
									C487.3,159.2,491.8,163.2,492.2,168.4"/>
								<path class="st10" d="M436.4,105.1c0.3,4.6-3.2,8.6-7.8,8.9c-4.6,0.3-8.6-3.2-8.9-7.8c-0.3-4.6,3.2-8.6,7.8-8.9
									C432.1,97,436.1,100.5,436.4,105.1"/>
								<path class="st9" d="M473.9,322.2c0.1,1-0.7,1.8-1.7,1.9s-1.8-0.7-1.9-1.7s0.7-1.8,1.7-1.9
									C473,320.5,473.9,321.2,473.9,322.2"/>
								<path class="st9" d="M476.5,322c0.2,2.4-1.7,4.5-4.1,4.7s-4.5-1.7-4.7-4.1s1.7-4.5,4.1-4.7
									C474.3,317.8,476.4,319.6,476.5,322"/>
								<path class="st4" d="M125.5,46.9c0.2,3.3-2.3,6.2-5.6,6.4c-3.3,0.2-6.2-2.3-6.4-5.6c-0.2-3.3,2.3-6.2,5.6-6.4
									C122.4,41.1,125.3,43.6,125.5,46.9"/>
								<path class="st7" d="M122.1,47.1c0.1,1.4-1,2.6-2.4,2.7c-1.4,0.1-2.6-1-2.7-2.4s1-2.6,2.4-2.7
									C120.8,44.7,122,45.7,122.1,47.1"/>
								<path class="st7" d="M126.1,46.9c0.2,3.6-2.5,6.8-6.1,7s-6.8-2.5-7-6.1s2.5-6.8,6.1-7C122.7,40.5,125.9,43.2,126.1,46.9
									 M145.1,4c0.2,2.6-1.8,4.9-4.4,5c-2.6,0.2-4.9-1.8-5-4.4c-0.2-2.6,1.8-4.9,4.4-5C142.7-0.6,144.9,1.4,145.1,4"/>
								<path class="st10" d="M126.4,46.8c0.3,3.8-2.6,7.1-6.4,7.3s-7.1-2.6-7.3-6.4c-0.3-3.8,2.6-7.1,6.4-7.3
									C122.9,40.2,126.1,43,126.4,46.8"/>
								<path class="st11" d="M196.6,56.5c0.2,3.5-2.5,6.6-6,6.8c-3.6,0.2-6.6-2.5-6.8-6s2.5-6.6,6-6.8S196.3,53,196.6,56.5"/>
								<path class="st7" d="M142.7,4.2c0.1,1.3-0.9,2.3-2.1,2.4c-1.3,0.1-2.3-0.9-2.4-2.1c-0.1-1.3,0.9-2.3,2.1-2.4
									C141.5,2,142.6,2.9,142.7,4.2"/>
								<path class="st12" d="M363.2,272c0.3,4.7-3.3,8.7-8,9.1c-4.7,0.3-8.8-3.2-9.1-7.9c-0.3-4.7,3.3-8.7,8-9.1
									C358.9,263.7,362.9,267.3,363.2,272"/>
								<path class="st13" d="M363.8,271.9c0.3,5-3.5,9.3-8.5,9.6c-5,0.3-9.3-3.5-9.6-8.4c-0.3-5,3.5-9.3,8.5-9.6
									C359.1,263.2,363.4,266.9,363.8,271.9"/>
								<path class="st4" d="M474.1,322.2c0.1,1-0.7,1.9-1.8,2c-1,0.1-1.9-0.7-2-1.8c-0.1-1,0.7-1.9,1.8-2
									C473.1,320.4,474,321.2,474.1,322.2"/>
								<path class="st7" d="M384.1,355.4c0.1,1.3-0.9,2.4-2.2,2.5c-1.3,0.1-2.4-0.9-2.5-2.2c-0.1-1.3,0.9-2.4,2.2-2.5
									C382.9,353.1,384,354.1,384.1,355.4"/>
								<path class="st14" d="M477.5,322c0.2,2.9-2,5.5-5,5.7c-2.9,0.2-5.5-2-5.7-5c-0.2-2.9,2-5.5,5-5.7S477.3,319,477.5,322"/>
								<path class="st6" d="M317,91.9c0.4,5.7-4,10.6-9.7,11s-10.7-4-11-9.7c-0.4-5.7,4-10.6,9.7-11S316.6,86.2,317,91.9"/>
								<path class="st7" d="M286.4,51.5c0.2,2.5-1.7,4.7-4.2,4.8c-2.5,0.2-4.7-1.7-4.8-4.2c-0.2-2.5,1.7-4.7,4.2-4.8
									C284.1,47.1,286.3,49,286.4,51.5"/>
								<path class="st8" d="M145,4c0.2,2.5-1.8,4.7-4.3,4.9s-4.7-1.8-4.9-4.3s1.8-4.7,4.3-4.9C142.6-0.5,144.8,1.5,145,4"/>
								<path class="st12" d="M285.6,51.5c0.1,2-1.4,3.8-3.4,3.9c-2,0.1-3.8-1.4-3.9-3.4s1.4-3.8,3.4-3.9
									C283.7,48,285.4,49.5,285.6,51.5"/>
								<path class="st15" d="M287,51.4c0.2,2.8-2,5.3-4.8,5.5s-5.3-2-5.5-4.8s2-5.3,4.8-5.5C284.4,46.5,286.8,48.6,287,51.4"/>
								<path class="st9" d="M483.7,411.1c0.2,3.4-2.4,6.4-5.8,6.6s-6.4-2.4-6.6-5.8s2.4-6.4,5.8-6.6S483.5,407.7,483.7,411.1"/>
								<path class="st9" d="M479,411.4c0.1,0.8-0.6,1.6-1.4,1.6c-0.8,0.1-1.6-0.6-1.6-1.4c-0.1-0.8,0.6-1.6,1.4-1.6
									C478.2,410,478.9,410.6,479,411.4"/>
								<path class="st4" d="M382.8,355.5c0,0.6-0.4,1.1-1,1.1s-1.1-0.4-1.1-1s0.4-1.1,1-1.1C382.2,354.5,382.7,354.9,382.8,355.5"
									/>
								<path class="st7" d="M480,411.4c0.1,1.4-1,2.6-2.4,2.7s-2.6-1-2.7-2.4s1-2.6,2.4-2.7C478.7,408.9,479.9,410,480,411.4"/>
								<path class="st6" d="M487.9,410.9c0.4,5.8-4,10.8-9.8,11.1c-5.8,0.4-10.8-4-11.1-9.8c-0.4-5.8,4-10.8,9.8-11.1
									C482.6,400.7,487.6,405.1,487.9,410.9"/>
								<path class="st16" d="M385.1,355.3c0.1,1.9-1.3,3.5-3.1,3.6c-1.9,0.1-3.5-1.3-3.6-3.1c-0.1-1.9,1.3-3.5,3.1-3.6
									C383.4,352.1,385,353.5,385.1,355.3"/>
							</g>
						</g>
					</g>
				</g>
			</g>
		</g>
	</g>
</g>
</svg>
