<?xml version="1.0" encoding="UTF-8" standalone="no"?>
<svg
   xmlns:dc="http://purl.org/dc/elements/1.1/"
   xmlns:cc="http://creativecommons.org/ns#"
   xmlns:rdf="http://www.w3.org/1999/02/22-rdf-syntax-ns#"
   xmlns:svg="http://www.w3.org/2000/svg"
   xmlns="http://www.w3.org/2000/svg"
   xmlns:xlink="http://www.w3.org/1999/xlink"
   xmlns:sodipodi="http://sodipodi.sourceforge.net/DTD/sodipodi-0.dtd"
   xmlns:inkscape="http://www.inkscape.org/namespaces/inkscape"
   width="487.94778"
   height="472"
   viewBox="0 0 487.94778 472"
   version="1.1"
   id="svg136"
   sodipodi:docname="dots3-right-up.svg"
   inkscape:version="1.0.2 (1.0.2+r75+1)">
  <metadata
     id="metadata140">
    <rdf:RDF>
      <cc:Work
         rdf:about="">
        <dc:format>image/svg+xml</dc:format>
        <dc:type
           rdf:resource="http://purl.org/dc/dcmitype/StillImage" />
      </cc:Work>
    </rdf:RDF>
  </metadata>
  <sodipodi:namedview
     pagecolor="#ffffff"
     bordercolor="#666666"
     borderopacity="1"
     objecttolerance="10"
     gridtolerance="10"
     guidetolerance="10"
     inkscape:pageopacity="0"
     inkscape:pageshadow="2"
     inkscape:window-width="1866"
     inkscape:window-height="1016"
     id="namedview138"
     showgrid="false"
     inkscape:zoom="1.8262712"
     inkscape:cx="242.94777"
     inkscape:cy="192.1949"
     inkscape:window-x="54"
     inkscape:window-y="27"
     inkscape:window-maximized="1"
     inkscape:current-layer="svg136" />
  <defs
     id="defs3">
    <path
       id="yql74udw5a"
       d="M 0,0 H 490 V 472 H 0 Z" />
  </defs>
  <g
     fill="none"
     fill-rule="evenodd"
     id="g134"
     transform="translate(-2.0522301)">
    <g
       id="g132">
      <g
         transform="matrix(1,0,0,-1,0,472)"
         id="g130">
        <mask
           id="tbtyukmt2b"
           fill="#ffffff">
          <use
             xlink:href="#yql74udw5a"
             id="use5"
             x="0"
             y="0"
             width="100%"
             height="100%" />
        </mask>
        <g
           mask="url(#tbtyukmt2b)"
           opacity="0.5"
           id="g128">
          <g
             id="g126">
            <path
               fill="#c4c4c4"
               d="m 419.372,431.097 2.745,18.922 93.676,-24.257 z m 2.302,20.032 c -0.083,-0.007 -0.166,-0.033 -0.243,-0.083 -0.116,-0.077 -0.193,-0.203 -0.213,-0.34 l -2.904,-20.004 c -0.02,-0.137 0.02,-0.276 0.106,-0.383 0.087,-0.106 0.217,-0.176 0.353,-0.183 l 101.938,-5.637 c 0.276,-0.02 0.476,0.166 0.516,0.418 0.04,0.25 -0.12,0.492 -0.366,0.556 l -99.03,25.64 c -0.05,0.016 -0.104,0.02 -0.157,0.016 z M 41.901,606.44 l 51.02,35.377 83.347,-51.333 -134.367,15.957 z m 50.974,36.464 c -0.09,-0.006 -0.173,-0.036 -0.25,-0.093 l -52.36,-36.304 c -0.167,-0.116 -0.247,-0.326 -0.197,-0.528 0.05,-0.197 0.216,-0.343 0.423,-0.37 l 137.893,-16.371 c 0.246,-0.027 0.453,0.11 0.526,0.329 0.076,0.22 -0.014,0.462 -0.206,0.585 l -85.536,52.676 c -0.09,0.056 -0.193,0.083 -0.293,0.076 z"
               transform="translate(-38,-122)"
               id="path8" />
            <path
               fill="#c4c4c4"
               d="m 93.797,642.442 45.135,32.74 38.384,-84.179 -83.519,51.44 z m 45.301,33.99 c -0.093,-0.006 -0.18,-0.04 -0.259,-0.096 L 92.616,642.808 c -0.133,-0.096 -0.21,-0.256 -0.203,-0.419 0.007,-0.163 0.093,-0.312 0.236,-0.402 l 85.532,-52.68 c 0.183,-0.112 0.42,-0.096 0.59,0.05 0.162,0.144 0.212,0.38 0.12,0.58 l -39.31,86.207 c -0.06,0.136 -0.18,0.232 -0.323,0.272 -0.053,0.017 -0.106,0.02 -0.16,0.017 z"
               transform="translate(-38,-122)"
               id="path10" />
            <path
               fill="#c4c4c4"
               d="m 139.876,675.497 143.436,10.916 -104.703,-95.86 z m 144.797,12.01 h -0.004 L 139.094,676.431 c -0.16,-0.014 -0.306,-0.103 -0.39,-0.243 -0.08,-0.14 -0.09,-0.31 -0.023,-0.459 l 39.31,-86.204 c 0.066,-0.143 0.2,-0.25 0.352,-0.279 0.15,-0.037 0.313,0.013 0.433,0.12 l 106.263,97.283 c 0.156,0.143 0.203,0.373 0.12,0.562 -0.08,0.193 -0.277,0.313 -0.486,0.296 z M 521.702,424.901 683.989,501.608 610.072,360.631 Z m 163.378,78.277 c -0.06,-0.004 -0.12,-0.017 -0.176,-0.044 L 520.524,425.44 c -0.153,-0.073 -0.263,-0.226 -0.28,-0.399 -0.016,-0.176 0.06,-0.346 0.2,-0.449 l 89.505,-65.102 c 0.12,-0.083 0.266,-0.116 0.406,-0.083 0.14,0.037 0.262,0.127 0.326,0.256 l 74.875,142.796 c 0.097,0.186 0.067,0.42 -0.083,0.569 -0.106,0.11 -0.25,0.16 -0.393,0.15 z m -260.53,-50.77 41.659,35.456 26.087,-6.11 -67.745,-29.346 z m 41.496,36.49 c -0.107,-0.007 -0.21,-0.05 -0.29,-0.12 l -44.37,-37.767 c -0.189,-0.156 -0.232,-0.428 -0.1,-0.638 0.134,-0.206 0.4,-0.286 0.616,-0.19 l 72.164,31.255 c 0.193,0.083 0.313,0.286 0.293,0.499 -0.016,0.216 -0.17,0.389 -0.38,0.439 l -27.787,6.508 c -0.05,0.01 -0.1,0.017 -0.146,0.014 z"
               transform="translate(-38,-122)"
               id="path12" />
            <path
               fill="#c4c4c4"
               d="m 423.225,450.753 70.398,30.494 26.214,-55.512 z m 70.61,31.634 c -0.056,-0.004 -0.113,-0.017 -0.163,-0.04 l -72.163,-31.258 c -0.193,-0.083 -0.31,-0.282 -0.293,-0.492 0.01,-0.21 0.16,-0.389 0.369,-0.442 l 99.027,-25.643 c 0.183,-0.05 0.386,0.016 0.509,0.163 0.12,0.15 0.146,0.355 0.063,0.528 l -26.87,56.901 c -0.086,0.186 -0.282,0.296 -0.478,0.283 z"
               transform="translate(-38,-122)"
               id="path14" />
            <path
               fill="#c4c4c4"
               d="m 466.529,488.807 -13.864,119.719 40.464,-125.952 z m -14.968,125.172 c -0.027,-0.005 -0.05,-0.008 -0.074,-0.015 -0.25,-0.05 -0.416,-0.286 -0.389,-0.538 l 14.486,-125.081 c 0.027,-0.206 0.176,-0.376 0.38,-0.426 l 27.79,-6.509 c 0.177,-0.03 0.36,0.017 0.476,0.147 0.12,0.13 0.163,0.319 0.107,0.488 l -42.277,131.59 c -0.067,0.216 -0.277,0.356 -0.5,0.344 z"
               transform="translate(-38,-122)"
               id="path16" />
            <path
               fill="#c4c4c4"
               d="m 494.61,481.477 187.634,20.4 -161.27,-76.228 -26.363,55.828 z m 190.472,21.7 h -0.02 L 493.816,482.384 c -0.16,-0.016 -0.303,-0.11 -0.383,-0.252 -0.077,-0.137 -0.083,-0.306 -0.013,-0.45 l 26.869,-56.9 c 0.057,-0.12 0.16,-0.213 0.283,-0.256 0.126,-0.043 0.26,-0.037 0.376,0.02 l 164.377,77.69 c 0.223,0.104 0.332,0.353 0.266,0.582 -0.063,0.226 -0.276,0.376 -0.51,0.36 z"
               transform="translate(-38,-122)"
               id="path18" />
            <path
               fill="#c4c4c4"
               d="m 510.8,272.899 10.368,151.166 88.284,-64.21 -98.651,-86.956 z m 9.906,152.586 c -0.06,-0.004 -0.124,-0.017 -0.177,-0.044 -0.166,-0.076 -0.273,-0.236 -0.286,-0.415 L 509.73,271.766 c -0.014,-0.2 0.096,-0.39 0.276,-0.48 0.18,-0.09 0.396,-0.06 0.545,0.074 l 100.018,88.158 c 0.114,0.1 0.177,0.246 0.167,0.396 -0.007,0.15 -0.08,0.29 -0.2,0.379 l -89.508,65.102 c -0.093,0.066 -0.21,0.096 -0.322,0.09 z"
               transform="translate(-38,-122)"
               id="path20" />
            <path
               fill="#c4c4c4"
               d="m 511.168,271.902 98.521,86.843 -6.038,-121.8 z m 99.044,88.481 c -0.11,-0.006 -0.213,-0.046 -0.297,-0.12 L 509.894,272.102 c -0.13,-0.117 -0.186,-0.29 -0.156,-0.46 0.03,-0.172 0.146,-0.312 0.312,-0.375 l 93.887,-35.49 c 0.146,-0.052 0.312,-0.036 0.445,0.047 0.134,0.087 0.213,0.233 0.223,0.393 l 6.133,123.648 c 0.01,0.2 -0.104,0.385 -0.28,0.472 -0.08,0.036 -0.167,0.053 -0.246,0.046 z M 494.12,482.72 452.302,612.897 631.807,590.492 Z m -42.56,131.258 c -0.136,-0.01 -0.262,-0.07 -0.349,-0.177 -0.11,-0.13 -0.143,-0.305 -0.09,-0.468 l 42.274,-131.59 c 0.05,-0.156 0.173,-0.276 0.326,-0.323 0.156,-0.043 0.326,-0.016 0.453,0.084 L 633.35,590.445 c 0.16,0.123 0.226,0.333 0.173,0.522 -0.053,0.193 -0.216,0.336 -0.419,0.36 L 451.65,613.973 c -0.026,0.004 -0.06,0.004 -0.09,0.004 z"
               transform="translate(-38,-122)"
               id="path22" />
            <path
               fill="#c4c4c4"
               d="m 453.146,613.787 101.405,56.921 77.155,-79.206 z m 101.462,58.035 c -0.07,-0.007 -0.143,-0.027 -0.21,-0.067 L 451.35,613.914 c -0.186,-0.104 -0.286,-0.316 -0.243,-0.526 0.037,-0.21 0.21,-0.369 0.426,-0.392 l 181.455,-22.651 c 0.213,-0.037 0.41,0.086 0.502,0.269 0.093,0.19 0.06,0.415 -0.086,0.565 l -78.406,80.493 c -0.103,0.106 -0.246,0.156 -0.389,0.15 z"
               transform="translate(-38,-122)"
               id="path24" />
            <path
               fill="#c4c4c4"
               d="m 495.537,482.574 137.37,107.526 51.39,-87.006 z M 633.014,591.33 c -0.1,-0.007 -0.193,-0.044 -0.273,-0.103 L 493.561,482.28 c -0.174,-0.136 -0.237,-0.369 -0.154,-0.575 0.087,-0.206 0.286,-0.302 0.516,-0.305 l 191.246,20.79 c 0.167,0.02 0.313,0.122 0.39,0.272 0.076,0.15 0.07,0.329 -0.02,0.472 l -52.066,88.152 c -0.07,0.123 -0.196,0.21 -0.336,0.236 -0.04,0.007 -0.083,0.01 -0.123,0.007 z M 157.341,547.426 43.256,605.28 177.693,589.32 157.341,547.425 Z M 40.515,606.594 c -0.203,-0.013 -0.383,-0.15 -0.443,-0.35 -0.066,-0.229 0.037,-0.475 0.253,-0.58 l 117.02,-59.348 c 0.113,-0.064 0.252,-0.07 0.382,-0.027 0.123,0.04 0.23,0.133 0.286,0.25 l 20.874,42.972 c 0.07,0.146 0.067,0.315 -0.013,0.455 -0.073,0.143 -0.213,0.236 -0.373,0.256 L 40.608,606.594 c -0.033,0.003 -0.063,0.003 -0.093,0 z"
               transform="translate(-38,-122)"
               id="path26" />
            <path
               fill="#c4c4c4"
               d="m 158.31,547.153 20.263,41.716 48.292,-51.093 -68.554,9.377 z m 20.1,43.069 c -0.014,0 -0.03,0 -0.044,-0.003 -0.163,-0.027 -0.302,-0.127 -0.372,-0.273 L 157.12,546.974 c -0.067,-0.147 -0.063,-0.31 0.013,-0.45 0.073,-0.142 0.21,-0.235 0.366,-0.258 l 70.624,-9.664 c 0.216,-0.013 0.412,0.083 0.509,0.263 0.093,0.19 0.06,0.415 -0.083,0.568 l -49.75,52.636 c -0.1,0.106 -0.243,0.163 -0.39,0.153 z M 392.742,322.03 c -0.04,-0.003 -0.08,-0.01 -0.12,-0.023 -0.259,-0.086 -0.402,-0.362 -0.319,-0.622 l 27,-83.052 c 0.086,-0.26 0.375,-0.393 0.625,-0.316 0.26,0.083 0.402,0.362 0.32,0.622 l -27.003,83.049 c -0.07,0.223 -0.283,0.356 -0.503,0.342"
               transform="translate(-38,-122)"
               id="path28" />
            <path
               fill="#c4c4c4"
               d="m 420.09,239.129 -26.51,81.527 115.3,-48.893 z m -27.349,82.9 c -0.11,-0.004 -0.216,-0.05 -0.302,-0.127 -0.143,-0.133 -0.193,-0.335 -0.137,-0.518 l 27.003,-83.05 c 0.04,-0.13 0.133,-0.232 0.253,-0.292 0.123,-0.06 0.266,-0.07 0.389,-0.02 l 90.45,33.242 c 0.189,0.07 0.319,0.253 0.322,0.456 0.003,0.202 -0.113,0.385 -0.303,0.465 l -117.445,49.807 c -0.077,0.03 -0.153,0.043 -0.23,0.037 z"
               transform="translate(-38,-122)"
               id="path30" />
            <path
               fill="#c4c4c4"
               d="m 393.593,322.835 25.596,107.28 100.237,-5.545 z m 25.176,108.29 c -0.213,-0.013 -0.396,-0.165 -0.445,-0.382 L 392.293,321.652 c -0.047,-0.206 0.04,-0.422 0.22,-0.535 0.179,-0.113 0.405,-0.1 0.575,0.036 L 521.05,424.607 c 0.156,0.13 0.223,0.342 0.156,0.538 -0.06,0.193 -0.236,0.33 -0.439,0.34 l -101.934,5.64 z"
               transform="translate(-38,-122)"
               id="path32" />
            <path
               fill="#c4c4c4"
               d="M 393.727,321.67 520.165,423.894 509.778,272.458 Z m 126.977,103.816 c -0.1,-0.007 -0.2,-0.043 -0.28,-0.11 L 392.464,321.923 c -0.133,-0.113 -0.2,-0.283 -0.18,-0.456 0.023,-0.173 0.14,-0.319 0.3,-0.385 l 117.448,-49.807 c 0.15,-0.064 0.32,-0.05 0.452,0.036 0.137,0.08 0.223,0.226 0.237,0.386 l 10.511,153.26 c 0.012,0.196 -0.09,0.383 -0.264,0.472 -0.083,0.047 -0.173,0.06 -0.263,0.057 z m -102.252,6.166 -69.422,66.399 72.14,-47.657 z m -73.774,70.335 c -0.136,-0.007 -0.266,-0.07 -0.353,-0.183 -0.16,-0.2 -0.143,-0.489 0.04,-0.668 l 74.094,-70.863 c 0.136,-0.127 0.33,-0.173 0.502,-0.11 0.18,0.06 0.306,0.216 0.333,0.399 l 2.901,20.002 c 0.03,0.193 -0.056,0.379 -0.213,0.485 l -76.998,50.861 c -0.093,0.06 -0.203,0.086 -0.306,0.077 z"
               transform="translate(-38,-122)"
               id="path34" />
            <path
               fill="#c4c4c4"
               d="m 421.669,451.253 -74.985,49.531 118.193,-12.751 z m -76.992,50.735 c -0.193,-0.01 -0.366,-0.136 -0.432,-0.326 -0.08,-0.213 0,-0.455 0.193,-0.582 l 76.995,-50.857 c 0.186,-0.123 0.432,-0.107 0.595,0.036 l 44.367,37.77 c 0.153,0.127 0.213,0.33 0.153,0.519 -0.057,0.19 -0.22,0.326 -0.42,0.346 l -121.364,13.094 c -0.03,0.003 -0.06,0.003 -0.087,0 z"
               transform="translate(-38,-122)"
               id="path36" />
            <path
               fill="#c4c4c4"
               d="m 345.76,501.88 105.462,110.497 14.29,-123.419 z m 105.801,112.1 c -0.123,-0.01 -0.24,-0.063 -0.326,-0.157 L 344.353,501.833 c -0.133,-0.136 -0.173,-0.332 -0.11,-0.508 0.067,-0.18 0.227,-0.303 0.413,-0.323 l 121.365,-13.09 c 0.156,-0.02 0.3,0.04 0.409,0.142 0.106,0.107 0.156,0.256 0.14,0.406 l -14.486,125.08 c -0.024,0.19 -0.153,0.35 -0.336,0.413 -0.06,0.023 -0.127,0.03 -0.187,0.027 z m -223.171,-76.381 -48.229,51.034 137.185,-46.001 -88.955,-5.033 z m -49.979,52.623 c -0.156,-0.01 -0.299,-0.09 -0.389,-0.223 -0.123,-0.196 -0.096,-0.445 0.06,-0.608 l 49.75,-52.636 c 0.096,-0.107 0.24,-0.163 0.386,-0.157 l 91.753,5.193 h 0.004 c 0.24,0.017 0.429,0.193 0.459,0.429 0.033,0.232 -0.107,0.455 -0.333,0.535 l -141.503,47.443 c -0.06,0.02 -0.127,0.03 -0.187,0.024 z"
               transform="translate(-38,-122)"
               id="path38" />
            <path
               fill="#c4c4c4"
               d="m 179.395,589.93 105.028,96.157 34.828,-143.046 z m 105.281,97.58 c -0.113,-0.007 -0.22,-0.05 -0.303,-0.13 L 178.107,590.096 c -0.13,-0.12 -0.183,-0.3 -0.15,-0.472 0.037,-0.17 0.16,-0.31 0.326,-0.362 l 141.504,-47.447 c 0.17,-0.057 0.362,-0.017 0.495,0.106 0.13,0.12 0.187,0.303 0.143,0.479 l -35.237,144.73 c -0.043,0.17 -0.173,0.31 -0.339,0.36 -0.056,0.02 -0.12,0.023 -0.173,0.02 z"
               transform="translate(-38,-122)"
               id="path40" />
            <path
               fill="#c4c4c4"
               d="m 343.613,502.348 -112.624,34.412 88.69,5.013 z m -115.452,35.24 c -0.24,-0.014 -0.433,-0.2 -0.463,-0.436 -0.026,-0.24 0.117,-0.462 0.35,-0.528 l 116.517,-35.6 c 0.202,-0.073 0.409,0.007 0.535,0.167 0.127,0.16 0.14,0.385 0.033,0.558 l -24.763,40.792 c -0.1,0.156 -0.27,0.246 -0.452,0.236 l -91.754,-5.19 h -0.003 z"
               transform="translate(-38,-122)"
               id="path42" />
            <path
               fill="#c4c4c4"
               d="m 320.275,543.024 -34.851,143.135 165.045,-72.721 z m -35.6,144.484 c -0.103,-0.006 -0.206,-0.046 -0.286,-0.113 -0.146,-0.12 -0.21,-0.312 -0.163,-0.498 l 35.237,-144.73 c 0.04,-0.15 0.14,-0.273 0.28,-0.333 0.14,-0.063 0.302,-0.057 0.439,0.013 l 131.645,71.199 c 0.166,0.093 0.27,0.272 0.26,0.458 -0.01,0.19 -0.124,0.36 -0.297,0.432 L 284.905,687.47 c -0.074,0.033 -0.157,0.046 -0.23,0.04 z"
               transform="translate(-38,-122)"
               id="path44" />
            <path
               fill="#c4c4c4"
               d="m 320.639,542.099 128.43,69.46 L 344.8,502.304 320.64,542.1 Z m 130.923,71.88 c -0.073,-0.007 -0.14,-0.027 -0.206,-0.06 L 319.71,542.72 c -0.12,-0.066 -0.21,-0.176 -0.246,-0.305 -0.033,-0.13 -0.01,-0.27 0.057,-0.386 l 24.763,-40.792 c 0.083,-0.13 0.22,-0.216 0.373,-0.232 0.153,-0.024 0.306,0.036 0.412,0.15 l 106.882,111.99 c 0.17,0.175 0.18,0.448 0.037,0.638 -0.107,0.136 -0.27,0.206 -0.426,0.197 z M 419.742,238.98 c -0.156,-0.01 -0.31,-0.097 -0.392,-0.243 -0.14,-0.236 -0.064,-0.539 0.176,-0.678 l 95.753,-55.974 c 0.23,-0.14 0.539,-0.063 0.675,0.177 0.137,0.236 0.06,0.538 -0.18,0.678 l -95.749,55.973 c -0.087,0.053 -0.186,0.073 -0.283,0.067"
               transform="translate(-38,-122)"
               id="path46" />
            <path
               fill="#c4c4c4"
               d="m 420.931,238.384 88.84,32.654 5.21,-87.634 z m 89.262,33.84 c -0.05,-0.003 -0.093,-0.013 -0.14,-0.03 l -90.45,-33.242 c -0.179,-0.07 -0.302,-0.229 -0.322,-0.422 -0.017,-0.193 0.08,-0.375 0.243,-0.472 l 95.753,-55.973 c 0.156,-0.093 0.352,-0.093 0.509,0.006 0.156,0.097 0.246,0.266 0.237,0.45 l -5.304,89.218 c -0.01,0.156 -0.09,0.3 -0.223,0.386 -0.09,0.06 -0.2,0.086 -0.303,0.08 z"
               transform="translate(-38,-122)"
               id="path48" />
            <path
               fill="#c4c4c4"
               d="m 515.97,183.36 -5.203,87.637 92.216,-34.86 -87.013,-52.776 z m -5.776,88.865 c -0.096,-0.008 -0.186,-0.04 -0.262,-0.094 -0.134,-0.1 -0.21,-0.263 -0.204,-0.429 l 5.304,-89.22 c 0.01,-0.172 0.11,-0.328 0.266,-0.408 0.15,-0.08 0.336,-0.073 0.482,0.013 l 88.587,53.73 c 0.163,0.1 0.256,0.28 0.236,0.469 -0.017,0.19 -0.14,0.349 -0.316,0.415 l -93.89,35.493 c -0.063,0.023 -0.136,0.033 -0.203,0.03 z"
               transform="translate(-38,-122)"
               id="path50" />
            <path
               fill="#c4c4c4"
               d="M 534.305,38.954 516.462,179.081 570.713,52.876 Z m -18.811,144.05 c -0.034,0 -0.067,-0.007 -0.1,-0.014 -0.236,-0.067 -0.39,-0.296 -0.36,-0.542 l 18.37,-144.245 c 0.016,-0.15 0.106,-0.283 0.235,-0.363 0.13,-0.076 0.287,-0.086 0.433,-0.036 l 37.48,14.33 c 0.122,0.047 0.226,0.147 0.279,0.27 0.053,0.123 0.053,0.266 -0.003,0.389 l -55.849,129.914 c -0.08,0.196 -0.279,0.31 -0.485,0.297 z"
               transform="translate(-38,-122)"
               id="path52" />
            <path
               fill="#c4c4c4"
               d="M 516.152,182.312 603.428,235.25 571.175,54.312 Z m 87.928,54.425 c -0.08,-0.008 -0.157,-0.034 -0.227,-0.074 l -88.583,-53.73 c -0.21,-0.126 -0.296,-0.389 -0.196,-0.618 L 570.92,52.401 c 0.083,-0.2 0.25,-0.336 0.512,-0.296 0.22,0.026 0.39,0.193 0.43,0.405 L 604.6,236.154 c 0.033,0.19 -0.05,0.383 -0.21,0.492 -0.093,0.067 -0.203,0.097 -0.31,0.091 z"
               transform="translate(-38,-122)"
               id="path54" />
            <path
               fill="#ff2e5f"
               d="m 522.79,425.127 c 0.073,-1.133 -0.782,-2.11 -1.916,-2.187 -1.135,-0.073 -2.116,0.788 -2.19,1.918 -0.073,1.133 0.786,2.114 1.92,2.187 1.135,0.073 2.116,-0.784 2.186,-1.918"
               transform="translate(-38,-122)"
               id="path56" />
            <path
               fill="#0097e5"
               d="m 430.464,451.206 c 0.32,-4.833 -3.347,-9.005 -8.185,-9.32 -4.837,-0.316 -9.016,3.347 -9.332,8.18 -0.313,4.83 3.35,9.006 8.188,9.321 4.837,0.316 9.013,-3.347 9.329,-8.18"
               transform="translate(-38,-122)"
               id="path58" />
            <path
               fill="#aec935"
               d="m 428.134,431.24 c 0.34,-5.15 -3.566,-9.597 -8.72,-9.933 -5.157,-0.336 -9.605,3.567 -9.941,8.716 -0.336,5.15 3.57,9.597 8.723,9.933 5.154,0.336 9.602,-3.567 9.938,-8.716"
               transform="translate(-38,-122)"
               id="path60" />
            <path
               fill="#009468"
               d="m 183.758,590.076 c 0.19,-2.935 -2.033,-5.468 -4.967,-5.658 -2.938,-0.193 -5.473,2.031 -5.663,4.963 -0.193,2.936 2.033,5.469 4.967,5.658 2.935,0.193 5.47,-2.03 5.663,-4.963"
               transform="translate(-38,-122)"
               id="path62" />
            <path
               fill="#009468"
               d="m 179.18,589.777 c 0.027,-0.409 -0.283,-0.761 -0.689,-0.784 -0.409,-0.027 -0.762,0.282 -0.785,0.688 -0.027,0.409 0.283,0.758 0.689,0.784 0.406,0.027 0.758,-0.282 0.785,-0.688"
               transform="translate(-38,-122)"
               id="path64" />
            <path
               fill="#ff2e5f"
               d="m 183.066,590.03 c 0.166,-2.552 -1.767,-4.756 -4.322,-4.92 -2.552,-0.166 -4.758,1.766 -4.924,4.316 -0.166,2.553 1.767,4.757 4.322,4.923 2.552,0.166 4.754,-1.765 4.924,-4.318"
               transform="translate(-38,-122)"
               id="path66" />
            <path
               fill="#009468"
               d="m 525.133,425.28 c 0.16,-2.427 -1.68,-4.521 -4.106,-4.68 -2.432,-0.157 -4.528,1.681 -4.688,4.108 -0.153,2.423 1.684,4.518 4.112,4.677 2.426,0.156 4.525,-1.682 4.682,-4.105 M 231.857,537.333 c 0.133,-2.024 -1.404,-3.773 -3.427,-3.906 -2.03,-0.133 -3.776,1.403 -3.909,3.427 -0.133,2.025 1.404,3.773 3.427,3.903 2.03,0.133 3.78,-1.4 3.91,-3.424"
               transform="translate(-38,-122)"
               id="path68" />
            <path
               fill="#a6cc00"
               d="m 498.669,482.207 c 0.173,-2.65 -1.837,-4.936 -4.492,-5.112 -2.648,-0.173 -4.94,1.838 -5.113,4.487 -0.17,2.646 1.836,4.937 4.488,5.11 2.655,0.17 4.94,-1.835 5.117,-4.485"
               transform="translate(-38,-122)"
               id="path70" />
            <path
               fill="#0070e2"
               d="m 471.763,488.774 c 0.206,-3.134 -2.176,-5.847 -5.317,-6.05 -3.14,-0.206 -5.848,2.171 -6.055,5.309 -0.203,3.138 2.173,5.847 5.314,6.053 3.14,0.203 5.852,-2.177 6.058,-5.312"
               transform="translate(-38,-122)"
               id="path72" />
            <path
               fill="#aec935"
               d="m 530.227,425.61 c 0.343,-5.235 -3.63,-9.76 -8.87,-10.101 -5.24,-0.34 -9.768,3.63 -10.107,8.865 -0.346,5.236 3.63,9.757 8.87,10.103 5.24,0.339 9.765,-3.627 10.107,-8.866"
               transform="translate(-38,-122)"
               id="path74" />
            <path
               fill="#9ae5ff"
               d="m 474.411,488.947 c 0.303,-4.601 -3.187,-8.57 -7.792,-8.873 -4.604,-0.299 -8.577,3.185 -8.88,7.786 -0.3,4.6 3.188,8.573 7.792,8.872 4.605,0.302 8.58,-3.185 8.88,-7.785"
               transform="translate(-38,-122)"
               id="path76" />
            <path
               fill="#0070e2"
               d="m 511.997,271.845 c 0.066,-0.977 -0.676,-1.821 -1.657,-1.888 -0.978,-0.063 -1.827,0.678 -1.887,1.659 -0.066,0.977 0.676,1.822 1.657,1.888 0.978,0.063 1.823,-0.681 1.887,-1.659"
               transform="translate(-38,-122)"
               id="path78" />
            <path
               fill="#0070e2"
               d="m 514.596,272.016 c 0.16,-2.414 -1.67,-4.498 -4.089,-4.654 -2.412,-0.156 -4.498,1.672 -4.654,4.082 -0.16,2.414 1.673,4.498 4.088,4.654 2.413,0.156 4.499,-1.669 4.655,-4.082"
               transform="translate(-38,-122)"
               id="path80" />
            <path
               fill="#ff2e5f"
               d="m 163.584,547.147 c 0.217,-3.318 -2.302,-6.183 -5.622,-6.403 -3.324,-0.216 -6.195,2.3 -6.412,5.621 -0.216,3.318 2.303,6.187 5.626,6.4 3.32,0.219 6.192,-2.298 6.408,-5.618"
               transform="translate(-38,-122)"
               id="path82" />
            <path
               fill="#009468"
               d="m 160.113,546.923 c 0.093,-1.407 -0.972,-2.62 -2.38,-2.71 -1.407,-0.093 -2.618,0.974 -2.71,2.374 -0.094,1.406 0.974,2.62 2.378,2.712 1.407,0.09 2.622,-0.974 2.712,-2.376"
               transform="translate(-38,-122)"
               id="path84" />
            <path
               fill="#009468"
               d="m 164.145,547.185 c 0.236,-3.63 -2.515,-6.764 -6.148,-7 -3.63,-0.24 -6.768,2.51 -7.007,6.14 -0.236,3.63 2.515,6.764 6.148,7.004 3.633,0.236 6.77,-2.513 7.007,-6.144 m 19.025,42.852 c 0.17,-2.61 -1.81,-4.863 -4.419,-5.033 -2.611,-0.17 -4.867,1.805 -5.037,4.415 -0.173,2.613 1.807,4.86 4.419,5.033 2.611,0.17 4.864,-1.809 5.037,-4.415"
               transform="translate(-38,-122)"
               id="path86" />
            <path
               fill="#9ae5ff"
               d="m 164.444,547.205 c 0.25,-3.796 -2.632,-7.074 -6.428,-7.32 -3.796,-0.246 -7.077,2.63 -7.323,6.42 -0.25,3.795 2.628,7.073 6.425,7.323 3.799,0.246 7.08,-2.627 7.326,-6.423"
               transform="translate(-38,-122)"
               id="path88" />
            <path
               fill="#00324c"
               d="m 234.62,537.512 c 0.229,-3.544 -2.46,-6.609 -6.013,-6.845 -3.55,-0.23 -6.614,2.46 -6.847,6.007 -0.233,3.547 2.459,6.612 6.009,6.845 3.553,0.229 6.62,-2.46 6.85,-6.007"
               transform="translate(-38,-122)"
               id="path90" />
            <path
               fill="#009468"
               d="m 180.71,589.875 c 0.08,-1.25 -0.868,-2.33 -2.122,-2.414 -1.251,-0.08 -2.333,0.868 -2.412,2.118 -0.084,1.253 0.865,2.333 2.116,2.417 1.254,0.08 2.339,-0.868 2.418,-2.121"
               transform="translate(-38,-122)"
               id="path92" />
            <path
               fill="#f7b200"
               d="m 401.281,322.09 c 0.306,-4.693 -3.254,-8.746 -7.952,-9.051 -4.698,-0.306 -8.753,3.247 -9.06,7.945 -0.305,4.69 3.255,8.742 7.952,9.051 4.695,0.306 8.754,-3.25 9.06,-7.944"
               transform="translate(-38,-122)"
               id="path94" />
            <path
               fill="#83e7ff"
               d="m 401.817,322.126 c 0.326,-4.99 -3.457,-9.298 -8.45,-9.624 -4.995,-0.325 -9.307,3.458 -9.633,8.444 -0.326,4.99 3.457,9.298 8.451,9.624 4.99,0.325 9.306,-3.458 9.632,-8.444"
               transform="translate(-38,-122)"
               id="path96" />
            <path
               fill="#ff2e5f"
               d="m 512.114,271.854 c 0.07,-1.04 -0.722,-1.942 -1.764,-2.011 -1.048,-0.067 -1.946,0.72 -2.016,1.765 -0.066,1.04 0.725,1.941 1.77,2.01 1.042,0.067 1.94,-0.724 2.01,-1.764"
               transform="translate(-38,-122)"
               id="path98" />
            <path
               fill="#009468"
               d="m 422.153,238.642 c 0.083,-1.313 -0.908,-2.443 -2.223,-2.53 -1.31,-0.086 -2.445,0.908 -2.531,2.22 -0.084,1.31 0.911,2.444 2.222,2.53 1.314,0.087 2.449,-0.907 2.532,-2.22"
               transform="translate(-38,-122)"
               id="path100" />
            <path
               fill="#00324a"
               d="m 515.56,272.077 c 0.194,-2.945 -2.039,-5.488 -4.986,-5.677 -2.948,-0.197 -5.493,2.037 -5.686,4.983 -0.193,2.945 2.04,5.488 4.987,5.68 2.951,0.194 5.493,-2.04 5.686,-4.986"
               transform="translate(-38,-122)"
               id="path102" />
            <path
               fill="#aec935"
               d="m 355.063,502.169 c 0.37,-5.711 -3.96,-10.645 -9.675,-11.014 -5.72,-0.375 -10.654,3.953 -11.03,9.664 -0.372,5.711 3.963,10.644 9.679,11.017 5.712,0.375 10.653,-3.953 11.026,-9.667"
               transform="translate(-38,-122)"
               id="path104" />
            <path
               fill="#009468"
               d="m 324.489,542.58 c 0.163,-2.507 -1.737,-4.671 -4.249,-4.834 -2.509,-0.167 -4.678,1.735 -4.837,4.241 -0.164,2.507 1.736,4.674 4.245,4.834 2.508,0.166 4.674,-1.732 4.84,-4.242"
               transform="translate(-38,-122)"
               id="path106" />
            <path
               fill="#a6cc00"
               d="m 183.053,590.03 c 0.166,-2.546 -1.763,-4.743 -4.312,-4.91 -2.545,-0.162 -4.744,1.766 -4.907,4.306 -0.167,2.546 1.76,4.743 4.305,4.91 2.548,0.166 4.748,-1.762 4.914,-4.305"
               transform="translate(-38,-122)"
               id="path108" />
            <path
               fill="#f7b200"
               d="m 323.628,542.524 c 0.133,-2.031 -1.411,-3.79 -3.444,-3.923 -2.033,-0.13 -3.79,1.41 -3.922,3.44 -0.134,2.035 1.407,3.79 3.44,3.923 2.036,0.133 3.793,-1.409 3.926,-3.44"
               transform="translate(-38,-122)"
               id="path110" />
            <path
               fill="#ccf2ff"
               d="m 325.067,542.618 c 0.186,-2.829 -1.96,-5.269 -4.788,-5.455 -2.831,-0.183 -5.273,1.958 -5.46,4.787 -0.182,2.825 1.96,5.269 4.788,5.452 2.832,0.186 5.274,-1.955 5.46,-4.784"
               transform="translate(-38,-122)"
               id="path112" />
            <path
               fill="#0070e2"
               d="m 521.75,182.917 c 0.223,-3.434 -2.382,-6.402 -5.819,-6.625 -3.437,-0.226 -6.408,2.38 -6.63,5.814 -0.227,3.434 2.382,6.4 5.818,6.625 3.437,0.223 6.408,-2.38 6.631,-5.814"
               transform="translate(-38,-122)"
               id="path114" />
            <path
               fill="#0070e2"
               d="m 517.042,182.61 c 0.054,-0.834 -0.582,-1.558 -1.417,-1.612 -0.838,-0.056 -1.56,0.579 -1.614,1.413 -0.056,0.838 0.58,1.56 1.418,1.616 0.835,0.053 1.557,-0.582 1.613,-1.416"
               transform="translate(-38,-122)"
               id="path116" />
            <path
               fill="#ff2e5f"
               d="m 420.82,238.556 c 0.037,-0.575 -0.398,-1.074 -0.977,-1.11 -0.576,-0.04 -1.072,0.399 -1.112,0.974 -0.036,0.575 0.4,1.074 0.975,1.11 0.58,0.037 1.075,-0.399 1.115,-0.974"
               transform="translate(-38,-122)"
               id="path118" />
            <path
               fill="#009468"
               d="m 518.047,182.675 c 0.09,-1.39 -0.965,-2.593 -2.356,-2.682 -1.394,-0.09 -2.595,0.964 -2.688,2.353 -0.087,1.39 0.965,2.593 2.355,2.683 1.394,0.09 2.599,-0.964 2.689,-2.354"
               transform="translate(-38,-122)"
               id="path120" />
            <path
               fill="#aec935"
               d="m 525.994,183.193 c 0.376,-5.774 -4.003,-10.764 -9.785,-11.14 -5.783,-0.375 -10.773,4 -11.15,9.774 -0.375,5.778 4.003,10.767 9.782,11.143 5.783,0.376 10.777,-4 11.153,-9.777"
               transform="translate(-38,-122)"
               id="path122" />
            <path
               fill="#1a95d9"
               d="m 423.137,238.707 c 0.124,-1.855 -1.284,-3.46 -3.14,-3.58 -1.86,-0.12 -3.46,1.286 -3.584,3.141 -0.123,1.855 1.285,3.457 3.145,3.58 1.856,0.12 3.46,-1.286 3.58,-3.141"
               transform="translate(-38,-122)"
               id="path124" />
          </g>
        </g>
      </g>
    </g>
  </g>
</svg>
