<svg xmlns="http://www.w3.org/2000/svg" xmlns:xlink="http://www.w3.org/1999/xlink" width="490" height="472" viewBox="0 0 490 472">
    <defs>
        <path id="yql74udw5a" d="M0 0H490V472H0z"/>
    </defs>
    <g fill="none" fill-rule="evenodd">
        <g>
            <g transform="translate(-950 -90) matrix(1 0 0 -1 950 562)">
                <mask id="tbtyukmt2b" fill="#fff">
                    <use xlink:href="#yql74udw5a"/>
                </mask>
                <g mask="url(#tbtyukmt2b)" opacity=".5">
                    <g>
                        <path fill="#C4C4C4" d="M419.372 431.097l2.745 18.922 93.676-24.257-96.421 5.335zm2.302 20.032c-.083-.007-.166-.033-.243-.083-.116-.077-.193-.203-.213-.34l-2.904-20.004c-.02-.137.02-.276.106-.383.087-.106.217-.176.353-.183l101.938-5.637c.276-.02.476.166.516.418.04.25-.12.492-.366.556l-99.03 25.64c-.05.016-.104.02-.157.016zM41.901 606.44l51.02 35.377 83.347-51.333-134.367 15.957zm50.974 36.464c-.09-.006-.173-.036-.25-.093l-52.36-36.304c-.167-.116-.247-.326-.197-.528.05-.197.216-.343.423-.37l137.893-16.371c.246-.027.453.11.526.329.076.22-.014.462-.206.585l-85.536 52.676c-.09.056-.193.083-.293.076z" transform="translate(-38 -122)"/>
                        <path fill="#C4C4C4" d="M93.797 642.442l45.135 32.74 38.384-84.179-83.519 51.44zm45.301 33.99c-.093-.006-.18-.04-.259-.096l-46.223-33.528c-.133-.096-.21-.256-.203-.419.007-.163.093-.312.236-.402l85.532-52.68c.183-.112.42-.096.59.05.162.144.212.38.12.58l-39.31 86.207c-.06.136-.18.232-.323.272-.053.017-.106.02-.16.017z" transform="translate(-38 -122)"/>
                        <path fill="#C4C4C4" d="M139.876 675.497l143.436 10.916-104.703-95.86-38.733 84.944zm144.797 12.01h-.004l-145.575-11.076c-.16-.014-.306-.103-.39-.243-.08-.14-.09-.31-.023-.459l39.31-86.204c.066-.143.2-.25.352-.279.15-.037.313.013.433.12l106.263 97.283c.156.143.203.373.12.562-.08.193-.277.313-.486.296zM521.702 424.901l162.287 76.707-73.917-140.977-88.37 64.27zm163.378 78.277c-.06-.004-.12-.017-.176-.044l-164.38-77.694c-.153-.073-.263-.226-.28-.399-.016-.176.06-.346.2-.449l89.505-65.102c.12-.083.266-.116.406-.083.14.037.262.127.326.256l74.875 142.796c.097.186.067.42-.083.569-.106.11-.25.16-.393.15zM424.55 452.408l41.659 35.456 26.087-6.11-67.745-29.346zm41.496 36.49c-.107-.007-.21-.05-.29-.12l-44.37-37.767c-.189-.156-.232-.428-.1-.638.134-.206.4-.286.616-.19l72.164 31.255c.193.083.313.286.293.499-.016.216-.17.389-.38.439l-27.787 6.508c-.05.01-.1.017-.146.014z" transform="translate(-38 -122)"/>
                        <path fill="#C4C4C4" d="M423.225 450.753l70.398 30.494 26.214-55.512-96.612 25.018zm70.61 31.634c-.056-.004-.113-.017-.163-.04l-72.163-31.258c-.193-.083-.31-.282-.293-.492.01-.21.16-.389.369-.442l99.027-25.643c.183-.05.386.016.509.163.12.15.146.355.063.528l-26.87 56.901c-.086.186-.282.296-.478.283z" transform="translate(-38 -122)"/>
                        <path fill="#C4C4C4" d="M466.529 488.807l-13.864 119.719 40.464-125.952-26.6 6.233zm-14.968 125.172c-.027-.005-.05-.008-.074-.015-.25-.05-.416-.286-.389-.538l14.486-125.081c.027-.206.176-.376.38-.426l27.79-6.509c.177-.03.36.017.476.147.12.13.163.319.107.488l-42.277 131.59c-.067.216-.277.356-.5.344z" transform="translate(-38 -122)"/>
                        <path fill="#C4C4C4" d="M494.61 481.477l187.634 20.4-161.27-76.228-26.363 55.828zm190.472 21.7h-.02l-191.246-20.793c-.16-.016-.303-.11-.383-.252-.077-.137-.083-.306-.013-.45l26.869-56.9c.057-.12.16-.213.283-.256.126-.043.26-.037.376.02l164.377 77.69c.223.104.332.353.266.582-.063.226-.276.376-.51.36z" transform="translate(-38 -122)"/>
                        <path fill="#C4C4C4" d="M510.8 272.899l10.368 151.166 88.284-64.21-98.651-86.956zm9.906 152.586c-.06-.004-.124-.017-.177-.044-.166-.076-.273-.236-.286-.415l-10.513-153.26c-.014-.2.096-.39.276-.48.18-.09.396-.06.545.074l100.018 88.158c.114.1.177.246.167.396-.007.15-.08.29-.2.379l-89.508 65.102c-.093.066-.21.096-.322.09z" transform="translate(-38 -122)"/>
                        <path fill="#C4C4C4" d="M511.168 271.902l98.521 86.843-6.038-121.8-92.483 34.957zm99.044 88.481c-.11-.006-.213-.046-.297-.12l-100.021-88.161c-.13-.117-.186-.29-.156-.46.03-.172.146-.312.312-.375l93.887-35.49c.146-.052.312-.036.445.047.134.087.213.233.223.393l6.133 123.648c.01.2-.104.385-.28.472-.08.036-.167.053-.246.046zM494.12 482.72l-41.818 130.177 179.505-22.405L494.12 482.72zm-42.56 131.258c-.136-.01-.262-.07-.349-.177-.11-.13-.143-.305-.09-.468l42.274-131.59c.05-.156.173-.276.326-.323.156-.043.326-.016.453.084L633.35 590.445c.16.123.226.333.173.522-.053.193-.216.336-.419.36L451.65 613.973c-.026.004-.06.004-.09.004z" transform="translate(-38 -122)"/>
                        <path fill="#C4C4C4" d="M453.146 613.787l101.405 56.921 77.155-79.206-178.56 22.285zm101.462 58.035c-.07-.007-.143-.027-.21-.067L451.35 613.914c-.186-.104-.286-.316-.243-.526.037-.21.21-.369.426-.392l181.455-22.651c.213-.037.41.086.502.269.093.19.06.415-.086.565l-78.406 80.493c-.103.106-.246.156-.389.15z" transform="translate(-38 -122)"/>
                        <path fill="#C4C4C4" d="M495.537 482.574L632.907 590.1l51.39-87.006-188.76-20.52zM633.014 591.33c-.1-.007-.193-.044-.273-.103L493.561 482.28c-.174-.136-.237-.369-.154-.575.087-.206.286-.302.516-.305l191.246 20.79c.167.02.313.122.39.272.076.15.07.329-.02.472l-52.066 88.152c-.07.123-.196.21-.336.236-.04.007-.083.01-.123.007zM157.341 547.426L43.256 605.28l134.437-15.96-20.352-41.895zM40.515 606.594c-.203-.013-.383-.15-.443-.35-.066-.229.037-.475.253-.58l117.02-59.348c.113-.064.252-.07.382-.027.123.04.23.133.286.25l20.874 42.972c.07.146.067.315-.013.455-.073.143-.213.236-.373.256L40.608 606.594c-.033.003-.063.003-.093 0z" transform="translate(-38 -122)"/>
                        <path fill="#C4C4C4" d="M158.31 547.153l20.263 41.716 48.292-51.093-68.554 9.377zm20.1 43.069c-.014 0-.03 0-.044-.003-.163-.027-.302-.127-.372-.273l-20.874-42.972c-.067-.147-.063-.31.013-.45.073-.142.21-.235.366-.258l70.624-9.664c.216-.013.412.083.509.263.093.19.06.415-.083.568l-49.75 52.636c-.1.106-.243.163-.39.153zM392.742 322.03c-.04-.003-.08-.01-.12-.023-.259-.086-.402-.362-.319-.622l27-83.052c.086-.26.375-.393.625-.316.26.083.402.362.32.622l-27.003 83.049c-.07.223-.283.356-.503.342" transform="translate(-38 -122)"/>
                        <path fill="#C4C4C4" d="M420.09 239.129l-26.51 81.527 115.3-48.893-88.79-32.634zm-27.349 82.9c-.11-.004-.216-.05-.302-.127-.143-.133-.193-.335-.137-.518l27.003-83.05c.04-.13.133-.232.253-.292.123-.06.266-.07.389-.02l90.45 33.242c.189.07.319.253.322.456.003.202-.113.385-.303.465l-117.445 49.807c-.077.03-.153.043-.23.037z" transform="translate(-38 -122)"/>
                        <path fill="#C4C4C4" d="M393.593 322.835l25.596 107.28 100.237-5.545-125.833-101.735zm25.176 108.29c-.213-.013-.396-.165-.445-.382l-26.031-109.091c-.047-.206.04-.422.22-.535.179-.113.405-.1.575.036L521.05 424.607c.156.13.223.342.156.538-.06.193-.236.33-.439.34l-101.934 5.64h-.064z" transform="translate(-38 -122)"/>
                        <path fill="#C4C4C4" d="M393.727 321.67l126.438 102.224-10.387-151.436-116.051 49.212zm126.977 103.816c-.1-.007-.2-.043-.28-.11L392.464 321.923c-.133-.113-.2-.283-.18-.456.023-.173.14-.319.3-.385l117.448-49.807c.15-.064.32-.05.452.036.137.08.223.226.237.386l10.511 153.26c.012.196-.09.383-.264.472-.083.047-.173.06-.263.057zM418.452 431.652l-69.422 66.399 72.14-47.657-2.718-18.742zm-73.774 70.335c-.136-.007-.266-.07-.353-.183-.16-.2-.143-.489.04-.668l74.094-70.863c.136-.127.33-.173.502-.11.18.06.306.216.333.399l2.901 20.002c.03.193-.056.379-.213.485l-76.998 50.861c-.093.06-.203.086-.306.077z" transform="translate(-38 -122)"/>
                        <path fill="#C4C4C4" d="M421.669 451.253l-74.985 49.531 118.193-12.751-43.208-36.78zm-76.992 50.735c-.193-.01-.366-.136-.432-.326-.08-.213 0-.455.193-.582l76.995-50.857c.186-.123.432-.107.595.036l44.367 37.77c.153.127.213.33.153.519-.057.19-.22.326-.42.346l-121.364 13.094c-.03.003-.06.003-.087 0z" transform="translate(-38 -122)"/>
                        <path fill="#C4C4C4" d="M345.76 501.88l105.462 110.497 14.29-123.419L345.76 501.88zm105.801 112.1c-.123-.01-.24-.063-.326-.157l-106.882-111.99c-.133-.136-.173-.332-.11-.508.067-.18.227-.303.413-.323l121.365-13.09c.156-.02.3.04.409.142.106.107.156.256.14.406l-14.486 125.08c-.024.19-.153.35-.336.413-.06.023-.127.03-.187.027zM228.39 537.599l-48.229 51.034 137.185-46.001-88.955-5.033zm-49.979 52.623c-.156-.01-.299-.09-.389-.223-.123-.196-.096-.445.06-.608l49.75-52.636c.096-.107.24-.163.386-.157l91.753 5.193h.004c.24.017.429.193.459.429.033.232-.107.455-.333.535l-141.503 47.443c-.06.02-.127.03-.187.024z" transform="translate(-38 -122)"/>
                        <path fill="#C4C4C4" d="M179.395 589.93l105.028 96.157 34.828-143.046-139.856 46.889zm105.281 97.58c-.113-.007-.22-.05-.303-.13l-106.266-97.284c-.13-.12-.183-.3-.15-.472.037-.17.16-.31.326-.362l141.504-47.447c.17-.057.362-.017.495.106.13.12.187.303.143.479l-35.237 144.73c-.043.17-.173.31-.339.36-.056.02-.12.023-.173.02z" transform="translate(-38 -122)"/>
                        <path fill="#C4C4C4" d="M343.613 502.348L230.989 536.76l88.69 5.013 23.934-39.425zm-115.452 35.24c-.24-.014-.433-.2-.463-.436-.026-.24.117-.462.35-.528l116.517-35.6c.202-.073.409.007.535.167.127.16.14.385.033.558l-24.763 40.792c-.1.156-.27.246-.452.236l-91.754-5.19h-.003z" transform="translate(-38 -122)"/>
                        <path fill="#C4C4C4" d="M320.275 543.024l-34.851 143.135 165.045-72.721-130.194-70.414zm-35.6 144.484c-.103-.006-.206-.046-.286-.113-.146-.12-.21-.312-.163-.498l35.237-144.73c.04-.15.14-.273.28-.333.14-.063.302-.057.439.013l131.645 71.199c.166.093.27.272.26.458-.01.19-.124.36-.297.432L284.905 687.47c-.074.033-.157.046-.23.04z" transform="translate(-38 -122)"/>
                        <path fill="#C4C4C4" d="M320.639 542.099l128.43 69.46L344.8 502.304 320.64 542.1zm130.923 71.88c-.073-.007-.14-.027-.206-.06L319.71 542.72c-.12-.066-.21-.176-.246-.305-.033-.13-.01-.27.057-.386l24.763-40.792c.083-.13.22-.216.373-.232.153-.024.306.036.412.15l106.882 111.99c.17.175.18.448.037.638-.107.136-.27.206-.426.197zM419.742 238.98c-.156-.01-.31-.097-.392-.243-.14-.236-.064-.539.176-.678l95.753-55.974c.23-.14.539-.063.675.177.137.236.06.538-.18.678l-95.749 55.973c-.087.053-.186.073-.283.067" transform="translate(-38 -122)"/>
                        <path fill="#C4C4C4" d="M420.931 238.384l88.84 32.654 5.21-87.634-94.05 54.98zm89.262 33.84c-.05-.003-.093-.013-.14-.03l-90.45-33.242c-.179-.07-.302-.229-.322-.422-.017-.193.08-.375.243-.472l95.753-55.973c.156-.093.352-.093.509.006.156.097.246.266.237.45l-5.304 89.218c-.01.156-.09.3-.223.386-.09.06-.2.086-.303.08z" transform="translate(-38 -122)"/>
                        <path fill="#C4C4C4" d="M515.97 183.36l-5.203 87.637 92.216-34.86-87.013-52.776zm-5.776 88.865c-.096-.008-.186-.04-.262-.094-.134-.1-.21-.263-.204-.429l5.304-89.22c.01-.172.11-.328.266-.408.15-.08.336-.073.482.013l88.587 53.73c.163.1.256.28.236.469-.017.19-.14.349-.316.415l-93.89 35.493c-.063.023-.136.033-.203.03z" transform="translate(-38 -122)"/>
                        <path fill="#C4C4C4" d="M534.305 38.954l-17.843 140.127 54.251-126.205-36.408-13.922zm-18.811 144.05c-.034 0-.067-.007-.1-.014-.236-.067-.39-.296-.36-.542l18.37-144.245c.016-.15.106-.283.235-.363.13-.076.287-.086.433-.036l37.48 14.33c.122.047.226.147.279.27.053.123.053.266-.003.389l-55.849 129.914c-.08.196-.279.31-.485.297z" transform="translate(-38 -122)"/>
                        <path fill="#C4C4C4" d="M516.152 182.312l87.276 52.938-32.253-180.938-55.023 128zm87.928 54.425c-.08-.008-.157-.034-.227-.074l-88.583-53.73c-.21-.126-.296-.389-.196-.618L570.92 52.401c.083-.2.25-.336.512-.296.22.026.39.193.43.405l32.738 183.644c.033.19-.05.383-.21.492-.093.067-.203.097-.31.091z" transform="translate(-38 -122)"/>
                        <path fill="#FF2E5F" d="M522.79 425.127c.073-1.133-.782-2.11-1.916-2.187-1.135-.073-2.116.788-2.19 1.918-.073 1.133.786 2.114 1.92 2.187 1.135.073 2.116-.784 2.186-1.918" transform="translate(-38 -122)"/>
                        <path fill="#0097E5" d="M430.464 451.206c.32-4.833-3.347-9.005-8.185-9.32-4.837-.316-9.016 3.347-9.332 8.18-.313 4.83 3.35 9.006 8.188 9.321 4.837.316 9.013-3.347 9.329-8.18" transform="translate(-38 -122)"/>
                        <path fill="#AEC935" d="M428.134 431.24c.34-5.15-3.566-9.597-8.72-9.933-5.157-.336-9.605 3.567-9.941 8.716-.336 5.15 3.57 9.597 8.723 9.933 5.154.336 9.602-3.567 9.938-8.716" transform="translate(-38 -122)"/>
                        <path fill="#009468" d="M183.758 590.076c.19-2.935-2.033-5.468-4.967-5.658-2.938-.193-5.473 2.031-5.663 4.963-.193 2.936 2.033 5.469 4.967 5.658 2.935.193 5.47-2.03 5.663-4.963" transform="translate(-38 -122)"/>
                        <path fill="#009468" d="M179.18 589.777c.027-.409-.283-.761-.689-.784-.409-.027-.762.282-.785.688-.027.409.283.758.689.784.406.027.758-.282.785-.688" transform="translate(-38 -122)"/>
                        <path fill="#FF2E5F" d="M183.066 590.03c.166-2.552-1.767-4.756-4.322-4.92-2.552-.166-4.758 1.766-4.924 4.316-.166 2.553 1.767 4.757 4.322 4.923 2.552.166 4.754-1.765 4.924-4.318" transform="translate(-38 -122)"/>
                        <path fill="#009468" d="M525.133 425.28c.16-2.427-1.68-4.521-4.106-4.68-2.432-.157-4.528 1.681-4.688 4.108-.153 2.423 1.684 4.518 4.112 4.677 2.426.156 4.525-1.682 4.682-4.105M231.857 537.333c.133-2.024-1.404-3.773-3.427-3.906-2.03-.133-3.776 1.403-3.909 3.427-.133 2.025 1.404 3.773 3.427 3.903 2.03.133 3.78-1.4 3.91-3.424" transform="translate(-38 -122)"/>
                        <path fill="#A6CC00" d="M498.669 482.207c.173-2.65-1.837-4.936-4.492-5.112-2.648-.173-4.94 1.838-5.113 4.487-.17 2.646 1.836 4.937 4.488 5.11 2.655.17 4.94-1.835 5.117-4.485" transform="translate(-38 -122)"/>
                        <path fill="#0070E2" d="M471.763 488.774c.206-3.134-2.176-5.847-5.317-6.05-3.14-.206-5.848 2.171-6.055 5.309-.203 3.138 2.173 5.847 5.314 6.053 3.14.203 5.852-2.177 6.058-5.312" transform="translate(-38 -122)"/>
                        <path fill="#AEC935" d="M530.227 425.61c.343-5.235-3.63-9.76-8.87-10.101-5.24-.34-9.768 3.63-10.107 8.865-.346 5.236 3.63 9.757 8.87 10.103 5.24.339 9.765-3.627 10.107-8.866" transform="translate(-38 -122)"/>
                        <path fill="#9AE5FF" d="M474.411 488.947c.303-4.601-3.187-8.57-7.792-8.873-4.604-.299-8.577 3.185-8.88 7.786-.3 4.6 3.188 8.573 7.792 8.872 4.605.302 8.58-3.185 8.88-7.785" transform="translate(-38 -122)"/>
                        <path fill="#0070E2" d="M511.997 271.845c.066-.977-.676-1.821-1.657-1.888-.978-.063-1.827.678-1.887 1.659-.066.977.676 1.822 1.657 1.888.978.063 1.823-.681 1.887-1.659" transform="translate(-38 -122)"/>
                        <path fill="#0070E2" d="M514.596 272.016c.16-2.414-1.67-4.498-4.089-4.654-2.412-.156-4.498 1.672-4.654 4.082-.16 2.414 1.673 4.498 4.088 4.654 2.413.156 4.499-1.669 4.655-4.082" transform="translate(-38 -122)"/>
                        <path fill="#FF2E5F" d="M163.584 547.147c.217-3.318-2.302-6.183-5.622-6.403-3.324-.216-6.195 2.3-6.412 5.621-.216 3.318 2.303 6.187 5.626 6.4 3.32.219 6.192-2.298 6.408-5.618" transform="translate(-38 -122)"/>
                        <path fill="#009468" d="M160.113 546.923c.093-1.407-.972-2.62-2.38-2.71-1.407-.093-2.618.974-2.71 2.374-.094 1.406.974 2.62 2.378 2.712 1.407.09 2.622-.974 2.712-2.376" transform="translate(-38 -122)"/>
                        <path fill="#009468" d="M164.145 547.185c.236-3.63-2.515-6.764-6.148-7-3.63-.24-6.768 2.51-7.007 6.14-.236 3.63 2.515 6.764 6.148 7.004 3.633.236 6.77-2.513 7.007-6.144M183.17 590.037c.17-2.61-1.81-4.863-4.419-5.033-2.611-.17-4.867 1.805-5.037 4.415-.173 2.613 1.807 4.86 4.419 5.033 2.611.17 4.864-1.809 5.037-4.415" transform="translate(-38 -122)"/>
                        <path fill="#9AE5FF" d="M164.444 547.205c.25-3.796-2.632-7.074-6.428-7.32-3.796-.246-7.077 2.63-7.323 6.42-.25 3.795 2.628 7.073 6.425 7.323 3.799.246 7.08-2.627 7.326-6.423" transform="translate(-38 -122)"/>
                        <path fill="#00324C" d="M234.62 537.512c.229-3.544-2.46-6.609-6.013-6.845-3.55-.23-6.614 2.46-6.847 6.007-.233 3.547 2.459 6.612 6.009 6.845 3.553.229 6.62-2.46 6.85-6.007" transform="translate(-38 -122)"/>
                        <path fill="#009468" d="M180.71 589.875c.08-1.25-.868-2.33-2.122-2.414-1.251-.08-2.333.868-2.412 2.118-.084 1.253.865 2.333 2.116 2.417 1.254.08 2.339-.868 2.418-2.121" transform="translate(-38 -122)"/>
                        <path fill="#F7B200" d="M401.281 322.09c.306-4.693-3.254-8.746-7.952-9.051-4.698-.306-8.753 3.247-9.06 7.945-.305 4.69 3.255 8.742 7.952 9.051 4.695.306 8.754-3.25 9.06-7.944" transform="translate(-38 -122)"/>
                        <path fill="#83E7FF" d="M401.817 322.126c.326-4.99-3.457-9.298-8.45-9.624-4.995-.325-9.307 3.458-9.633 8.444-.326 4.99 3.457 9.298 8.451 9.624 4.99.325 9.306-3.458 9.632-8.444" transform="translate(-38 -122)"/>
                        <path fill="#FF2E5F" d="M512.114 271.854c.07-1.04-.722-1.942-1.764-2.011-1.048-.067-1.946.72-2.016 1.765-.066 1.04.725 1.941 1.77 2.01 1.042.067 1.94-.724 2.01-1.764" transform="translate(-38 -122)"/>
                        <path fill="#009468" d="M422.153 238.642c.083-1.313-.908-2.443-2.223-2.53-1.31-.086-2.445.908-2.531 2.22-.084 1.31.911 2.444 2.222 2.53 1.314.087 2.449-.907 2.532-2.22" transform="translate(-38 -122)"/>
                        <path fill="#00324A" d="M515.56 272.077c.194-2.945-2.039-5.488-4.986-5.677-2.948-.197-5.493 2.037-5.686 4.983-.193 2.945 2.04 5.488 4.987 5.68 2.951.194 5.493-2.04 5.686-4.986" transform="translate(-38 -122)"/>
                        <path fill="#AEC935" d="M355.063 502.169c.37-5.711-3.96-10.645-9.675-11.014-5.72-.375-10.654 3.953-11.03 9.664-.372 5.711 3.963 10.644 9.679 11.017 5.712.375 10.653-3.953 11.026-9.667" transform="translate(-38 -122)"/>
                        <path fill="#009468" d="M324.489 542.58c.163-2.507-1.737-4.671-4.249-4.834-2.509-.167-4.678 1.735-4.837 4.241-.164 2.507 1.736 4.674 4.245 4.834 2.508.166 4.674-1.732 4.84-4.242" transform="translate(-38 -122)"/>
                        <path fill="#A6CC00" d="M183.053 590.03c.166-2.546-1.763-4.743-4.312-4.91-2.545-.162-4.744 1.766-4.907 4.306-.167 2.546 1.76 4.743 4.305 4.91 2.548.166 4.748-1.762 4.914-4.305" transform="translate(-38 -122)"/>
                        <path fill="#F7B200" d="M323.628 542.524c.133-2.031-1.411-3.79-3.444-3.923-2.033-.13-3.79 1.41-3.922 3.44-.134 2.035 1.407 3.79 3.44 3.923 2.036.133 3.793-1.409 3.926-3.44" transform="translate(-38 -122)"/>
                        <path fill="#CCF2FF" d="M325.067 542.618c.186-2.829-1.96-5.269-4.788-5.455-2.831-.183-5.273 1.958-5.46 4.787-.182 2.825 1.96 5.269 4.788 5.452 2.832.186 5.274-1.955 5.46-4.784" transform="translate(-38 -122)"/>
                        <path fill="#0070E2" d="M521.75 182.917c.223-3.434-2.382-6.402-5.819-6.625-3.437-.226-6.408 2.38-6.63 5.814-.227 3.434 2.382 6.4 5.818 6.625 3.437.223 6.408-2.38 6.631-5.814" transform="translate(-38 -122)"/>
                        <path fill="#0070E2" d="M517.042 182.61c.054-.834-.582-1.558-1.417-1.612-.838-.056-1.56.579-1.614 1.413-.056.838.58 1.56 1.418 1.616.835.053 1.557-.582 1.613-1.416" transform="translate(-38 -122)"/>
                        <path fill="#FF2E5F" d="M420.82 238.556c.037-.575-.398-1.074-.977-1.11-.576-.04-1.072.399-1.112.974-.036.575.4 1.074.975 1.11.58.037 1.075-.399 1.115-.974" transform="translate(-38 -122)"/>
                        <path fill="#009468" d="M518.047 182.675c.09-1.39-.965-2.593-2.356-2.682-1.394-.09-2.595.964-2.688 2.353-.087 1.39.965 2.593 2.355 2.683 1.394.09 2.599-.964 2.689-2.354" transform="translate(-38 -122)"/>
                        <path fill="#AEC935" d="M525.994 183.193c.376-5.774-4.003-10.764-9.785-11.14-5.783-.375-10.773 4-11.15 9.774-.375 5.778 4.003 10.767 9.782 11.143 5.783.376 10.777-4 11.153-9.777" transform="translate(-38 -122)"/>
                        <path fill="#1A95D9" d="M423.137 238.707c.124-1.855-1.284-3.46-3.14-3.58-1.86-.12-3.46 1.286-3.584 3.141-.123 1.855 1.285 3.457 3.145 3.58 1.856.12 3.46-1.286 3.58-3.141" transform="translate(-38 -122)"/>
                    </g>
                </g>
            </g>
        </g>
    </g>
</svg>
