<svg xmlns="http://www.w3.org/2000/svg" xmlns:xlink="http://www.w3.org/1999/xlink" width="490" height="405" viewBox="0 0 490 405">
    <defs>
        <path id="w7uarmnkra" d="M0 0H490V405H0z"/>
    </defs>
    <g fill="none" fill-rule="evenodd">
        <g>
            <g transform="translate(0 -90) rotate(180 245 247.5)">
                <mask id="dd7j9ibh9b" fill="#fff">
                    <use xlink:href="#w7uarmnkra"/>
                </mask>
                <g mask="url(#dd7j9ibh9b)" opacity=".5">
                    <g>
                        <path fill="#C4C4C4" d="M250.624 741.056l146.061 29.183 5.207-40.529-151.268 11.346zm146.454 30.267c-.02 0-.043-.003-.067-.003l-150.123-30.005c-.243-.05-.413-.27-.397-.515.017-.246.21-.446.457-.462l155.476-11.662c.144-.016.293.047.396.153.1.107.15.256.13.403l-5.35 41.662c-.016.137-.093.26-.203.34-.093.07-.206.096-.32.09zM72.773 776L9.293 915.042l116.43-69.267L72.773 776zM8.154 916.772c-.11-.008-.216-.05-.3-.124-.162-.146-.209-.379-.119-.575l64.482-141.24c.073-.156.223-.266.396-.286.17-.023.346.056.446.193l53.785 70.876c.086.116.12.259.093.399-.03.14-.113.259-.236.329L8.44 916.7c-.09.053-.19.077-.287.071z" transform="translate(229 -483)"/>
                        <path fill="#C4C4C4" d="M73.516 775.337l52.661 69.4 16.991-86.586-69.652 17.186zm52.9 71.076c-.139-.01-.272-.08-.359-.197l-53.785-70.879c-.1-.13-.13-.31-.073-.462.056-.16.186-.28.35-.316l71.135-17.555c.16-.037.336.007.463.123.12.12.176.286.143.452l-17.354 88.435c-.037.19-.187.342-.376.385-.047.01-.093.017-.143.014z" transform="translate(229 -483)"/>
                        <path fill="#C4C4C4" d="M138.722 677.438l-64.93 96.815 69.495-17.15-4.565-79.665zm-66.089 98.095c-.146-.01-.282-.087-.372-.213-.117-.163-.12-.385-.007-.555l66.465-99.102c.12-.176.336-.246.542-.203.206.057.353.24.363.449l4.674 81.547c.014.239-.146.452-.379.512L72.786 775.52c-.05.013-.103.016-.153.013z" transform="translate(229 -483)"/>
                        <path fill="#C4C4C4" d="M139.686 676.96l4.568 79.722 60.236-32.105-64.804-47.616zm4.085 81.019c-.073-.007-.146-.027-.21-.06-.146-.086-.242-.24-.252-.409l-4.671-81.547c-.01-.186.09-.369.26-.458.166-.097.372-.08.528.033l66.282 48.71c.136.1.216.266.203.432-.013.17-.11.32-.263.402l-61.61 32.837c-.084.047-.177.067-.267.06zM41.901 606.44l51.02 35.377 83.347-51.333-134.367 15.957zm50.974 36.464c-.09-.006-.173-.036-.25-.093l-52.36-36.304c-.167-.116-.247-.326-.197-.528.05-.197.216-.343.423-.37l137.893-16.371c.246-.027.453.11.526.329.076.22-.014.462-.206.585l-85.536 52.676c-.09.056-.193.083-.293.076z" transform="translate(229 -483)"/>
                        <path fill="#C4C4C4" d="M93.274 643.286L73.491 772.922l64.965-96.865-45.182-32.77zm-20.64 132.245c-.05-.003-.097-.013-.147-.033-.213-.083-.343-.303-.31-.535L92.42 642.336c.027-.173.14-.32.3-.383.16-.07.339-.046.482.054l46.223 33.528c.216.16.27.455.12.675l-66.465 99.105c-.1.15-.273.23-.446.216z" transform="translate(229 -483)"/>
                        <path fill="#C4C4C4" d="M93.797 642.442l45.135 32.74 38.384-84.179-83.519 51.44zm45.301 33.99c-.093-.006-.18-.04-.259-.096l-46.223-33.528c-.133-.096-.21-.256-.203-.419.007-.163.093-.312.236-.402l85.532-52.68c.183-.112.42-.096.59.05.162.144.212.38.12.58l-39.31 86.207c-.06.136-.18.232-.323.272-.053.017-.106.02-.16.017z" transform="translate(229 -483)"/>
                        <path fill="#C4C4C4" d="M139.876 675.497l143.436 10.916-104.703-95.86-38.733 84.944zm144.797 12.01h-.004l-145.575-11.076c-.16-.014-.306-.103-.39-.243-.08-.14-.09-.31-.023-.459l39.31-86.204c.066-.143.2-.25.352-.279.15-.037.313.013.433.12l106.263 97.283c.156.143.203.373.12.562-.08.193-.277.313-.486.296z" transform="translate(229 -483)"/>
                        <path fill="#C4C4C4" d="M140.818 676.561l64.655 47.51 77.337-36.703-141.992-10.807zm64.565 48.578c-.093-.007-.183-.037-.263-.094l-66.282-48.706c-.176-.133-.246-.37-.17-.572.074-.21.28-.34.496-.323h.004l145.575 11.077c.223.016.41.183.45.402.04.223-.074.442-.273.539l-79.294 37.633c-.077.03-.16.047-.243.044z" transform="translate(229 -483)"/>
                        <path fill="#C4C4C4" d="M206.664 724.6l40.137 15.628 36.425-51.961-76.562 36.334zm40.287 16.725c-.05-.003-.1-.017-.146-.033l-41.572-16.186c-.183-.073-.303-.246-.313-.442-.006-.2.104-.383.283-.466l79.29-37.63c.2-.093.443-.043.59.13.146.17.156.419.026.601l-37.719 53.816c-.103.147-.27.22-.439.21z" transform="translate(229 -483)"/>
                        <path fill="#C4C4C4" d="M284.892 687.609l-36.904 52.652 152.114-11.409-115.21-41.243zm-37.938 53.716c-.167-.013-.317-.103-.4-.25-.096-.166-.086-.368.024-.528l37.722-53.816c.123-.18.366-.263.572-.18l117.755 42.152c.223.083.356.302.322.532-.026.232-.22.412-.449.428l-155.48 11.659c-.023.003-.043.003-.066.003zM208.6 878.846l236.455 88.95-48.27-196.213L208.6 878.846zm237.13 90.237c-.046-.004-.096-.014-.143-.03L207.27 879.4c-.183-.07-.306-.232-.325-.422-.015-.193.082-.376.251-.472L396.866 770.4c.133-.077.302-.084.439-.024.143.063.25.186.286.34l48.655 197.755c.04.18-.017.362-.153.485-.1.09-.23.133-.363.127zM157.341 547.426L43.256 605.28l134.437-15.96-20.352-41.895zM40.515 606.594c-.203-.013-.383-.15-.443-.35-.066-.229.037-.475.253-.58l117.02-59.348c.113-.064.252-.07.382-.027.123.04.23.133.286.25l20.874 42.972c.07.146.067.315-.013.455-.073.143-.213.236-.373.256L40.608 606.594c-.033.003-.063.003-.093 0z" transform="translate(229 -483)"/>
                        <path fill="#C4C4C4" d="M158.31 547.153l20.263 41.716 48.292-51.093-68.554 9.377zm20.1 43.069c-.014 0-.03 0-.044-.003-.163-.027-.302-.127-.372-.273l-20.874-42.972c-.067-.147-.063-.31.013-.45.073-.142.21-.235.366-.258l70.624-9.664c.216-.013.412.083.509.263.093.19.06.415-.083.568l-49.75 52.636c-.1.106-.243.163-.39.153z" transform="translate(229 -483)"/>
                        <path fill="#C4C4C4" d="M228.39 537.599l-48.229 51.034 137.185-46.001-88.955-5.033zm-49.979 52.623c-.156-.01-.299-.09-.389-.223-.123-.196-.096-.445.06-.608l49.75-52.636c.096-.107.24-.163.386-.157l91.753 5.193h.004c.24.017.429.193.459.429.033.232-.107.455-.333.535l-141.503 47.443c-.06.02-.127.03-.187.024z" transform="translate(229 -483)"/>
                        <path fill="#C4C4C4" d="M179.395 589.93l105.028 96.157 34.828-143.046-139.856 46.889zm105.281 97.58c-.113-.007-.22-.05-.303-.13l-106.266-97.284c-.13-.12-.183-.3-.15-.472.037-.17.16-.31.326-.362l141.504-47.447c.17-.057.362-.017.495.106.13.12.187.303.143.479l-35.237 144.73c-.043.17-.173.31-.339.36-.056.02-.12.023-.173.02z" transform="translate(229 -483)"/>
                        <path fill="#C4C4C4" d="M343.613 502.348L230.989 536.76l88.69 5.013 23.934-39.425zm-115.452 35.24c-.24-.014-.433-.2-.463-.436-.026-.24.117-.462.35-.528l116.517-35.6c.202-.073.409.007.535.167.127.16.14.385.033.558l-24.763 40.792c-.1.156-.27.246-.452.236l-91.754-5.19h-.003zM144.189 758.09l-17.068 86.975 128.591-59.045-111.523-27.93zm-17.77 88.321c-.1-.006-.193-.04-.276-.103-.146-.116-.213-.302-.18-.485l17.354-88.435c.027-.13.107-.246.22-.322.113-.07.256-.097.386-.06l113.393 28.396c.206.05.356.222.376.435.02.21-.1.406-.287.495l-130.75 60.036c-.073.033-.156.05-.236.043z" transform="translate(229 -483)"/>
                        <path fill="#C4C4C4" d="M127.693 845.89l79.52 32.42 48.852-91.362-128.372 58.942zm79.713 33.545c-.05-.007-.103-.017-.15-.037l-80.993-33.023c-.183-.073-.303-.25-.307-.445-.006-.197.107-.383.287-.463l130.747-60.035c.186-.09.419-.046.569.113.146.156.176.385.073.572l-49.756 93.055c-.09.173-.28.272-.47.263z" transform="translate(229 -483)"/>
                        <path fill="#C4C4C4" d="M145.17 757.317l110.658 27.714-50.531-59.763-60.127 32.05zm111.996 29.057c-.03 0-.06-.003-.09-.013l-113.393-28.396c-.2-.05-.346-.216-.373-.422-.023-.2.08-.399.26-.495l61.614-32.84c.203-.107.459-.063.608.116l51.783 61.24c.14.162.156.398.043.58-.1.157-.276.244-.452.23z" transform="translate(229 -483)"/>
                        <path fill="#C4C4C4" d="M207.05 725.811l49.218 58.204-9.708-42.82-39.51-15.384zm50.116 60.565c-.133-.007-.26-.07-.346-.173l-51.782-61.24c-.147-.172-.157-.422-.027-.604.133-.187.376-.256.586-.173l41.568 16.185c.153.057.266.19.3.35l10.214 45.05c.05.222-.057.452-.26.555-.08.04-.17.056-.253.05z" transform="translate(229 -483)"/>
                        <path fill="#C4C4C4" d="M257.509 786.346l-48.825 91.313 186.12-106.08-137.295 14.767zm-50.102 93.089c-.113-.01-.227-.06-.31-.14-.16-.157-.196-.396-.093-.592l49.756-93.055c.08-.143.223-.24.386-.256l139.91-15.053c.25-.033.456.117.526.34.073.222-.024.468-.227.585L207.683 879.368c-.083.05-.18.07-.276.067z" transform="translate(229 -483)"/>
                        <path fill="#C4C4C4" d="M247.638 741.465l9.945 43.877 136.266-14.657-146.21-29.22zm9.526 44.91c-.213-.013-.403-.166-.446-.382L246.5 740.94c-.036-.163.014-.336.127-.456.12-.12.276-.17.456-.14l150.123 30.002c.24.047.41.266.4.509-.014.242-.2.445-.443.465L257.25 786.376c-.03.003-.056.003-.086 0z" transform="translate(229 -483)"/>
                        <path fill="#00324C" d="M255.027 741.355c.29-4.438-3.078-8.268-7.52-8.56-4.441-.29-8.274 3.075-8.563 7.513-.293 4.437 3.074 8.267 7.515 8.556 4.442.293 8.275-3.071 8.568-7.51" transform="translate(229 -483)"/>
                        <path fill="#009468" d="M73.528 775.094c.03-.476-.33-.885-.805-.914-.476-.034-.885.325-.919.804-.03.472.33.884.805.914.476.033.889-.326.919-.804" transform="translate(229 -483)"/>
                        <path fill="#0070E2" d="M76 775.256c.12-1.842-1.274-3.427-3.117-3.547-1.84-.123-3.43 1.27-3.55 3.111-.123 1.842 1.274 3.428 3.117 3.55 1.84.12 3.43-1.272 3.55-3.114M146.172 757.638c.084-1.306-.904-2.433-2.215-2.52-1.308-.086-2.436.905-2.522 2.211-.083 1.31.908 2.437 2.216 2.52 1.307.086 2.435-.901 2.521-2.21" transform="translate(229 -483)"/>
                        <path fill="#F7B200" d="M142.875 676.181c.136-2.064-1.43-3.849-3.5-3.985-2.066-.133-3.853 1.43-3.986 3.5-.137 2.064 1.43 3.85 3.497 3.983 2.069.136 3.856-1.433 3.989-3.498" transform="translate(229 -483)"/>
                        <path fill="#0070E2" d="M76.572 775.295c.14-2.154-1.494-4.019-3.65-4.158-2.159-.14-4.022 1.492-4.162 3.65-.14 2.15 1.494 4.015 3.654 4.155 2.152.14 4.019-1.496 4.158-3.647M210.9 725.003c.197-3.025-2.099-5.638-5.126-5.838-3.031-.196-5.646 2.095-5.843 5.123-.196 3.025 2.097 5.638 5.124 5.837 3.031.2 5.646-2.097 5.846-5.122" transform="translate(229 -483)"/>
                        <path fill="#009468" d="M143.096 676.194c.143-2.184-1.518-4.075-3.707-4.218-2.189-.143-4.079 1.516-4.222 3.703-.143 2.187 1.517 4.076 3.707 4.219 2.189.143 4.079-1.516 4.222-3.704" transform="translate(229 -483)"/>
                        <path fill="#7BC0D3" d="M97.844 642.728c.176-2.723-1.887-5.073-4.615-5.252-2.728-.18-5.083 1.885-5.26 4.61-.176 2.723 1.89 5.077 4.615 5.256 2.728.176 5.08-1.888 5.26-4.614" transform="translate(229 -483)"/>
                        <path fill="#009468" d="M183.758 590.076c.19-2.935-2.033-5.468-4.967-5.658-2.938-.193-5.473 2.031-5.663 4.963-.193 2.936 2.033 5.469 4.967 5.658 2.935.193 5.47-2.03 5.663-4.963" transform="translate(229 -483)"/>
                        <path fill="#00324C" d="M49.366 606.674c.316-4.863-3.374-9.068-8.245-9.38-4.867-.32-9.072 3.363-9.388 8.23-.32 4.867 3.37 9.069 8.24 9.388 4.871.316 9.074-3.371 9.393-8.238" transform="translate(229 -483)"/>
                        <path fill="#0070E2" d="M141.884 676.117c.1-1.52-1.052-2.833-2.572-2.929-1.52-.1-2.835 1.054-2.931 2.573-.1 1.516 1.051 2.826 2.571 2.925 1.52.103 2.832-1.05 2.932-2.57" transform="translate(229 -483)"/>
                        <path fill="#9AE5FF" d="M78.94 775.448c.225-3.46-2.4-6.45-5.863-6.679-3.467-.222-6.458 2.4-6.684 5.861-.226 3.46 2.399 6.449 5.865 6.678 3.464.223 6.455-2.4 6.681-5.86" transform="translate(229 -483)"/>
                        <path fill="#009468" d="M179.18 589.777c.027-.409-.283-.761-.689-.784-.409-.027-.762.282-.785.688-.027.409.283.758.689.784.406.027.758-.282.785-.688" transform="translate(229 -483)"/>
                        <path fill="#0070E2" d="M141.54 676.094c.086-1.326-.922-2.473-2.25-2.563-1.33-.086-2.479.92-2.565 2.247-.087 1.333.922 2.477 2.25 2.567 1.33.083 2.478-.925 2.564-2.251" transform="translate(229 -483)"/>
                        <path fill="#FF2E5F" d="M183.066 590.03c.166-2.552-1.767-4.756-4.322-4.92-2.552-.166-4.758 1.766-4.924 4.316-.166 2.553 1.767 4.757 4.322 4.923 2.552.166 4.754-1.765 4.924-4.318M142.727 676.172c.13-1.985-1.374-3.697-3.36-3.826-1.987-.13-3.703 1.373-3.833 3.357-.127 1.985 1.377 3.7 3.364 3.826 1.986.13 3.7-1.373 3.829-3.357" transform="translate(229 -483)"/>
                        <path fill="#009468" d="M208.613 724.854c.114-1.762-1.224-3.288-2.987-3.401-1.77-.12-3.294 1.22-3.41 2.985-.114 1.762 1.224 3.288 2.99 3.4 1.767.117 3.291-1.22 3.407-2.984" transform="translate(229 -483)"/>
                        <path fill="#A6CC00" d="M145.416 676.347c.226-3.467-2.406-6.462-5.876-6.688-3.47-.226-6.464 2.4-6.69 5.87-.23 3.467 2.401 6.46 5.872 6.689 3.47.222 6.467-2.404 6.694-5.871" transform="translate(229 -483)"/>
                        <path fill="#009468" d="M213.26 725.155c.283-4.328-2.998-8.068-7.333-8.35-4.335-.283-8.075 3.002-8.358 7.327-.283 4.331 3.001 8.07 7.333 8.353 4.335.283 8.075-2.998 8.358-7.33" transform="translate(229 -483)"/>
                        <path fill="#D3E779" d="M216.203 879.512c.316-4.837-3.354-9.012-8.191-9.328-4.838-.313-9.02 3.347-9.336 8.184-.313 4.834 3.354 9.009 8.191 9.328 4.838.316 9.02-3.35 9.336-8.184" transform="translate(229 -483)"/>
                        <path fill="#009468" d="M231.857 537.333c.133-2.024-1.404-3.773-3.427-3.906-2.03-.133-3.776 1.403-3.909 3.427-.133 2.025 1.404 3.773 3.427 3.903 2.03.133 3.78-1.4 3.91-3.424" transform="translate(229 -483)"/>
                        <path fill="#FF2E5F" d="M163.584 547.147c.217-3.318-2.302-6.183-5.622-6.403-3.324-.216-6.195 2.3-6.412 5.621-.216 3.318 2.303 6.187 5.626 6.4 3.32.219 6.192-2.298 6.408-5.618" transform="translate(229 -483)"/>
                        <path fill="#009468" d="M160.113 546.923c.093-1.407-.972-2.62-2.38-2.71-1.407-.093-2.618.974-2.71 2.374-.094 1.406.974 2.62 2.378 2.712 1.407.09 2.622-.974 2.712-2.376" transform="translate(229 -483)"/>
                        <path fill="#009468" d="M164.145 547.185c.236-3.63-2.515-6.764-6.148-7-3.63-.24-6.768 2.51-7.007 6.14-.236 3.63 2.515 6.764 6.148 7.004 3.633.236 6.77-2.513 7.007-6.144M183.17 590.037c.17-2.61-1.81-4.863-4.419-5.033-2.611-.17-4.867 1.805-5.037 4.415-.173 2.613 1.807 4.86 4.419 5.033 2.611.17 4.864-1.809 5.037-4.415" transform="translate(229 -483)"/>
                        <path fill="#9AE5FF" d="M164.444 547.205c.25-3.796-2.632-7.074-6.428-7.32-3.796-.246-7.077 2.63-7.323 6.42-.25 3.795 2.628 7.073 6.425 7.323 3.799.246 7.08-2.627 7.326-6.423" transform="translate(229 -483)"/>
                        <path fill="#00324C" d="M234.62 537.512c.229-3.544-2.46-6.609-6.013-6.845-3.55-.23-6.614 2.46-6.847 6.007-.233 3.547 2.459 6.612 6.009 6.845 3.553.229 6.62-2.46 6.85-6.007" transform="translate(229 -483)"/>
                        <path fill="#009468" d="M180.71 589.875c.08-1.25-.868-2.33-2.122-2.414-1.251-.08-2.333.868-2.412 2.118-.084 1.253.865 2.333 2.116 2.417 1.254.08 2.339-.868 2.418-2.121" transform="translate(229 -483)"/>
                        <path fill="#A6CC00" d="M183.053 590.03c.166-2.546-1.763-4.743-4.312-4.91-2.545-.162-4.744 1.766-4.907 4.306-.167 2.546 1.76 4.743 4.305 4.91 2.548.166 4.748-1.762 4.914-4.305" transform="translate(229 -483)"/>
                        <path fill="#0070E2" d="M259.38 786.024c.077-1.203-.835-2.247-2.04-2.323-1.207-.08-2.248.834-2.325 2.037-.08 1.207.832 2.247 2.04 2.324 1.204.083 2.249-.834 2.325-2.038" transform="translate(229 -483)"/>
                        <path fill="#FF2E5F" d="M145.001 757.564c.044-.662-.459-1.234-1.118-1.277-.662-.04-1.234.459-1.277 1.12-.04.659.459 1.23 1.121 1.274.659.043 1.231-.46 1.274-1.117" transform="translate(229 -483)"/>
                        <path fill="#009468" d="M260.303 786.086c.11-1.716-1.188-3.195-2.904-3.305-1.714-.113-3.194 1.184-3.304 2.9-.113 1.714 1.184 3.19 2.9 3.303 1.714.11 3.195-1.186 3.308-2.898" transform="translate(229 -483)"/>
                        <path fill="#7BC0D3" d="M130.262 846.166c.136-2.105-1.457-3.92-3.563-4.056-2.107-.14-3.923 1.456-4.06 3.56-.136 2.101 1.458 3.916 3.564 4.053 2.102.14 3.92-1.453 4.059-3.557" transform="translate(229 -483)"/>
                        <path fill="#0070E2" d="M261.3 786.15c.147-2.266-1.57-4.221-3.832-4.367-2.27-.146-4.226 1.565-4.375 3.833-.147 2.263 1.57 4.218 3.84 4.364 2.261.15 4.218-1.565 4.367-3.83" transform="translate(229 -483)"/>
                        <path fill="#83E7FF" d="M213.22 725.155c.283-4.308-2.984-8.028-7.296-8.31-4.312-.28-8.035 2.982-8.314 7.29-.283 4.308 2.984 8.028 7.296 8.31 4.312.28 8.035-2.981 8.314-7.29" transform="translate(229 -483)"/>
                        <path fill="#7BC0D3" d="M147.295 757.713c.126-1.928-1.334-3.59-3.264-3.717-1.93-.126-3.593 1.333-3.72 3.258-.126 1.928 1.338 3.59 3.264 3.717 1.93.13 3.594-1.333 3.72-3.258" transform="translate(229 -483)"/>
                        <path fill="#0070E2" d="M261.846 786.186c.17-2.566-1.776-4.78-4.348-4.95-2.565-.166-4.784 1.776-4.95 4.342-.17 2.566 1.776 4.784 4.348 4.95 2.565.166 4.784-1.779 4.95-4.342" transform="translate(229 -483)"/>
                        <path fill="#9AE5FF" d="M263.54 786.297c.226-3.5-2.426-6.522-5.93-6.752-3.5-.23-6.524 2.424-6.757 5.924-.226 3.5 2.429 6.522 5.932 6.748 3.5.23 6.525-2.42 6.754-5.92" transform="translate(229 -483)"/>
                    </g>
                </g>
            </g>
        </g>
    </g>
</svg>
