<?xml version="1.0" encoding="utf-8"?>
<!-- Generator: Adobe Illustrator 23.0.1, SVG Export Plug-In . SVG Version: 6.00 Build 0)  -->
<svg version="1.1" id="Layer_1" xmlns="http://www.w3.org/2000/svg" xmlns:xlink="http://www.w3.org/1999/xlink" x="0px" y="0px"
	 viewBox="0 0 490 472" style="enable-background:new 0 0 490 472;" xml:space="preserve">
<style type="text/css">
	.st0{filter:url(#Adobe_OpacityMaskFilter);}
	.st1{fill-rule:evenodd;clip-rule:evenodd;fill:#FFFFFF;}
	.st2{opacity:0.5;mask:url(#sye9xdwfub_1_);}
	.st3{fill-rule:evenodd;clip-rule:evenodd;fill:#C4C4C4;}
	.st4{fill-rule:evenodd;clip-rule:evenodd;fill:#00324C;}
	.st5{fill-rule:evenodd;clip-rule:evenodd;fill:#009468;}
	.st6{fill-rule:evenodd;clip-rule:evenodd;fill:#0070E2;}
	.st7{fill-rule:evenodd;clip-rule:evenodd;fill:#F7B200;}
	.st8{fill-rule:evenodd;clip-rule:evenodd;fill:#7BC0D3;}
	.st9{fill-rule:evenodd;clip-rule:evenodd;fill:#9AE5FF;}
	.st10{fill-rule:evenodd;clip-rule:evenodd;fill:#FF2E5F;}
	.st11{fill-rule:evenodd;clip-rule:evenodd;fill:#A6CC00;}
	.st12{fill-rule:evenodd;clip-rule:evenodd;fill:#8ABFD1;}
	.st13{fill-rule:evenodd;clip-rule:evenodd;fill:#83E7FF;}
</style>
<g transform="rotate(180 245 236)">
	<defs>
		<filter id="Adobe_OpacityMaskFilter" filterUnits="userSpaceOnUse">
			<feColorMatrix  type="matrix" values="1 0 0 0 0  0 1 0 0 0  0 0 1 0 0  0 0 0 1 0"/>
		</filter>
	</defs>
	<mask maskUnits="userSpaceOnUse" id="sye9xdwfub_1_">
		<g class="st0">
			<path class="st1" d="M0,0h490v472H0V0z"/>
		</g>
	</mask>
	<g class="st2">
		<g>
			<path class="st3" d="M447.6,432.1l146.1,29.2l5.2-40.5L447.6,432.1z M594.1,462.3C594.1,462.3,594,462.3,594.1,462.3l-150.2-30
				c-0.2,0-0.4-0.3-0.4-0.5c0-0.2,0.2-0.4,0.5-0.5l155.5-11.7c0.1,0,0.3,0,0.4,0.2c0.1,0.1,0.1,0.3,0.1,0.4l-5.4,41.7
				c0,0.1-0.1,0.3-0.2,0.3C594.3,462.3,594.2,462.3,594.1,462.3L594.1,462.3z M269.8,467l-63.5,139l116.4-69.3L269.8,467z
				 M205.2,607.8c-0.1,0-0.2,0-0.3-0.1c-0.2-0.1-0.2-0.4-0.1-0.6l64.5-141.2c0.1-0.2,0.2-0.3,0.4-0.3c0.2,0,0.3,0.1,0.4,0.2
				l53.8,70.9c0.1,0.1,0.1,0.3,0.1,0.4c0,0.1-0.1,0.3-0.2,0.3l-118.3,70.4C205.4,607.8,205.3,607.8,205.2,607.8L205.2,607.8z"/>
			<path class="st3" d="M270.5,466.3l52.7,69.4l17-86.6L270.5,466.3z M323.4,537.4c-0.1,0-0.3-0.1-0.4-0.2l-53.8-70.9
				c-0.1-0.1-0.1-0.3-0.1-0.5c0.1-0.2,0.2-0.3,0.4-0.3l71.1-17.6c0.2,0,0.3,0,0.5,0.1c0.1,0.1,0.2,0.3,0.1,0.5L323.9,537
				c0,0.2-0.2,0.3-0.4,0.4C323.5,537.4,323.5,537.4,323.4,537.4L323.4,537.4z"/>
			<path class="st3" d="M335.7,368.4l-64.9,96.8l69.5-17.2L335.7,368.4z M269.6,466.5c-0.1,0-0.3-0.1-0.4-0.2
				c-0.1-0.2-0.1-0.4,0-0.6l66.5-99.1c0.1-0.2,0.3-0.2,0.5-0.2c0.2,0.1,0.4,0.2,0.4,0.4l4.7,81.5c0,0.2-0.1,0.5-0.4,0.5l-71.1,17.6
				C269.7,466.5,269.7,466.5,269.6,466.5L269.6,466.5z"/>
			<path class="st3" d="M336.7,368l4.6,79.7l60.2-32.1L336.7,368L336.7,368z M340.8,449c-0.1,0-0.1,0-0.2-0.1
				c-0.1-0.1-0.2-0.2-0.3-0.4l-4.7-81.5c0-0.2,0.1-0.4,0.3-0.5c0.2-0.1,0.4-0.1,0.5,0l66.3,48.7c0.1,0.1,0.2,0.3,0.2,0.4
				c0,0.2-0.1,0.3-0.3,0.4L341,448.9C341,449,340.9,449,340.8,449L340.8,449z M238.9,297.4l51,35.4l83.3-51.3L238.9,297.4
				L238.9,297.4z M289.9,333.9c-0.1,0-0.2,0-0.3-0.1l-52.4-36.3c-0.2-0.1-0.2-0.3-0.2-0.5c0.1-0.2,0.2-0.3,0.4-0.4l137.9-16.4
				c0.2,0,0.5,0.1,0.5,0.3c0.1,0.2,0,0.5-0.2,0.6l-85.5,52.7C290.1,333.9,290,333.9,289.9,333.9z"/>
			<path class="st3" d="M290.3,334.3l-19.8,129.6l65-96.9L290.3,334.3L290.3,334.3z M269.6,466.5c-0.1,0-0.1,0-0.1,0
				c-0.2-0.1-0.3-0.3-0.3-0.5l20.2-132.6c0-0.2,0.1-0.3,0.3-0.4c0.2-0.1,0.3,0,0.5,0.1l46.2,33.5c0.2,0.2,0.3,0.5,0.1,0.7
				l-66.5,99.1C270,466.5,269.8,466.5,269.6,466.5z"/>
			<path class="st3" d="M290.8,333.4l45.1,32.7l38.4-84.2L290.8,333.4L290.8,333.4z M336.1,367.4c-0.1,0-0.2,0-0.3-0.1l-46.2-33.5
				c-0.1-0.1-0.2-0.3-0.2-0.4s0.1-0.3,0.2-0.4l85.5-52.7c0.2-0.1,0.4-0.1,0.6,0c0.2,0.1,0.2,0.4,0.1,0.6l-39.3,86.2
				c-0.1,0.1-0.2,0.2-0.3,0.3C336.2,367.4,336.2,367.4,336.1,367.4L336.1,367.4z"/>
			<path class="st3" d="M336.9,366.5l143.4,10.9l-104.7-95.9L336.9,366.5L336.9,366.5z M481.7,378.5L481.7,378.5l-145.6-11.1
				c-0.2,0-0.3-0.1-0.4-0.2c-0.1-0.1-0.1-0.3,0-0.5l39.3-86.2c0.1-0.1,0.2-0.3,0.4-0.3c0.1,0,0.3,0,0.4,0.1L482,377.6
				c0.2,0.1,0.2,0.4,0.1,0.6C482.1,378.4,481.9,378.5,481.7,378.5L481.7,378.5z"/>
			<path class="st3" d="M337.8,367.6l64.7,47.5l77.3-36.7L337.8,367.6z M402.4,416.1c-0.1,0-0.2,0-0.3-0.1l-66.3-48.7
				c-0.2-0.1-0.2-0.4-0.2-0.6c0.1-0.2,0.3-0.3,0.5-0.3h0l145.6,11.1c0.2,0,0.4,0.2,0.5,0.4c0,0.2-0.1,0.4-0.3,0.5l-79.3,37.6
				C402.5,416.1,402.5,416.1,402.4,416.1L402.4,416.1z"/>
			<path class="st3" d="M403.7,415.6l40.1,15.6l36.4-52L403.7,415.6L403.7,415.6z M444,432.3c0,0-0.1,0-0.1,0l-41.6-16.2
				c-0.2-0.1-0.3-0.2-0.3-0.4c0-0.2,0.1-0.4,0.3-0.5l79.3-37.6c0.2-0.1,0.4,0,0.6,0.1c0.1,0.2,0.2,0.4,0,0.6l-37.7,53.8
				C444.3,432.3,444.1,432.3,444,432.3L444,432.3z"/>
			<path class="st3" d="M481.9,378.6L445,431.3l152.1-11.4L481.9,378.6z M444,432.3c-0.2,0-0.3-0.1-0.4-0.3c-0.1-0.2-0.1-0.4,0-0.5
				l37.7-53.8c0.1-0.2,0.4-0.3,0.6-0.2l117.8,42.2c0.2,0.1,0.4,0.3,0.3,0.5c0,0.2-0.2,0.4-0.4,0.4L444,432.3
				C444,432.3,444,432.3,444,432.3L444,432.3z M405.6,569.8l236.5,89l-48.3-196.2L405.6,569.8z M642.7,660.1c0,0-0.1,0-0.1,0
				l-238.3-89.7c-0.2-0.1-0.3-0.2-0.3-0.4c0-0.2,0.1-0.4,0.3-0.5l189.7-108.1c0.1-0.1,0.3-0.1,0.4,0c0.1,0.1,0.3,0.2,0.3,0.3
				l48.7,197.8c0,0.2,0,0.4-0.2,0.5C643,660,642.9,660.1,642.7,660.1L642.7,660.1z"/>
			<path class="st3" d="M483,378l116.1,41.6l48.5-114.1L483,378L483,378z M599.4,420.7c0,0-0.1,0-0.1,0l-117.8-42.2
				c-0.2-0.1-0.3-0.2-0.3-0.4c0-0.2,0.1-0.4,0.3-0.5L648.4,304c0.2-0.1,0.4,0,0.5,0.1c0.1,0.1,0.2,0.4,0.1,0.5l-49.1,115.7
				C599.8,420.6,599.6,420.7,599.4,420.7L599.4,420.7z M354.3,238.4l-114.1,57.9l134.4-16L354.3,238.4L354.3,238.4z M237.5,297.6
				c-0.2,0-0.4-0.2-0.4-0.3c-0.1-0.2,0-0.5,0.3-0.6l117-59.3c0.1-0.1,0.3-0.1,0.4,0c0.1,0,0.2,0.1,0.3,0.3l20.9,43
				c0.1,0.1,0.1,0.3,0,0.5c-0.1,0.1-0.2,0.2-0.4,0.3L237.5,297.6C237.6,297.6,237.5,297.6,237.5,297.6z"/>
			<path class="st3" d="M355.3,238.2l20.3,41.7l48.3-51.1L355.3,238.2L355.3,238.2z M375.4,281.2
				C375.4,281.2,375.4,281.2,375.4,281.2c-0.2,0-0.3-0.1-0.4-0.3l-20.9-43c-0.1-0.1-0.1-0.3,0-0.5c0.1-0.1,0.2-0.2,0.4-0.3l70.6-9.7
				c0.2,0,0.4,0.1,0.5,0.3c0.1,0.2,0.1,0.4-0.1,0.6l-49.8,52.6C375.7,281.2,375.6,281.2,375.4,281.2L375.4,281.2z"/>
			<path class="st3" d="M425.4,228.6l-48.2,51l137.2-46L425.4,228.6L425.4,228.6z M375.4,281.2c-0.2,0-0.3-0.1-0.4-0.2
				c-0.1-0.2-0.1-0.4,0.1-0.6l49.8-52.6c0.1-0.1,0.2-0.2,0.4-0.2l91.8,5.2h0c0.2,0,0.4,0.2,0.5,0.4c0,0.2-0.1,0.5-0.3,0.5
				l-141.5,47.4C375.5,281.2,375.5,281.2,375.4,281.2L375.4,281.2z"/>
			<path class="st3" d="M376.4,280.9l105,96.2l34.8-143L376.4,280.9L376.4,280.9z M481.7,378.5c-0.1,0-0.2,0-0.3-0.1l-106.3-97.3
				c-0.1-0.1-0.2-0.3-0.1-0.5c0-0.2,0.2-0.3,0.3-0.4l141.5-47.4c0.2-0.1,0.4,0,0.5,0.1c0.1,0.1,0.2,0.3,0.1,0.5l-35.2,144.7
				c0,0.2-0.2,0.3-0.3,0.4C481.8,378.5,481.7,378.5,481.7,378.5z"/>
			<path class="st3" d="M540.6,193.3L428,227.8l88.7,5L540.6,193.3L540.6,193.3z M425.2,228.6c-0.2,0-0.4-0.2-0.5-0.4
				c0-0.2,0.1-0.5,0.4-0.5L541.6,192c0.2-0.1,0.4,0,0.5,0.2c0.1,0.2,0.1,0.4,0,0.6l-24.8,40.8c-0.1,0.2-0.3,0.2-0.5,0.2L425.2,228.6
				L425.2,228.6L425.2,228.6z"/>
			<path class="st3" d="M517.3,234l-34.9,143.1l165-72.7L517.3,234z M481.7,378.5c-0.1,0-0.2,0-0.3-0.1c-0.1-0.1-0.2-0.3-0.2-0.5
				l35.2-144.7c0-0.2,0.1-0.3,0.3-0.3c0.1-0.1,0.3-0.1,0.4,0L648.8,304c0.2,0.1,0.3,0.3,0.3,0.5c0,0.2-0.1,0.4-0.3,0.4l-166.9,73.5
				C481.8,378.5,481.7,378.5,481.7,378.5L481.7,378.5z M341.2,449.1l-17.1,87l128.6-59L341.2,449.1z M323.4,537.4
				c-0.1,0-0.2,0-0.3-0.1c-0.1-0.1-0.2-0.3-0.2-0.5l17.4-88.4c0-0.1,0.1-0.2,0.2-0.3c0.1-0.1,0.3-0.1,0.4-0.1l113.4,28.4
				c0.2,0,0.4,0.2,0.4,0.4c0,0.2-0.1,0.4-0.3,0.5l-130.8,60C323.6,537.4,323.5,537.4,323.4,537.4z"/>
			<path class="st3" d="M342.2,448.3L452.8,476l-50.5-59.8L342.2,448.3L342.2,448.3z M454.2,477.4
				C454.1,477.4,454.1,477.4,454.2,477.4L340.7,449c-0.2,0-0.3-0.2-0.4-0.4c0-0.2,0.1-0.4,0.3-0.5l61.6-32.8
				c0.2-0.1,0.5-0.1,0.6,0.1l51.8,61.2c0.1,0.2,0.2,0.4,0,0.6C454.5,477.3,454.3,477.4,454.2,477.4z"/>
			<path class="st3" d="M404,416.8l49.2,58.2l-9.7-42.8L404,416.8z M454.2,477.4c-0.1,0-0.3-0.1-0.3-0.2L402,416
				c-0.1-0.2-0.2-0.4,0-0.6c0.1-0.2,0.4-0.3,0.6-0.2l41.6,16.2c0.2,0.1,0.3,0.2,0.3,0.3l10.2,45c0,0.2-0.1,0.5-0.3,0.6
				C454.3,477.4,454.2,477.4,454.2,477.4z"/>
			<path class="st3" d="M454.5,477.3l-48.8,91.3l186.1-106.1L454.5,477.3L454.5,477.3z M404.4,570.4c-0.1,0-0.2-0.1-0.3-0.1
				c-0.2-0.2-0.2-0.4-0.1-0.6l49.8-93.1c0.1-0.1,0.2-0.2,0.4-0.3l139.9-15.1c0.3,0,0.5,0.1,0.5,0.3c0.1,0.2,0,0.5-0.2,0.6
				L404.7,570.4C404.6,570.4,404.5,570.4,404.4,570.4z"/>
			<path class="st3" d="M444.6,432.5l9.9,43.9l136.3-14.7L444.6,432.5L444.6,432.5z M454.2,477.4c-0.2,0-0.4-0.2-0.4-0.4l-10.2-45.1
				c0-0.2,0-0.3,0.1-0.5c0.1-0.1,0.3-0.2,0.5-0.1l150.1,30c0.2,0,0.4,0.3,0.4,0.5c0,0.2-0.2,0.4-0.4,0.5L454.2,477.4
				C454.2,477.4,454.2,477.4,454.2,477.4L454.2,477.4z"/>
			<path class="st4" d="M452,432.4c0.3-4.4-3.1-8.3-7.5-8.6c-4.4-0.3-8.3,3.1-8.6,7.5c-0.3,4.4,3.1,8.3,7.5,8.6
				C447.9,440.2,451.7,436.8,452,432.4"/>
			<path class="st5" d="M270.5,466.1c0-0.5-0.3-0.9-0.8-0.9c-0.5,0-0.9,0.3-0.9,0.8c0,0.5,0.3,0.9,0.8,0.9
				C270.1,466.9,270.5,466.6,270.5,466.1"/>
			<path class="st6" d="M273,466.3c0.1-1.8-1.3-3.4-3.1-3.5c-1.8-0.1-3.4,1.3-3.5,3.1c-0.1,1.8,1.3,3.4,3.1,3.5
				C271.3,469.5,272.9,468.1,273,466.3 M343.2,448.6c0.1-1.3-0.9-2.4-2.2-2.5c-1.3-0.1-2.4,0.9-2.5,2.2c-0.1,1.3,0.9,2.4,2.2,2.5
				C342,450.9,343.1,449.9,343.2,448.6"/>
			<path class="st7" d="M339.9,367.2c0.1-2.1-1.4-3.8-3.5-4c-2.1-0.1-3.9,1.4-4,3.5c-0.1,2.1,1.4,3.8,3.5,4
				C338,370.8,339.7,369.2,339.9,367.2"/>
			<path class="st6" d="M273.6,466.3c0.1-2.2-1.5-4-3.6-4.2c-2.2-0.1-4,1.5-4.2,3.7c-0.1,2.2,1.5,4,3.7,4.2
				C271.6,470.1,273.4,468.4,273.6,466.3 M407.9,416c0.2-3-2.1-5.6-5.1-5.8c-3-0.2-5.6,2.1-5.8,5.1c-0.2,3,2.1,5.6,5.1,5.8
				C405.1,421.3,407.7,419,407.9,416"/>
			<path class="st5" d="M340.1,367.2c0.1-2.2-1.5-4.1-3.7-4.2c-2.2-0.1-4.1,1.5-4.2,3.7s1.5,4.1,3.7,4.2
				C338.1,371,340,369.4,340.1,367.2"/>
			<path class="st8" d="M294.8,333.7c0.2-2.7-1.9-5.1-4.6-5.3c-2.7-0.2-5.1,1.9-5.3,4.6c-0.2,2.7,1.9,5.1,4.6,5.3
				C292.3,338.5,294.7,336.5,294.8,333.7"/>
			<path class="st5" d="M380.8,281.1c0.2-2.9-2-5.5-5-5.7c-2.9-0.2-5.5,2-5.7,5c-0.2,2.9,2,5.5,5,5.7
				C378,286.2,380.6,284,380.8,281.1"/>
			<path class="st4" d="M246.4,297.7c0.3-4.9-3.4-9.1-8.2-9.4c-4.9-0.3-9.1,3.4-9.4,8.2c-0.3,4.9,3.4,9.1,8.2,9.4
				C241.8,306.2,246,302.5,246.4,297.7"/>
			<path class="st6" d="M338.9,367.1c0.1-1.5-1.1-2.8-2.6-2.9c-1.5-0.1-2.8,1.1-2.9,2.6c-0.1,1.5,1.1,2.8,2.6,2.9
				C337.5,369.8,338.8,368.6,338.9,367.1"/>
			<path class="st9" d="M275.9,466.4c0.2-3.5-2.4-6.5-5.9-6.7c-3.5-0.2-6.5,2.4-6.7,5.9c-0.2,3.5,2.4,6.4,5.9,6.7
				C272.7,472.5,275.7,469.9,275.9,466.4"/>
			<path class="st5" d="M376.2,280.8c0-0.4-0.3-0.8-0.7-0.8c-0.4,0-0.8,0.3-0.8,0.7c0,0.4,0.3,0.8,0.7,0.8
				C375.8,281.5,376.2,281.2,376.2,280.8"/>
			<path class="st6" d="M338.5,367.1c0.1-1.3-0.9-2.5-2.3-2.6c-1.3-0.1-2.5,0.9-2.6,2.2c-0.1,1.3,0.9,2.5,2.3,2.6
				C337.3,369.4,338.5,368.4,338.5,367.1"/>
			<path class="st5" d="M491.1,378.6c0.3-5.2-3.6-9.6-8.7-10c-5.2-0.3-9.6,3.6-10,8.7c-0.3,5.2,3.6,9.6,8.7,10
				C486.3,387.7,490.7,383.8,491.1,378.6"/>
			<path class="st10" d="M380.1,281c0.2-2.6-1.8-4.8-4.3-4.9c-2.6-0.2-4.8,1.8-4.9,4.3c-0.2,2.6,1.8,4.8,4.3,4.9
				C377.7,285.5,379.9,283.6,380.1,281 M339.7,367.2c0.1-2-1.4-3.7-3.4-3.8c-2-0.1-3.7,1.4-3.8,3.4c-0.1,2,1.4,3.7,3.4,3.8
				C337.9,370.7,339.6,369.2,339.7,367.2"/>
			<path class="st5" d="M483.9,378.2c0.1-1.2-0.8-2.2-2-2.3c-1.2-0.1-2.2,0.8-2.3,2c-0.1,1.2,0.8,2.2,2,2.3
				C482.8,380.2,483.8,379.3,483.9,378.2 M405.6,415.9c0.1-1.8-1.2-3.3-3-3.4c-1.8-0.1-3.3,1.2-3.4,3c-0.1,1.8,1.2,3.3,3,3.4
				C404,419,405.5,417.6,405.6,415.9"/>
			<path class="st11" d="M342.4,367.3c0.2-3.5-2.4-6.5-5.9-6.7c-3.5-0.2-6.5,2.4-6.7,5.9c-0.2,3.5,2.4,6.5,5.9,6.7
				C339.2,373.4,342.2,370.8,342.4,367.3"/>
			<path class="st10" d="M483.5,378.1c0.1-1-0.7-1.8-1.7-1.9c-1-0.1-1.8,0.7-1.9,1.7c-0.1,1,0.7,1.8,1.7,1.9
				C482.6,379.9,483.4,379.1,483.5,378.1"/>
			<path class="st5" d="M410.3,416.2c0.3-4.3-3-8.1-7.3-8.3c-4.3-0.3-8.1,3-8.4,7.3c-0.3,4.3,3,8.1,7.3,8.4
				C406.2,423.8,410,420.5,410.3,416.2"/>
			<path class="st6" d="M482.4,378.1c0-0.4-0.3-0.7-0.6-0.7c-0.4,0-0.7,0.3-0.7,0.6c0,0.4,0.3,0.7,0.6,0.7
				C482,378.7,482.4,378.4,482.4,378.1"/>
			<path class="st5" d="M428.9,228.3c0.1-2-1.4-3.8-3.4-3.9c-2-0.1-3.8,1.4-3.9,3.4c-0.1,2,1.4,3.8,3.4,3.9
				C427,231.9,428.7,230.4,428.9,228.3"/>
			<path class="st6" d="M488.4,378.5c0.2-3.7-2.5-6.8-6.2-7.1c-3.7-0.2-6.9,2.5-7.1,6.2c-0.2,3.7,2.5,6.8,6.2,7.1
				C484.9,384.9,488.1,382.1,488.4,378.5"/>
			<path class="st10" d="M360.6,238.1c0.2-3.3-2.3-6.2-5.6-6.4c-3.3-0.2-6.2,2.3-6.4,5.6c-0.2,3.3,2.3,6.2,5.6,6.4
				C357.5,244,360.4,241.5,360.6,238.1"/>
			<path class="st5" d="M357.1,237.9c0.1-1.4-1-2.6-2.4-2.7c-1.4-0.1-2.6,1-2.7,2.4c-0.1,1.4,1,2.6,2.4,2.7
				C355.8,240.4,357,239.3,357.1,237.9"/>
			<path class="st5" d="M361.1,238.2c0.2-3.6-2.5-6.8-6.1-7c-3.6-0.2-6.8,2.5-7,6.1c-0.2,3.6,2.5,6.8,6.1,7
				C357.8,244.6,360.9,241.8,361.1,238.2 M380.2,281c0.2-2.6-1.8-4.9-4.4-5c-2.6-0.2-4.9,1.8-5,4.4c-0.2,2.6,1.8,4.9,4.4,5
				C377.7,285.6,380,283.6,380.2,281"/>
			<path class="st9" d="M361.4,238.2c0.3-3.8-2.6-7.1-6.4-7.3c-3.8-0.2-7.1,2.6-7.3,6.4c-0.3,3.8,2.6,7.1,6.4,7.3
				C357.9,244.9,361.2,242,361.4,238.2"/>
			<path class="st4" d="M431.6,228.5c0.2-3.5-2.5-6.6-6-6.8c-3.5-0.2-6.6,2.5-6.8,6c-0.2,3.5,2.5,6.6,6,6.8
				C428.3,234.7,431.4,232.1,431.6,228.5"/>
			<path class="st5" d="M377.7,280.9c0.1-1.3-0.9-2.3-2.1-2.4c-1.3-0.1-2.3,0.9-2.4,2.1c-0.1,1.3,0.9,2.3,2.1,2.4
				C376.5,283.1,377.6,282.1,377.7,280.9"/>
			<path class="st11" d="M380.1,281c0.2-2.5-1.8-4.7-4.3-4.9c-2.5-0.2-4.7,1.8-4.9,4.3c-0.2,2.5,1.8,4.7,4.3,4.9
				C377.7,285.5,379.9,283.6,380.1,281"/>
			<path class="st7" d="M484.6,378.2c0.1-1.6-1.1-3-2.7-3.1c-1.6-0.1-3,1.1-3.1,2.7c-0.1,1.6,1.1,3,2.7,3.1
				C483.1,381,484.5,379.8,484.6,378.2"/>
			<path class="st12" d="M491.3,378.6c0.3-5.3-3.7-9.8-8.9-10.2c-5.3-0.3-9.8,3.7-10.2,8.9c-0.3,5.3,3.6,9.8,8.9,10.2
				C486.4,387.9,490.9,383.9,491.3,378.6"/>
			<path class="st10" d="M342,448.6c0-0.7-0.5-1.2-1.1-1.3c-0.7,0-1.2,0.5-1.3,1.1c0,0.7,0.5,1.2,1.1,1.3
				C341.4,449.7,342,449.2,342,448.6"/>
			<path class="st13" d="M410.2,416.2c0.3-4.3-3-8-7.3-8.3c-4.3-0.3-8,3-8.3,7.3c-0.3,4.3,3,8,7.3,8.3
				C406.2,423.7,409.9,420.5,410.2,416.2"/>
			<path class="st8" d="M344.3,448.7c0.1-1.9-1.3-3.6-3.3-3.7c-1.9-0.1-3.6,1.3-3.7,3.3c-0.1,1.9,1.3,3.6,3.3,3.7
				C342.5,452.1,344.2,450.6,344.3,448.7"/>
			<path class="st9" d="M460.5,477.3c0.2-3.5-2.4-6.5-5.9-6.8c-3.5-0.2-6.5,2.4-6.8,5.9c-0.2,3.5,2.4,6.5,5.9,6.7
				C457.3,483.4,460.3,480.8,460.5,477.3"/>
		</g>
	</g>
</g>
</svg>
