<?xml version="1.0" encoding="UTF-8" standalone="no"?>
<svg
   xmlns:dc="http://purl.org/dc/elements/1.1/"
   xmlns:cc="http://creativecommons.org/ns#"
   xmlns:rdf="http://www.w3.org/1999/02/22-rdf-syntax-ns#"
   xmlns:svg="http://www.w3.org/2000/svg"
   xmlns="http://www.w3.org/2000/svg"
   xmlns:xlink="http://www.w3.org/1999/xlink"
   xmlns:sodipodi="http://sodipodi.sourceforge.net/DTD/sodipodi-0.dtd"
   xmlns:inkscape="http://www.inkscape.org/namespaces/inkscape"
   version="1.1"
   id="Layer_1"
   x="0px"
   y="0px"
   viewBox="0 0 490 472"
   style="enable-background:new 0 0 490 472;"
   xml:space="preserve"
   sodipodi:docname="dots5-left-down.svg"
   inkscape:version="1.0.2 (1.0.2+r75+1)"><metadata
   id="metadata1247"><rdf:RDF><cc:Work
       rdf:about=""><dc:format>image/svg+xml</dc:format><dc:type
         rdf:resource="http://purl.org/dc/dcmitype/StillImage" /><dc:title></dc:title></cc:Work></rdf:RDF></metadata><defs
   id="defs1245" /><sodipodi:namedview
   pagecolor="#ffffff"
   bordercolor="#666666"
   borderopacity="1"
   objecttolerance="10"
   gridtolerance="10"
   guidetolerance="10"
   inkscape:pageopacity="0"
   inkscape:pageshadow="2"
   inkscape:window-width="1866"
   inkscape:window-height="1043"
   id="namedview1243"
   showgrid="false"
   inkscape:zoom="1.8262712"
   inkscape:cx="245"
   inkscape:cy="236"
   inkscape:window-x="1974"
   inkscape:window-y="0"
   inkscape:window-maximized="1"
   inkscape:current-layer="Layer_1" />
<style
   type="text/css"
   id="style1094">
	.st0{clip-path:url(#SVGID_2_);}
	.st1{clip-path:url(#SVGID_4_);}
	.st2{opacity:0.5;}
	.st3{fill-rule:evenodd;clip-rule:evenodd;fill:#C4C4C4;}
	.st4{fill-rule:evenodd;clip-rule:evenodd;fill:#FF2E5F;}
	.st5{fill-rule:evenodd;clip-rule:evenodd;fill:#0097E5;}
	.st6{fill-rule:evenodd;clip-rule:evenodd;fill:#AEC935;}
	.st7{fill-rule:evenodd;clip-rule:evenodd;fill:#009468;}
	.st8{fill-rule:evenodd;clip-rule:evenodd;fill:#A6CC00;}
	.st9{fill-rule:evenodd;clip-rule:evenodd;fill:#0070E2;}
	.st10{fill-rule:evenodd;clip-rule:evenodd;fill:#9AE5FF;}
	.st11{fill-rule:evenodd;clip-rule:evenodd;fill:#00324C;}
	.st12{fill-rule:evenodd;clip-rule:evenodd;fill:#F7B200;}
	.st13{fill-rule:evenodd;clip-rule:evenodd;fill:#83E7FF;}
	.st14{fill-rule:evenodd;clip-rule:evenodd;fill:#00324A;}
	.st15{fill-rule:evenodd;clip-rule:evenodd;fill:#CCF2FF;}
	.st16{fill-rule:evenodd;clip-rule:evenodd;fill:#1A95D9;}
</style>
<g
   id="g1240"
   transform="matrix(-1,0,0,1,492,0)">
	<defs
   id="defs1097">
		<rect
   id="SVGID_1_"
   width="490"
   height="472"
   x="0"
   y="0" />
	</defs>
	<clipPath
   id="SVGID_2_">
		<use
   xlink:href="#SVGID_1_"
   style="overflow:visible"
   id="use1099"
   x="0"
   y="0"
   width="100%"
   height="100%" />
	</clipPath>
	<g
   class="st0"
   clip-path="url(#SVGID_2_)"
   id="g1238">
		<g
   id="g1236">
			<defs
   id="defs1103">
				<rect
   id="SVGID_3_"
   width="490"
   height="472"
   x="0"
   y="0" />
			</defs>
			<clipPath
   id="SVGID_4_">
				<use
   xlink:href="#SVGID_3_"
   style="overflow:visible"
   id="use1105"
   x="0"
   y="0"
   width="100%"
   height="100%" />
			</clipPath>
			<g
   class="st1"
   clip-path="url(#SVGID_4_)"
   id="g1234">
				<g
   id="g1232">
					<g
   transform="matrix(1,0,0,-1,0,472)"
   id="g1230">
						<g
   class="st2"
   id="g1228">
							<g
   id="g1226">
								<path
   class="st3"
   d="m 381.3,163 2.7,-18.9 93.7,24.3 z m 2.3,-20.1 c -0.1,0 -0.2,0 -0.2,0.1 -0.1,0.1 -0.2,0.2 -0.2,0.3 l -2.9,20 c 0,0.1 0,0.3 0.1,0.4 0.1,0.1 0.2,0.2 0.4,0.2 l 101.9,5.6 c 0.3,0 0.5,-0.2 0.5,-0.4 0,-0.3 -0.1,-0.5 -0.4,-0.6 l -99,-25.6 c -0.1,0 -0.1,0 -0.2,0 z M 3.8,-12.4 l 51,-35.4 83.3,51.3 z m 51,-36.5 c -0.1,0 -0.2,0 -0.3,0.1 L 2.2,-12.5 C 2,-12.3 2,-12.1 2,-11.9 c 0,0.2 0.2,0.3 0.4,0.4 L 140.3,4.8 c 0.2,0 0.5,-0.1 0.5,-0.3 0.1,-0.2 0,-0.5 -0.2,-0.6 L 55.1,-48.8 c -0.1,0 -0.2,-0.1 -0.3,-0.1 z"
   id="path1108" />
								<path
   class="st3"
   d="M 55.7,-48.4 100.8,-81.1 139.3,3 Z m 45.3,-34 c -0.1,0 -0.2,0 -0.3,0.1 l -46.1,33.5 c -0.1,0.1 -0.2,0.3 -0.2,0.4 0,0.2 0.1,0.3 0.2,0.4 l 85.5,52.7 c 0.2,0.1 0.4,0.1 0.6,0 0.2,-0.1 0.2,-0.4 0.1,-0.6 l -39.3,-86.2 c -0.1,-0.1 -0.2,-0.2 -0.3,-0.3 0,0 -0.1,0 -0.2,0 z"
   id="path1110" />
								<path
   class="st3"
   d="M 101.8,-81.4 245.2,-92.3 140.6,3.5 Z m 144.8,-12.1 v 0 L 101,-82.4 c -0.2,0 -0.3,0.1 -0.4,0.2 -0.1,0.1 -0.1,0.3 0,0.5 l 39.3,86.2 c 0.1,0.1 0.2,0.3 0.4,0.3 0.1,0 0.3,0 0.4,-0.1 L 247,-92.6 c 0.2,-0.1 0.2,-0.4 0.1,-0.6 -0.1,-0.2 -0.3,-0.3 -0.5,-0.3 z m 237,262.6 162.3,-76.7 -73.9,141 z M 647,90.9 c -0.1,0 -0.1,0 -0.2,0 l -164.4,77.7 c -0.2,0.1 -0.3,0.2 -0.3,0.4 0,0.2 0.1,0.3 0.2,0.4 l 89.5,65.1 c 0.1,0.1 0.3,0.1 0.4,0.1 0.1,0 0.3,-0.1 0.3,-0.3 L 647.4,91.5 c 0.1,-0.2 0.1,-0.4 -0.1,-0.6 0,0 -0.1,0 -0.3,0 z m -260.5,50.7 41.7,-35.5 26.1,6.1 z M 428,105.2 c -0.1,0 -0.2,0 -0.3,0.1 L 383.3,143 c -0.2,0.2 -0.2,0.4 -0.1,0.6 0.1,0.2 0.4,0.3 0.6,0.2 L 456,112.5 c 0.2,-0.1 0.3,-0.3 0.3,-0.5 0,-0.2 -0.2,-0.4 -0.4,-0.4 l -27.8,-6.5 c 0,0.1 -0.1,0 -0.1,0.1 z"
   id="path1112" />
								<path
   class="st3"
   d="m 385.2,143.3 70.4,-30.5 26.2,55.5 z m 70.6,-31.6 c -0.1,0 -0.1,0 -0.2,0 L 383.5,143 c -0.2,0.1 -0.3,0.3 -0.3,0.5 0,0.2 0.2,0.4 0.4,0.4 l 99,25.6 c 0.2,0 0.4,0 0.5,-0.2 0.1,-0.1 0.1,-0.4 0.1,-0.5 l -26.9,-56.9 c -0.1,-0.1 -0.3,-0.3 -0.5,-0.2 z"
   id="path1114" />
								<path
   class="st3"
   d="m 428.5,105.2 -13.9,-119.7 40.5,126 z m -15,-125.1 v 0 c -0.3,0.1 -0.5,0.3 -0.5,0.6 l 14.5,125.1 c 0,0.2 0.2,0.4 0.4,0.4 l 27.8,6.5 c 0.2,0 0.4,0 0.5,-0.1 0.1,-0.1 0.2,-0.3 0.1,-0.5 L 414,-19.6 c -0.1,-0.2 -0.3,-0.3 -0.5,-0.3 z"
   id="path1116" />
								<path
   class="st3"
   d="M 456.6,112.6 644.2,92.2 482.9,168.4 Z M 647,90.9 v 0 l -191.3,20.8 c -0.2,0 -0.3,0.1 -0.4,0.3 -0.1,0.1 -0.1,0.3 0,0.5 l 26.9,56.9 c 0.1,0.1 0.2,0.2 0.3,0.3 0.1,0 0.3,0 0.4,0 L 647.3,92 c 0.2,-0.1 0.3,-0.4 0.3,-0.6 -0.1,-0.4 -0.3,-0.5 -0.6,-0.5 z"
   id="path1118" />
								<path
   class="st3"
   d="m 472.7,321.2 10.4,-151.2 88.3,64.2 z m 10,-152.6 c -0.1,0 -0.1,0 -0.2,0 -0.2,0.1 -0.3,0.2 -0.3,0.4 l -10.5,153.3 c 0,0.2 0.1,0.4 0.3,0.5 0.2,0.1 0.4,0.1 0.5,-0.1 l 100,-88.2 c 0.1,-0.1 0.2,-0.2 0.2,-0.4 0,-0.1 -0.1,-0.3 -0.2,-0.4 l -89.5,-65 c -0.1,-0.1 -0.2,-0.1 -0.3,-0.1 z"
   id="path1120" />
								<path
   class="st3"
   d="m 473.1,322.1 98.5,-86.8 -6,121.8 z m 99.1,-88.4 c -0.1,0 -0.2,0 -0.3,0.1 l -100,88.2 c -0.1,0.1 -0.2,0.3 -0.2,0.5 0,0.2 0.1,0.3 0.3,0.4 l 93.9,35.5 c 0.1,0.1 0.3,0 0.4,0 0.1,-0.1 0.2,-0.2 0.2,-0.4 l 6.1,-123.6 c 0,-0.2 -0.1,-0.4 -0.3,-0.5 0,-0.2 -0.1,-0.2 -0.1,-0.2 z M 456.1,111.3 414.2,-18.8 593.8,3.6 Z M 413.5,-19.9 c -0.1,0 -0.3,0.1 -0.3,0.2 -0.1,0.1 -0.1,0.3 -0.1,0.5 l 42.3,131.6 c 0,0.2 0.2,0.3 0.3,0.3 0.2,0 0.3,0 0.5,-0.1 L 595.3,3.6 c 0.2,-0.1 0.2,-0.3 0.2,-0.5 -0.1,-0.2 -0.2,-0.3 -0.4,-0.4 L 413.5,-19.9 c 0.1,0 0,0 0,0 z"
   id="path1122" />
								<path
   class="st3"
   d="m 415.1,-19.7 101.4,-56.9 77.2,79.2 z m 101.5,-58.1 c -0.1,0 -0.1,0 -0.2,0.1 l -103,57.8 c -0.2,0.1 -0.3,0.3 -0.2,0.5 0,0.2 0.2,0.4 0.4,0.4 L 594.9,3.7 c 0.2,0 0.4,-0.1 0.5,-0.3 0.1,-0.2 0.1,-0.4 -0.1,-0.6 l -78.4,-80.5 c -0.1,0 -0.2,-0.1 -0.3,-0.1 z"
   id="path1124" />
								<path
   class="st3"
   d="M 457.5,111.5 594.9,3.9 l 51.4,87 z M 595,2.7 c -0.1,0 -0.2,0 -0.3,0.1 l -139.2,109 c -0.2,0.1 -0.2,0.4 -0.2,0.6 0.1,0.2 0.3,0.3 0.5,0.3 L 647,91.9 c 0.2,0 0.3,-0.1 0.4,-0.3 0.1,-0.1 0.1,-0.3 0,-0.5 L 595.4,3 C 595.3,2.9 595.2,2.8 595.1,2.8 595,2.7 595,2.7 595,2.7 Z M 119.3,46.6 5.2,-11.2 139.6,4.8 Z M 2.5,-12.5 c -0.2,0 -0.4,0.2 -0.4,0.3 -0.1,0.2 0,0.5 0.3,0.6 l 117,59.3 c 0.1,0.1 0.3,0.1 0.4,0 0.1,0 0.2,-0.1 0.3,-0.3 L 141,4.4 c 0.1,-0.1 0.1,-0.3 0,-0.5 -0.1,-0.1 -0.2,-0.2 -0.4,-0.3 z"
   id="path1126" />
								<path
   class="st3"
   d="M 120.3,46.9 140.6,5.2 188.9,56.3 Z M 140.4,3.8 c -0.1,0 -0.1,0 0,0 -0.2,0 -0.3,0.1 -0.4,0.3 l -20.9,43 c -0.1,0.1 -0.1,0.3 0,0.5 0.1,0.1 0.2,0.2 0.4,0.3 l 70.6,9.7 c 0.2,0 0.4,-0.1 0.5,-0.3 0.1,-0.2 0.1,-0.4 -0.1,-0.6 L 140.7,4 C 140.6,3.9 140.5,3.8 140.4,3.8 Z M 354.7,272 h -0.1 c -0.3,0.1 -0.4,0.4 -0.3,0.6 l 27,83.1 c 0.1,0.3 0.4,0.4 0.6,0.3 0.3,-0.1 0.4,-0.4 0.3,-0.6 l -27,-83 c -0.1,-0.3 -0.3,-0.4 -0.5,-0.4"
   id="path1128" />
								<path
   class="st3"
   d="m 382,354.9 -26.5,-81.5 115.3,48.9 z M 354.7,272 c -0.1,0 -0.2,0 -0.3,0.1 -0.1,0.1 -0.2,0.3 -0.1,0.5 l 27,83.1 c 0,0.1 0.1,0.2 0.3,0.3 0.1,0.1 0.3,0.1 0.4,0 l 90.4,-33.2 c 0.2,-0.1 0.3,-0.3 0.3,-0.5 0,-0.2 -0.1,-0.4 -0.3,-0.5 L 355,272 c -0.2,0 -0.2,0 -0.3,0 z"
   id="path1130" />
								<path
   class="st3"
   d="m 355.5,271.2 25.6,-107.3 100.2,5.5 z m 25.2,-108.3 c -0.2,0 -0.4,0.2 -0.4,0.4 l -26,109.1 c 0,0.2 0,0.4 0.2,0.5 0.2,0.1 0.4,0.1 0.6,0 l 128,-103.5 c 0.2,-0.1 0.2,-0.3 0.2,-0.5 -0.1,-0.2 -0.2,-0.3 -0.4,-0.3 z"
   id="path1132" />
								<path
   class="st3"
   d="M 355.7,272.4 482.1,170.2 471.7,321.6 Z m 127,-103.8 c -0.1,0 -0.2,0 -0.3,0.1 l -128,103.5 c -0.1,0.1 -0.2,0.3 -0.2,0.5 0,0.2 0.1,0.3 0.3,0.4 L 472,322.8 c 0.1,0.1 0.3,0 0.5,0 0.1,-0.1 0.2,-0.2 0.2,-0.4 l 10.5,-153.3 c 0,-0.2 -0.1,-0.4 -0.3,-0.5 -0.1,0 -0.2,0 -0.2,0 z M 380.4,162.4 311,96 383.1,143.7 Z M 306.6,92.1 c -0.1,0 -0.3,0.1 -0.4,0.2 -0.2,0.2 -0.1,0.5 0,0.7 l 74.1,70.9 c 0.1,0.1 0.3,0.2 0.5,0.1 0.2,-0.1 0.3,-0.2 0.3,-0.4 l 2.9,-20 c 0,-0.2 -0.1,-0.4 -0.2,-0.5 l -77,-50.9 c 0,-0.1 -0.1,-0.1 -0.2,-0.1 z"
   id="path1134" />
								<path
   class="st3"
   d="m 383.6,142.8 -75,-49.5 118.2,12.7 z m -77,-50.7 c -0.2,0 -0.4,0.1 -0.4,0.3 -0.1,0.2 0,0.5 0.2,0.6 l 77,50.9 c 0.2,0.1 0.4,0.1 0.6,0 l 44.4,-37.8 c 0.2,-0.1 0.2,-0.3 0.2,-0.5 -0.1,-0.2 -0.2,-0.3 -0.4,-0.3 L 306.6,92.1 c 0.1,0 0.1,0 0,0 z"
   id="path1136" />
								<path
   class="st3"
   d="M 307.7,92.2 413.2,-18.3 427.5,105.1 Z M 413.5,-19.9 c -0.1,0 -0.2,0.1 -0.3,0.2 l -106.9,112 c -0.1,0.1 -0.2,0.3 -0.1,0.5 0.1,0.2 0.2,0.3 0.4,0.3 l 121.4,13 c 0.2,0 0.3,0 0.4,-0.1 0.1,-0.1 0.2,-0.3 0.1,-0.4 L 414,-19.5 c 0,-0.2 -0.2,-0.3 -0.3,-0.4 -0.1,0 -0.1,0 -0.2,0 z m -223.2,76.4 -48.2,-51 137.2,46 z M 140.4,3.8 c -0.2,0 -0.3,0.1 -0.4,0.2 -0.1,0.2 -0.1,0.4 0.1,0.6 l 49.8,52.6 c 0.1,0.1 0.2,0.2 0.4,0.2 l 91.8,-5.2 v 0 c 0.2,0 0.4,-0.2 0.5,-0.4 0,-0.2 -0.1,-0.5 -0.3,-0.5 L 140.5,3.9 c 0,-0.1 -0.1,-0.1 -0.1,-0.1 z"
   id="path1138" />
								<path
   class="st3"
   d="m 141.3,4.1 105,-96.2 34.8,143 z m 105.3,-97.6 c -0.1,0 -0.2,0 -0.3,0.1 L 140.1,4 c -0.1,0.1 -0.2,0.3 -0.1,0.5 0,0.2 0.2,0.3 0.3,0.4 l 141.5,47.4 c 0.2,0.1 0.4,0 0.5,-0.1 0.1,-0.1 0.2,-0.3 0.1,-0.5 L 247.1,-93.1 c 0,-0.2 -0.2,-0.3 -0.3,-0.4 -0.1,0 -0.1,0 -0.2,0 z"
   id="path1140" />
								<path
   class="st3"
   d="m 305.6,91.7 -112.7,-34.4 88.7,-5 z M 190.1,56.5 c -0.2,0 -0.4,0.2 -0.5,0.4 0,0.2 0.1,0.5 0.4,0.5 L 306.5,93 c 0.2,0.1 0.4,0 0.5,-0.2 0.1,-0.2 0.1,-0.4 0,-0.6 L 282.2,51.4 c -0.1,-0.2 -0.3,-0.2 -0.5,-0.2 z"
   id="path1142" />
								<path
   class="st3"
   d="m 282.2,51 -34.8,-143.1 165,72.7 z M 246.6,-93.5 c -0.1,0 -0.2,0 -0.3,0.1 -0.1,0.1 -0.2,0.3 -0.2,0.5 l 35.2,144.7 c 0,0.2 0.1,0.3 0.3,0.3 0.1,0.1 0.3,0.1 0.4,0 L 413.8,-19 c 0.2,-0.1 0.3,-0.3 0.3,-0.5 0,-0.2 -0.1,-0.4 -0.3,-0.4 L 246.9,-93.4 c -0.1,-0.1 -0.2,-0.1 -0.3,-0.1 z"
   id="path1144" />
								<path
   class="st3"
   d="M 282.6,52 411,-17.5 306.7,91.7 Z m 130.9,-71.9 c -0.1,0 -0.1,0 -0.2,0.1 L 281.7,51.3 c -0.1,0.1 -0.2,0.2 -0.2,0.3 0,0.1 0,0.3 0.1,0.4 l 24.8,40.8 c 0.1,0.1 0.2,0.2 0.4,0.2 0.2,0 0.3,0 0.4,-0.1 l 106.9,-112 c 0.2,-0.2 0.2,-0.4 0,-0.6 -0.3,-0.2 -0.4,-0.2 -0.6,-0.2 z m -31.8,375 c -0.2,0 -0.3,0.1 -0.4,0.2 -0.1,0.2 -0.1,0.5 0.2,0.7 l 95.8,56 c 0.2,0.1 0.5,0.1 0.7,-0.2 0.1,-0.2 0.1,-0.5 -0.2,-0.7 l -95.7,-56 c -0.2,0 -0.3,0 -0.4,0"
   id="path1146" />
								<path
   class="st3"
   d="m 382.9,355.7 88.8,-32.7 5.2,87.6 z m 89.2,-33.9 H 472 L 381.5,355 c -0.2,0.1 -0.3,0.2 -0.3,0.4 0,0.2 0.1,0.4 0.2,0.5 l 95.8,56 c 0.2,0.1 0.4,0.1 0.5,0 0.2,-0.1 0.2,-0.3 0.2,-0.5 l -5.3,-89.2 c 0,-0.2 -0.1,-0.3 -0.2,-0.4 0,0 -0.2,0 -0.3,0 z"
   id="path1148" />
								<path
   class="st3"
   d="m 477.9,410.7 -5.2,-87.6 92.2,34.9 z m -5.8,-88.9 c -0.1,0 -0.2,0 -0.3,0.1 -0.1,0.1 -0.2,0.3 -0.2,0.4 l 5.3,89.2 c 0,0.2 0.1,0.3 0.3,0.4 0.2,0.1 0.3,0.1 0.5,0 l 88.6,-53.7 c 0.2,-0.1 0.3,-0.3 0.2,-0.5 0,-0.2 -0.1,-0.3 -0.3,-0.4 l -93.9,-35.5 c 0,0 -0.1,0 -0.2,0 z"
   id="path1150" />
								<path
   class="st3"
   d="M 496.3,555.1 478.4,415 532.7,541.2 Z M 477.4,411 c 0,0 0,0.1 0,0 -0.3,0.1 -0.5,0.3 -0.5,0.6 l 18.4,144.2 c 0,0.2 0.1,0.3 0.2,0.4 0.1,0.1 0.3,0.1 0.4,0 l 37.5,-14.3 c 0.1,0 0.2,-0.1 0.3,-0.3 0.1,-0.2 0.1,-0.3 0,-0.4 L 477.9,411.3 c -0.1,-0.2 -0.3,-0.3 -0.5,-0.3 z"
   id="path1152" />
								<path
   class="st3"
   d="m 478.1,411.7 87.3,-52.9 -32.3,180.9 z M 566,357.3 c -0.1,0 -0.2,0 -0.2,0.1 l -88.6,53.7 c -0.2,0.1 -0.3,0.4 -0.2,0.6 l 55.8,129.9 c 0.1,0.2 0.3,0.3 0.5,0.3 0.2,0 0.4,-0.2 0.4,-0.4 l 32.7,-183.6 c 0,-0.2 0,-0.4 -0.2,-0.5 0,-0.1 -0.1,-0.1 -0.2,-0.1 z"
   id="path1154" />
								<path
   class="st4"
   d="m 484.7,168.9 c 0.1,1.1 -0.8,2.1 -1.9,2.2 -1.1,0.1 -2.1,-0.8 -2.2,-1.9 -0.1,-1.1 0.8,-2.1 1.9,-2.2 1.2,-0.1 2.2,0.8 2.2,1.9"
   id="path1156" />
								<path
   class="st5"
   d="m 392.4,142.8 c 0.3,4.8 -3.3,9 -8.2,9.3 -4.8,0.3 -9,-3.3 -9.3,-8.2 -0.3,-4.8 3.4,-9 8.2,-9.3 4.8,-0.3 9,3.4 9.3,8.2"
   id="path1158" />
								<path
   class="st6"
   d="m 390.1,162.8 c 0.3,5.1 -3.6,9.6 -8.7,9.9 -5.2,0.3 -9.6,-3.6 -9.9,-8.7 -0.3,-5.1 3.6,-9.6 8.7,-9.9 5.1,-0.3 9.5,3.6 9.9,8.7"
   id="path1160" />
								<path
   class="st7"
   d="m 145.7,4 c 0.2,2.9 -2,5.5 -5,5.7 -2.9,0.2 -5.5,-2 -5.7,-5 -0.2,-2.9 2,-5.5 5,-5.7 3,-0.2 5.5,2 5.7,5"
   id="path1162" />
								<path
   class="st7"
   d="m 141.1,4.3 c 0,0.4 -0.3,0.8 -0.7,0.8 -0.4,0 -0.8,-0.3 -0.8,-0.7 0,-0.4 0.3,-0.8 0.7,-0.8 0.4,0 0.8,0.3 0.8,0.7"
   id="path1164" />
								<path
   class="st4"
   d="m 145,4 c 0.2,2.6 -1.8,4.8 -4.3,4.9 -2.6,0.2 -4.8,-1.8 -4.9,-4.3 -0.2,-2.6 1.8,-4.8 4.3,-4.9 2.5,-0.2 4.7,1.8 4.9,4.3"
   id="path1166" />
								<path
   class="st7"
   d="m 487.1,168.8 c 0.2,2.4 -1.7,4.5 -4.1,4.7 -2.4,0.2 -4.5,-1.7 -4.7,-4.1 -0.2,-2.4 1.7,-4.5 4.1,-4.7 2.4,-0.2 4.5,1.6 4.7,4.1 M 193.8,56.7 c 0.1,2 -1.4,3.8 -3.4,3.9 -2,0.1 -3.8,-1.4 -3.9,-3.4 -0.1,-2 1.4,-3.8 3.4,-3.9 2,-0.1 3.8,1.4 3.9,3.4"
   id="path1168" />
								<path
   class="st8"
   d="m 460.6,111.8 c 0.2,2.6 -1.8,4.9 -4.5,5.1 -2.6,0.2 -4.9,-1.8 -5.1,-4.5 -0.2,-2.6 1.8,-4.9 4.5,-5.1 2.7,-0.1 4.9,1.9 5.1,4.5"
   id="path1170" />
								<path
   class="st9"
   d="m 433.7,105.3 c 0.2,3.1 -2.2,5.8 -5.3,6 -3.1,0.2 -5.8,-2.2 -6.1,-5.3 -0.2,-3.1 2.2,-5.8 5.3,-6.1 3.2,-0.1 5.9,2.2 6.1,5.4"
   id="path1172" />
								<path
   class="st6"
   d="m 492.2,168.4 c 0.3,5.2 -3.6,9.8 -8.9,10.1 -5.2,0.3 -9.8,-3.6 -10.1,-8.9 -0.3,-5.2 3.6,-9.8 8.9,-10.1 5.2,-0.3 9.7,3.7 10.1,8.9"
   id="path1174" />
								<path
   class="st10"
   d="m 436.4,105.1 c 0.3,4.6 -3.2,8.6 -7.8,8.9 -4.6,0.3 -8.6,-3.2 -8.9,-7.8 -0.3,-4.6 3.2,-8.6 7.8,-8.9 4.6,-0.3 8.6,3.2 8.9,7.8"
   id="path1176" />
								<path
   class="st9"
   d="m 473.9,322.2 c 0.1,1 -0.7,1.8 -1.7,1.9 -1,0.1 -1.8,-0.7 -1.9,-1.7 -0.1,-1 0.7,-1.8 1.7,-1.9 1,0 1.9,0.7 1.9,1.7"
   id="path1178" />
								<path
   class="st9"
   d="m 476.5,322 c 0.2,2.4 -1.7,4.5 -4.1,4.7 -2.4,0.2 -4.5,-1.7 -4.7,-4.1 -0.2,-2.4 1.7,-4.5 4.1,-4.7 2.5,-0.1 4.6,1.7 4.7,4.1"
   id="path1180" />
								<path
   class="st4"
   d="m 125.5,46.9 c 0.2,3.3 -2.3,6.2 -5.6,6.4 -3.3,0.2 -6.2,-2.3 -6.4,-5.6 -0.2,-3.3 2.3,-6.2 5.6,-6.4 3.3,-0.2 6.2,2.3 6.4,5.6"
   id="path1182" />
								<path
   class="st7"
   d="m 122.1,47.1 c 0.1,1.4 -1,2.6 -2.4,2.7 -1.4,0.1 -2.6,-1 -2.7,-2.4 -0.1,-1.4 1,-2.6 2.4,-2.7 1.4,0 2.6,1 2.7,2.4"
   id="path1184" />
								<path
   class="st7"
   d="m 126.1,46.9 c 0.2,3.6 -2.5,6.8 -6.1,7 -3.6,0.2 -6.8,-2.5 -7,-6.1 -0.2,-3.6 2.5,-6.8 6.1,-7 3.6,-0.3 6.8,2.4 7,6.1 M 145.1,4 c 0.2,2.6 -1.8,4.9 -4.4,5 -2.6,0.2 -4.9,-1.8 -5,-4.4 -0.2,-2.6 1.8,-4.9 4.4,-5 2.6,-0.2 4.8,1.8 5,4.4"
   id="path1186" />
								<path
   class="st10"
   d="m 126.4,46.8 c 0.3,3.8 -2.6,7.1 -6.4,7.3 -3.8,0.2 -7.1,-2.6 -7.3,-6.4 -0.3,-3.8 2.6,-7.1 6.4,-7.3 3.8,-0.2 7,2.6 7.3,6.4"
   id="path1188" />
								<path
   class="st11"
   d="m 196.6,56.5 c 0.2,3.5 -2.5,6.6 -6,6.8 -3.6,0.2 -6.6,-2.5 -6.8,-6 -0.2,-3.5 2.5,-6.6 6,-6.8 3.5,-0.2 6.5,2.5 6.8,6"
   id="path1190" />
								<path
   class="st7"
   d="m 142.7,4.2 c 0.1,1.3 -0.9,2.3 -2.1,2.4 -1.3,0.1 -2.3,-0.9 -2.4,-2.1 -0.1,-1.3 0.9,-2.3 2.1,-2.4 1.2,-0.1 2.3,0.8 2.4,2.1"
   id="path1192" />
								<path
   class="st12"
   d="m 363.2,272 c 0.3,4.7 -3.3,8.7 -8,9.1 -4.7,0.3 -8.8,-3.2 -9.1,-7.9 -0.3,-4.7 3.3,-8.7 8,-9.1 4.8,-0.4 8.8,3.2 9.1,7.9"
   id="path1194" />
								<path
   class="st13"
   d="m 363.8,271.9 c 0.3,5 -3.5,9.3 -8.5,9.6 -5,0.3 -9.3,-3.5 -9.6,-8.4 -0.3,-5 3.5,-9.3 8.5,-9.6 4.9,-0.3 9.2,3.4 9.6,8.4"
   id="path1196" />
								<path
   class="st4"
   d="m 474.1,322.2 c 0.1,1 -0.7,1.9 -1.8,2 -1,0.1 -1.9,-0.7 -2,-1.8 -0.1,-1 0.7,-1.9 1.8,-2 1,0 1.9,0.8 2,1.8"
   id="path1198" />
								<path
   class="st7"
   d="m 384.1,355.4 c 0.1,1.3 -0.9,2.4 -2.2,2.5 -1.3,0.1 -2.4,-0.9 -2.5,-2.2 -0.1,-1.3 0.9,-2.4 2.2,-2.5 1.3,-0.1 2.4,0.9 2.5,2.2"
   id="path1200" />
								<path
   class="st14"
   d="m 477.5,322 c 0.2,2.9 -2,5.5 -5,5.7 -2.9,0.2 -5.5,-2 -5.7,-5 -0.2,-2.9 2,-5.5 5,-5.7 3,-0.2 5.5,2 5.7,5"
   id="path1202" />
								<path
   class="st6"
   d="m 317,91.9 c 0.4,5.7 -4,10.6 -9.7,11 -5.7,0.4 -10.7,-4 -11,-9.7 -0.4,-5.7 4,-10.6 9.7,-11 5.7,-0.4 10.6,4 11,9.7"
   id="path1204" />
								<path
   class="st7"
   d="m 286.4,51.5 c 0.2,2.5 -1.7,4.7 -4.2,4.8 -2.5,0.2 -4.7,-1.7 -4.8,-4.2 -0.2,-2.5 1.7,-4.7 4.2,-4.8 2.5,-0.2 4.7,1.7 4.8,4.2"
   id="path1206" />
								<path
   class="st8"
   d="m 145,4 c 0.2,2.5 -1.8,4.7 -4.3,4.9 -2.5,0.2 -4.7,-1.8 -4.9,-4.3 -0.2,-2.5 1.8,-4.7 4.3,-4.9 2.5,-0.2 4.7,1.8 4.9,4.3"
   id="path1208" />
								<path
   class="st12"
   d="m 285.6,51.5 c 0.1,2 -1.4,3.8 -3.4,3.9 -2,0.1 -3.8,-1.4 -3.9,-3.4 -0.1,-2 1.4,-3.8 3.4,-3.9 2,-0.1 3.7,1.4 3.9,3.4"
   id="path1210" />
								<path
   class="st15"
   d="m 287,51.4 c 0.2,2.8 -2,5.3 -4.8,5.5 -2.8,0.2 -5.3,-2 -5.5,-4.8 -0.2,-2.8 2,-5.3 4.8,-5.5 2.9,-0.1 5.3,2 5.5,4.8"
   id="path1212" />
								<path
   class="st9"
   d="m 483.7,411.1 c 0.2,3.4 -2.4,6.4 -5.8,6.6 -3.4,0.2 -6.4,-2.4 -6.6,-5.8 -0.2,-3.4 2.4,-6.4 5.8,-6.6 3.4,-0.2 6.4,2.4 6.6,5.8"
   id="path1214" />
								<path
   class="st9"
   d="m 479,411.4 c 0.1,0.8 -0.6,1.6 -1.4,1.6 -0.8,0.1 -1.6,-0.6 -1.6,-1.4 -0.1,-0.8 0.6,-1.6 1.4,-1.6 0.8,0 1.5,0.6 1.6,1.4"
   id="path1216" />
								<path
   class="st4"
   d="m 382.8,355.5 c 0,0.6 -0.4,1.1 -1,1.1 -0.6,0 -1.1,-0.4 -1.1,-1 0,-0.6 0.4,-1.1 1,-1.1 0.5,0 1,0.4 1.1,1"
   id="path1218" />
								<path
   class="st7"
   d="m 480,411.4 c 0.1,1.4 -1,2.6 -2.4,2.7 -1.4,0.1 -2.6,-1 -2.7,-2.4 -0.1,-1.4 1,-2.6 2.4,-2.7 1.4,-0.1 2.6,1 2.7,2.4"
   id="path1220" />
								<path
   class="st6"
   d="m 487.9,410.9 c 0.4,5.8 -4,10.8 -9.8,11.1 -5.8,0.4 -10.8,-4 -11.1,-9.8 -0.4,-5.8 4,-10.8 9.8,-11.1 5.8,-0.4 10.8,4 11.1,9.8"
   id="path1222" />
								<path
   class="st16"
   d="m 385.1,355.3 c 0.1,1.9 -1.3,3.5 -3.1,3.6 -1.9,0.1 -3.5,-1.3 -3.6,-3.1 -0.1,-1.9 1.3,-3.5 3.1,-3.6 1.9,-0.1 3.5,1.3 3.6,3.1"
   id="path1224" />
							</g>
						</g>
					</g>
				</g>
			</g>
		</g>
	</g>
</g>
</svg>
