<svg xmlns="http://www.w3.org/2000/svg" width="21" height="21" viewBox="0 0 21 21">
    <defs>
        <filter id="2ti4uf1axa">
            <feColorMatrix in="SourceGraphic"
                values="0.05 0   0   0   0 0   0.20  0   0   0 0   0   0.28  0   0 0   0   0   1   0 " />
        </filter>
    </defs>
    <g fill="none" fill-rule="evenodd">
        <g>
            <g filter="url(#2ti4uf1axa)" transform="translate(-1265 -1463) translate(1265 1463)">
                <g fill="#0C3248">
                    <path
                        d="M19.652 0H1.148C.514 0 0 .514 0 1.148v18.504c0 .634.514 1.148 1.148 1.148h9.97v-8.044H8.41V9.607h2.707V7.291c0-2.686 1.643-4.15 4.038-4.15.808-.001 1.614.04 2.417.122v2.808h-1.65c-1.305 0-1.56.617-1.56 1.528v2.005h3.12l-.404 3.149h-2.733V20.8h5.307c.634 0 1.148-.514 1.148-1.148V1.148C20.8.514 20.286 0 19.652 0z" />
                </g>
            </g>
        </g>
    </g>
</svg>