<svg xmlns="http://www.w3.org/2000/svg" width="22" height="21" viewBox="0 0 22 21">
    <defs>
        <filter id="stgw1wf6ya">
            <feColorMatrix in="SourceGraphic"
                values="0.05 0   0   0   0 0   0.20  0   0   0 0   0   0.28  0   0 0   0   0   1   0 " />
        </filter>
    </defs>
    <g fill="none" fill-rule="evenodd">
        <g>
            <g transform="translate(-1337 -1463) translate(1265 1463)">
                <path fill="#0C3248"
                    d="M90.525 17.724H87.44v-4.828c0-1.15-.021-2.631-1.604-2.631-1.604 0-1.85 1.255-1.85 2.549v4.91h-3.081V7.798h2.956v1.356h.042c.413-.78 1.418-1.602 2.92-1.602 3.124 0 3.7 2.054 3.7 4.728v5.444zM77.427 6.442c-.991 0-1.791-.802-1.791-1.79 0-.987.8-1.789 1.791-1.789.986 0 1.788.802 1.788 1.79 0 .987-.802 1.79-1.788 1.79zm-1.546 11.282h3.089V7.798h-3.09v9.926zM92.06 0H74.334C73.488 0 72.8.671 72.8 1.5v17.799c0 .828.688 1.501 1.534 1.501H92.06c.848 0 1.539-.673 1.539-1.501v-17.8C93.6.672 92.909 0 92.06 0z" />
            </g>
        </g>
    </g>
</svg>