<svg xmlns="http://www.w3.org/2000/svg" width="22" height="21" viewBox="0 0 22 21">
    <defs>
        <filter id="1tzb9nbqla">
            <feColorMatrix in="SourceGraphic"
                values="0.05 0   0   0   0 0   0.20  0   0   0 0   0   0.28  0   0 0   0   0   1   0 " />
        </filter>
    </defs>
    <g fill="none" fill-rule="evenodd">
        <g>
            <g filter="url(#1tzb9nbqla)" transform="translate(-1301 -1463) translate(1265 1463)">
                <g fill="#0C3248">
                    <path
                        d="M18.2 0c1.435 0 2.6 1.165 2.6 2.6v15.6c0 1.435-1.165 2.6-2.6 2.6H2.6c-1.435 0-2.6-1.165-2.6-2.6V2.6C0 1.165 1.165 0 2.6 0h15.6zm-5.299 5.117c-1.471 0-2.667 1.196-2.667 2.667 0 .208.026.411.067.609-2.215-.11-4.18-1.175-5.496-2.787-.229.395-.359.852-.359 1.341 0 .926.473 1.742 1.186 2.22-.437-.015-.848-.135-1.207-.332v.036c0 1.29.92 2.371 2.137 2.616-.223.062-.457.093-.702.093-.171 0-.338-.015-.499-.046.338 1.06 1.326 1.83 2.491 1.85-.915.718-2.064 1.145-3.312 1.145-.214 0-.427-.01-.635-.037 1.175.75 2.58 1.191 4.082 1.191 4.904 0 7.587-4.066 7.587-7.587 0-.114 0-.228-.005-.343.52-.374.972-.847 1.331-1.383-.478.213-.993.354-1.534.421.551-.327.972-.853 1.175-1.477-.515.307-1.087.526-1.695.645-.489-.52-1.18-.842-1.945-.842z"
                        transform="translate(36.4)" />
                </g>
            </g>
        </g>
    </g>
</svg>